<?xml version="1.0" encoding="UTF-8"?>
<svg width="57px" height="38px" viewBox="0 0 57 38" version="1.1" xmlns="http://www.w3.org/2000/svg" xmlns:xlink="http://www.w3.org/1999/xlink">
    <!-- Generator: Sketch 61 (89581) - https://sketch.com -->
    <title>编组 11</title>
    <desc>Created with Sketch.</desc>
    <g id="高保真" stroke="none" stroke-width="1" fill="none" fill-rule="evenodd">
        <g id="首页2" transform="translate(-358.000000, -507.000000)" fill-rule="nonzero">
            <g id="custom" transform="translate(0.000000, 339.000000)">
                <g id="Dollar" transform="translate(342.000000, 168.000000)">
                    <g id="编组-11" transform="translate(16.950000, 0.950000)">
                        <path d="M54.15,36.1 L0.949999963,36.1 C0.379999963,36.1 -1.84741111e-13,35.72 -1.84741111e-13,35.15 L-1.84741111e-13,0.950000019 C-1.84741111e-13,0.380000019 0.380000019,-2.13162821e-14 0.949999963,-2.13162821e-14 L54.15,-2.13162821e-14 C54.72,-2.13162821e-14 55.1,0.380000019 55.1,0.950000019 L55.1,35.15 C55.1,35.72 54.7199999,36.1 54.15,36.1 L54.15,36.1 Z M1.89999998,34.2 L53.2,34.2 L53.2,1.90000004 L1.89999998,1.90000004 L1.89999998,34.2 Z" id="形状" stroke="#0066B3" fill="#0066B3"></path>
                        <path d="M27.55,27.55 C24.13,27.55 21.09,25.46 20.9,22.61 C20.9,22.04 21.28,21.66 21.85,21.66 C22.42,21.66 22.8,22.04 22.8,22.61 C22.99,24.32 25.08,25.65 27.55,25.65 C30.21,25.65 32.3,24.13 32.3,22.23 C32.3,20.14 29.6399999,19.38 27.74,19 L27.17,18.81 C22.99,18.05 20.9,16.34 20.9,13.68 C20.9,10.83 23.9399999,8.36000002 27.55,8.36000002 C30.97,8.36000002 34.01,10.45 34.2,13.3 C34.2,13.87 33.82,14.2500001 33.25,14.25 C32.68,14.2499999 32.3,13.87 32.3,13.3 C32.11,11.78 30.02,10.45 27.55,10.45 C24.89,10.45 22.8,11.9700001 22.8,13.87 C22.8,16.15 25.46,16.72 27.36,17.1 L27.93,17.29 C32.11,18.05 34.2,19.76 34.2,22.42 C34.2,25.27 31.16,27.55 27.55,27.55 L27.55,27.55 Z" id="路径" fill="#EF3535"></path>
                        <path d="M48.45,7.60000004 L44.65,7.60000004 C44.08,7.60000004 43.7,7.22000002 43.7,6.65000002 C43.7,6.08000002 44.08,5.7 44.65,5.7 L48.45,5.7 C49.02,5.7 49.4,6.08000002 49.4,6.65000002 C49.4,7.22000002 49.0199999,7.60000004 48.45,7.60000004 Z M10.45,30.4 L6.64999996,30.4 C6.07999996,30.4 5.7,30.02 5.7,29.45 C5.7,28.88 6.08000002,28.5 6.64999996,28.5 L10.45,28.5 C11.02,28.5 11.4,28.88 11.4,29.45 C11.4,30.02 11.02,30.4 10.45,30.4 Z" id="形状" fill="#0066B3"></path>
                        <path d="M27.55,28.5 C26.98,28.5 26.6,28.12 26.6,27.55 L26.6,8.55 C26.6,7.98 26.98,7.60000004 27.55,7.60000004 C28.12,7.60000004 28.5,7.98000006 28.5,8.55 L28.5,27.55 C28.5,28.12 28.12,28.5 27.55,28.5 Z" id="路径" fill="#EF3535"></path>
                    </g>
                </g>
            </g>
        </g>
    </g>
</svg>