<?xml version="1.0" encoding="UTF-8"?>
<svg width="44px" height="44px" viewBox="0 0 44 44" version="1.1" xmlns="http://www.w3.org/2000/svg" xmlns:xlink="http://www.w3.org/1999/xlink">
    <g id="高保真" stroke="none" stroke-width="1" fill="none" fill-rule="evenodd">
        <g id="我的" transform="translate(-26.000000, -1191.000000)">
            <g id="关于" transform="translate(0.000000, 1162.000000)">
                <rect id="矩形" stroke="#9B9B9B" fill="#FFFFFF" x="0" y="0" width="750" height="103"></rect>
                <g id="about" transform="translate(26.000000, 29.000000)" fill-rule="nonzero">
                    <rect id="矩形" fill="#000000" opacity="0" x="0" y="0" width="44" height="44"></rect>
                    <path d="M22,44 C9.856,44 0,34.144 0,22 C0,9.856 9.856,0 22,0 C34.144,0 44,9.856 44,22 C44,34.144 34.144,44 22,44 Z M22,3.212 C11.66,3.212 3.256,11.66 3.256,22 C3.256,32.34 11.66,40.788 22,40.788 C32.34,40.788 40.788,32.34 40.788,22 C40.788,11.66 32.34,3.212 22,3.212 Z" id="形状" fill="#0066B3"></path>
                    <path d="M22,35.596 C20.934513,35.5870333 20.0729667,34.725487 20.064,33.66 L20.064,19.096 C20.064,17.996 20.944,17.16 22,17.16 C23.056,17.16 23.936,17.996 23.936,19.096 L23.936,33.66 C23.9270333,34.725487 23.065487,35.5870333 22,35.596 Z" id="路径" fill="#EF3535"></path>
                    <path d="M22,15.224 C20.944,15.224 20.064,14.344 20.064,13.244 L20.064,10.34 C20.064,9.284 20.944,8.404 22,8.404 C23.056,8.404 23.936,9.284 23.936,10.34 L23.936,13.244 C23.936,14.344 23.056,15.224 22,15.224 L22,15.224 Z" id="路径" fill="#EF3535"></path>
                </g>
            </g>
        </g>
    </g>
</svg>