<?xml version="1.0" encoding="UTF-8"?>
<svg width="38px" height="38px" viewBox="0 0 38 38" version="1.1" xmlns="http://www.w3.org/2000/svg" xmlns:xlink="http://www.w3.org/1999/xlink">
    <!-- Generator: Sketch 61 (89581) - https://sketch.com -->
    <title>积分-活动</title>
    <desc>Created with Sketch.</desc>
    <g id="高保真" stroke="none" stroke-width="1" fill="none" fill-rule="evenodd">
        <g id="消息中心" transform="translate(-27.000000, -278.000000)">
            <g id="营销活动" transform="translate(0.000000, 246.000000)">
                <g id="积分-活动" transform="translate(24.000000, 29.000000)">
                    <rect id="矩形" fill="#000000" fill-rule="nonzero" opacity="0" x="0" y="0" width="44" height="44"></rect>
                    <path d="M19.1688475,40.4870898 C18.1348006,40.4870898 17.1645544,40.0862575 16.4366719,39.358375 L4.59756683,27.5193579 C3.86972829,26.7915193 3.46889606,25.8212292 3.46889606,24.7871823 C3.46889606,23.7531794 3.86972829,22.7828892 4.59752288,22.0550507 L21.2195731,5.43304442 C22.3754614,4.27715612 24.4610554,3.4382049 26.1787068,3.4382049 C26.2999326,3.4382049 26.4201911,3.44242602 26.5362284,3.45073639 L35.8992403,4.12255688 C36.889449,4.19361271 37.8411397,4.63911864 38.5790034,5.3769824 C39.3168671,6.11484612 39.7623731,7.0665369 39.8333849,8.05674551 L40.5052054,17.4197574 C40.6324991,19.1933829 39.7802689,21.4790852 38.5228534,22.7364567 L21.9009791,39.358419 C21.1731406,40.0862575 20.2028505,40.4870898 19.1688475,40.4870898 Z M26.1787508,6.18022982 C25.1876188,6.18022982 23.8045366,6.72598781 23.1585705,7.37195383 L6.53652025,23.9940041 C6.32660656,24.2038738 6.21100893,24.4856348 6.21100893,24.7871823 C6.21100893,25.0887738 6.32660656,25.3704908 6.53652025,25.5803606 L18.3756253,37.4194657 C18.585539,37.6294233 18.867256,37.7450209 19.1688475,37.7450209 C19.4703951,37.7450209 19.7521121,37.6294233 19.9620258,37.4195096 L36.5840321,20.7974594 C37.2748037,20.1067317 37.8401724,18.5903318 37.7703038,17.6159964 L37.0984833,8.25298452 C37.048709,7.55939877 36.3966751,6.90732088 35.7031333,6.85759061 L26.3401215,6.18577012 C26.289028,6.18207657 26.2347688,6.18022982 26.1787508,6.18022982 Z" id="形状" fill="#2962FF" fill-rule="nonzero"></path>
                    <circle id="椭圆形" fill="#EF3535" cx="31" cy="13" r="3"></circle>
                </g>
            </g>
        </g>
    </g>
</svg>