<svg width="36px" height="38px" viewBox="0 0 36 38" version="1.1" xmlns="http://www.w3.org/2000/svg" xmlns:xlink="http://www.w3.org/1999/xlink">
    <g id="调整" stroke="none" stroke-width="1" fill="none" fill-rule="evenodd">
        <g id="转账" transform="translate(-601.000000, -610.000000)">
            <g id="矩形">
                <use fill="black" fill-opacity="1" filter="url(#filter-2)" xlink:href="#path-1"></use>
                <use fill="#FFFFFF" fill-rule="evenodd" xlink:href="#path-1"></use>
            </g>
            <g id="通讯录" transform="translate(601.000000, 610.000000)" fill-rule="nonzero">
                <path d="M26.6666666,10.1666667 C26.6666666,4.66666664 22.2666667,0.266666662 16.7666667,0.266666662 C11.2666667,0.266666662 6.86666666,4.66666664 6.86666666,10.1666667 C6.86666666,13.7966667 8.84666666,16.9866667 11.7066667,18.7466667 C5.10666668,20.9466667 0.266666662,27.5466667 0.266666662,35.3566667 L0.266666662,36.5666666 C0.266666662,37.1166667 0.816666679,37.5566666 1.3666667,37.5566666 L1.47666668,37.5566666 C2.13666668,37.5566666 2.57666666,37.0066666 2.46666668,36.3466667 L2.46666668,35.2466666 C2.46666668,26.9966666 8.84666666,20.0666667 16.7666667,20.0666667 C22.2666667,20.0666667 26.6666666,15.6666667 26.6666666,10.1666667 Z M34.3666667,35.4666667 C35.0266667,35.4666667 35.4666667,35.9066666 35.4666667,36.5666666 C35.4666667,37.2266667 35.0266667,37.6666667 34.3666667,37.6666667 L34.3666667,37.6666667 L25.8966667,37.6666667 C25.2366667,37.6666667 24.7966667,37.2266666 24.7966667,36.5666666 C24.7966667,35.9066666 25.2366667,35.4666667 25.8966667,35.4666667 L25.8966667,35.4666667 Z M34.3666667,22.2666667 C35.0266667,22.2666667 35.4666667,22.7066667 35.4666667,23.3666667 C35.4666667,24.0266667 35.0266667,24.4666667 34.3666667,24.4666667 L34.3666667,24.4666667 L20.0666667,24.4666667 C19.4066667,24.4666667 18.9666667,24.0266667 18.9666667,23.3666667 C18.9666667,22.7066667 19.4066667,22.2666667 20.0666667,22.2666667 L20.0666667,22.2666667 Z M16.7666667,2.46666668 C21.0566667,2.46666668 24.4666667,5.87666666 24.4666667,10.1666667 C24.4666667,14.4566667 21.0566667,17.8666667 16.7666667,17.8666667 C12.4766667,17.8666667 9.06666668,14.4566667 9.06666668,10.1666667 C9.06666668,5.87666661 12.4766667,2.46666668 16.7666667,2.46666668 Z" id="形状" fill="#0066B3"></path>
                <path d="M34.3666667,28.8666667 L22.9266667,28.8666667 C22.2666667,28.8666667 21.8266667,29.3066666 21.8266667,29.9666666 C21.8266667,30.6266666 22.2666667,31.0666667 22.9266667,31.0666667 L34.3666667,31.0666667 C35.0266667,31.0666667 35.4666667,30.6266667 35.4666667,29.9666666 C35.4666667,29.3066666 35.0266667,28.8666667 34.3666667,28.8666667 Z" id="路径" fill="#EF3535"></path>
            </g>
        </g>
    </g>
</svg>