<?xml version="1.0" encoding="UTF-8"?>
<svg width="64px" height="64px" viewBox="0 0 64 64" version="1.1" xmlns="http://www.w3.org/2000/svg" xmlns:xlink="http://www.w3.org/1999/xlink">
    <!-- Generator: Sketch 61 (89581) - https://sketch.com -->
    <title>形状</title>
    <desc>Created with Sketch.</desc>
    <g id="调整" stroke="none" stroke-width="1" fill="none" fill-rule="evenodd">
        <g id="转账" transform="translate(-51.000000, -1582.000000)" fill="#009174" fill-rule="nonzero">
            <g id="编组-3" transform="translate(-1.000000, 946.000000)">
                <g id="中国农业银行" transform="translate(52.000000, 636.000000)">
                    <path d="M29.13792,0.45376 L30.6016,0.32 L33.5312,0.32 L34.86208,0.45376 L34.86208,19.88576 L34.72864,20.02016 L34.59648,20.28608 L34.46336,20.28608 L34.32992,20.41952 L33.92928,20.552 L30.20352,20.552 L29.80576,20.41952 L29.66976,20.28608 L29.40352,20.28608 L29.40352,20.02016 L29.27136,19.88576 L29.13792,19.35424 L29.13792,0.45376 Z M42.58112,31.86688 L42.58112,41.31808 L42.44832,41.584 L42.31488,41.71712 L42.18272,41.98304 L41.91648,41.98304 L41.65152,42.11648 L41.11616,42.2496 L35.5248,42.2496 L35.5248,57.15776 L36.72416,56.8912 L37.92288,56.75872 L38.98944,56.35968 L40.05472,56.09248 L40.58624,55.95936 L41.11616,55.69312 L42.18272,55.29376 L43.24864,54.76224 L44.18176,54.22944 L45.2432,53.69696 L46.17728,53.16416 L46.97376,52.49824 L47.90656,51.83392 L49.6352,50.36832 L50.43616,49.57056 L51.10112,48.77216 L51.90048,47.84128 L52.56512,47.0416 L53.232,46.10976 L53.7632,45.1776 L54.29472,44.11328 L54.82944,43.1824 L55.36,42.11712 L55.7584,41.05184 L56.42656,38.9216 L56.82464,37.85728 L56.95712,36.65984 L57.22304,35.5952 L57.35968,34.39648 L57.49312,32.00096 L57.35968,30.13792 L57.22304,29.20576 L57.22304,28.2752 L56.82464,26.4112 L56.29344,24.54688 L56.02784,23.74752 L55.75808,22.95008 L55.09472,21.21888 L54.16128,19.62272 L53.36512,18.0256 L52.2992,16.69376 L51.10112,15.22976 L49.9024,13.89856 L48.5696,12.70048 L47.24256,11.6352 L45.77472,10.57152 L44.18144,9.64032 L42.5808,8.84032 L42.5808,30.67072 L42.448,30.93664 L42.31456,31.07104 L42.1824,31.33568 L41.91616,31.4704 L41.6512,31.4704 L41.11584,31.60256 L33.264,31.60256 L33.13184,31.73664 L32.99808,31.8688 L32.99808,22.68256 L33.13184,22.41504 L33.264,22.15072 L33.53024,22.01696 L37.12576,22.01696 L37.65632,21.88352 L38.05472,21.7504 L38.32096,21.61728 L38.59072,21.2176 L38.59072,0.98656 L41.24928,1.78336 L42.5808,2.18304 L43.77952,2.58208 L45.11104,3.11456 L46.30976,3.78016 L47.50848,4.31296 L48.56992,4.97888 L49.76896,5.7776 L50.83456,6.44384 L51.90048,7.24096 L52.82976,8.17216 L53.89632,9.104 L54.82944,10.03744 L56.55872,11.90048 L57.35936,12.96576 L58.15616,14.02976 L58.81984,15.22752 L59.48672,16.29216 L60.81952,18.68768 L61.34944,19.88512 L61.75136,21.21664 L62.54816,23.74528 L62.94656,25.07808 L63.21632,26.40896 L63.34848,27.74016 L63.61472,29.20352 L63.61472,33.59744 L63.48128,35.19488 L63.34848,36.79104 L63.07968,38.3888 L62.68128,39.8528 L62.28288,41.45024 L61.75136,42.91488 L61.21728,44.24576 L60.55232,45.71072 L59.88544,47.04064 L59.08896,48.37088 L58.28864,49.70336 L57.35968,50.89984 L56.42656,52.09888 L55.49312,53.2976 L54.4304,54.36192 L53.36512,55.4256 L52.1664,56.35872 L50.96768,57.29024 L49.76864,58.22176 L48.43712,59.02112 L47.10624,59.81888 L45.77472,60.48352 L44.31424,61.15008 L42.98272,61.68192 L41.38144,62.21536 L39.92096,62.61344 L38.45696,63.0128 L36.85728,63.27968 L35.25984,63.4128 L33.66272,63.54496 L32.06752,63.68 L30.47008,63.54624 L28.87296,63.41408 L27.27552,63.28096 L25.6784,63.01408 L24.0816,62.61472 L22.61792,62.21664 L21.15424,61.6832 L19.6896,61.15136 L18.35808,60.4848 L17.02656,59.82016 L15.6944,59.0224 L14.36288,58.22304 L13.16416,57.29152 L11.9648,56.36 L10.76608,55.42688 L9.70464,54.3632 L8.64,53.29856 L7.57344,52.09984 L6.64416,50.9008 L5.84384,49.70432 L5.04736,48.37184 L4.24704,47.0416 L3.58368,45.71168 L2.9152,44.2464 L2.38464,42.91552 L1.84864,41.45088 L1.45024,39.85344 L1.05184,38.38944 L0.78688,36.79168 L0.51808,35.19552 L0.38464,33.59808 L0.38464,30.53664 L0.51808,29.2048 L0.65088,27.74144 L0.92064,26.41024 L1.18528,25.07936 L1.45024,23.74656 L2.2512,21.21792 L2.78272,19.8864 L3.31328,18.68896 L3.848,17.49216 L4.51264,16.29344 L5.17952,15.2288 L5.97536,14.03104 L6.77632,12.96704 L7.5728,11.90176 L8.37312,10.96896 L9.3024,10.03872 L10.23616,9.10528 L11.16832,8.17344 L13.29696,6.576 L14.36288,5.77888 L15.42944,4.98016 L16.62816,4.31424 L17.82304,3.78144 L19.02112,3.11584 L20.21984,2.58336 L21.41856,2.18432 L22.75008,1.78464 L24.0816,1.38656 L25.41248,0.98784 L25.41248,21.21888 L25.54624,21.4864 L25.6784,21.61856 L26.0768,21.75168 L26.4752,21.8848 L26.87744,22.01824 L30.47008,22.01824 L30.73504,22.152 L31,22.41632 L31,31.86816 L30.73504,31.60192 L22.88224,31.60192 L22.34752,31.46976 L22.08192,31.46976 L21.95072,31.33504 L21.68352,31.0704 L21.55232,30.936 L21.55232,30.6688 L21.41856,30.27008 L21.41856,8.8384 L19.82176,9.6384 L18.35808,10.5696 L16.89312,11.63328 L15.42976,12.69856 L14.09824,13.89664 L12.89952,15.22784 L11.83392,16.69184 L10.7664,18.1568 L9.83808,19.6208 L9.03776,21.21696 L8.64,22.01696 L8.37376,22.9488 L7.70688,24.67936 L7.30848,26.40992 L6.91008,28.27392 L6.77664,29.20448 L6.77664,30.13664 L6.64416,32 L6.64416,33.19808 L6.77696,34.39552 L6.9104,35.45984 L7.0432,36.65888 L7.3088,37.85632 L7.57376,38.92064 L7.97216,39.98592 L8.10976,40.5184 L8.3744,41.05088 L8.7728,42.11616 L9.1712,43.18144 L10.23776,45.17664 L11.56832,46.90752 L12.23264,47.84032 L12.9008,48.7712 L13.69728,49.5696 L14.49664,50.36736 L16.09408,51.83296 L17.02784,52.49728 L17.95712,53.1632 L19.82304,54.22848 L20.88448,54.76128 L21.81792,55.2928 L22.8832,55.69216 L23.94976,56.09152 L25.14464,56.35872 L26.21056,56.75776 L27.27648,56.89024 L28.47584,57.1568 L28.47584,42.2496 L22.88224,42.2496 L22.34752,42.11648 L22.21536,41.98304 L21.95104,41.98304 L21.68384,41.71712 L21.55264,41.584 L21.55264,41.31808 L21.41888,40.91776 L21.41888,31.86688 L21.55264,32 L21.68384,32.13312 L22.08224,32.39936 L22.48064,32.53248 L22.88256,32.66624 L30.47008,32.66624 L30.73504,32.79872 L31,33.06528 L31,42.11648 L32.99936,42.11648 L32.99936,33.3312 L33.13312,33.06528 L33.26528,32.79872 L33.53152,32.66624 L41.1168,32.66624 L41.51872,32.53248 L41.91712,32.39936 L42.31552,32.13312 L42.58112,31.86688 Z" id="形状"></path>
                </g>
            </g>
        </g>
    </g>
</svg>