<?xml version="1.0" encoding="UTF-8"?>
<svg width="36px" height="36px" viewBox="0 0 36 36" version="1.1" xmlns="http://www.w3.org/2000/svg" xmlns:xlink="http://www.w3.org/1999/xlink">
    <!-- Generator: Sketch 61 (89581) - https://sketch.com -->
    <title>路径</title>
    <desc>Created with Sketch.</desc>
    <g id="高保真" stroke="none" stroke-width="1" fill="none" fill-rule="evenodd">
        <g id="首页2" transform="translate(-645.000000, -507.000000)" fill="#0066B3" fill-rule="nonzero">
            <g id="custom" transform="translate(0.000000, 339.000000)">
                <g id="plus" transform="translate(640.000000, 163.000000)">
                    <path d="M38.3333333,24.9166667 L24.9166667,24.9166667 L24.9166667,38.3333334 C24.9166667,39.3875 24.0541667,40.25 23,40.25 C21.9458333,40.25 21.0833333,39.3875 21.0833333,38.3333334 L21.0833333,24.9166667 L7.66666668,24.9166667 C6.6125,24.9166667 5.75,24.0541667 5.75,23 C5.75,21.9458333 6.6125,21.0833333 7.66666668,21.0833333 L21.0833334,21.0833333 L21.0833333,7.66666668 C21.0833333,6.6125 21.9458333,5.75 23,5.75 C24.0541667,5.75 24.9166667,6.6125 24.9166667,7.66666668 L24.9166667,21.0833334 L38.3333334,21.0833334 C39.3875,21.0833334 40.25,21.9458334 40.25,23 C40.25,24.0541667 39.3875,24.9166667 38.3333333,24.9166667 Z" id="路径"></path>
                </g>
            </g>
        </g>
    </g>
</svg>