<?xml version="1.0" encoding="UTF-8"?>
<svg width="41px" height="26px" viewBox="0 0 41 26" version="1.1" xmlns="http://www.w3.org/2000/svg" xmlns:xlink="http://www.w3.org/1999/xlink">
    <g id="需求文档" stroke="none" stroke-width="1" fill="none" fill-rule="evenodd">
        <g id="A2" transform="translate(-1754.000000, -2448.000000)">
            <g id="营销活动" transform="translate(1744.000000, 2434.000000)">
                <g id="积分-活动" transform="translate(27.000000, 27.000000) rotate(45.000000) translate(-27.000000, -27.000000) translate(8.000000, 8.000000)">
                    <path d="M16.1688475,37.4870898 C15.1348006,37.4870898 14.1645544,37.0862575 13.4366719,36.358375 L1.59756683,24.5193579 C0.869728285,23.7915193 0.468896063,22.8212292 0.468896063,21.7871823 C0.468896063,20.7531794 0.869728285,19.7828893 1.59752288,19.0550507 L18.2195731,2.43304442 C19.3754614,1.27715613 21.4610554,0.438204902 23.1787068,0.438204902 C23.2999326,0.438204902 23.4201911,0.442426023 23.5362284,0.450736395 L32.8992403,1.12255688 C33.889449,1.19361271 34.8411397,1.63911864 35.5790034,2.3769824 C36.3168671,3.11484612 36.7623731,4.0665369 36.8333849,5.05674551 L37.5052054,14.4197574 C37.6324991,16.1933829 36.7802689,18.4790852 35.5228534,19.7364567 L18.9009791,36.358419 C18.1731406,37.0862575 17.2028505,37.4870898 16.1688475,37.4870898 Z M23.1787508,3.18022982 C22.1876188,3.18022982 20.8045366,3.72598781 20.1585705,4.37195383 L3.53652025,20.9940041 C3.32660656,21.2038738 3.21100893,21.4856348 3.21100893,21.7871823 C3.21100893,22.0887738 3.32660656,22.3704908 3.53652025,22.5803606 L15.3756253,34.4194657 C15.585539,34.6294233 15.867256,34.7450209 16.1688475,34.7450209 C16.4703951,34.7450209 16.7521121,34.6294233 16.9620258,34.4195096 L33.5840321,17.7974594 C34.2748037,17.1067317 34.8401724,15.5903318 34.7703038,14.6159964 L34.0984833,5.25298452 C34.048709,4.55939877 33.3966751,3.90732088 32.7031333,3.85759061 L23.3401215,3.18577012 C23.289028,3.18207657 23.2347688,3.18022982 23.1787508,3.18022982 Z" id="形状" fill="#0066B3" fill-rule="nonzero"></path>
                    <circle id="椭圆形" fill="#EF3535" cx="28" cy="10" r="3"></circle>
                </g>
            </g>
        </g>
    </g>
</svg>