<?xml version="1.0" standalone="no"?><!DOCTYPE svg PUBLIC "-//W3C//DTD SVG 1.1//EN" "http://www.w3.org/Graphics/SVG/1.1/DTD/svg11.dtd"><svg t="1607597821208" class="icon" viewBox="0 0 1024 1024" version="1.1" xmlns="http://www.w3.org/2000/svg" p-id="4285" xmlns:xlink="http://www.w3.org/1999/xlink" width="128" height="128"><defs><style type="text/css"></style></defs><path d="M512 512m-461.312 0a461.312 461.312 0 1 0 922.624 0 461.312 461.312 0 1 0-922.624 0Z" fill="#657EFD" p-id="4286"></path><path d="M512 959.488l1.024-7.68-10.24-22.528-9.216 9.216-20.992-42.496c-1.024 7.168-1.024 14.336 0 21.504l9.728 54.272c9.216 0.512 18.432 1.024 28.16 1.024l1.536-13.312zM574.464 896.512l-20.992 42.496-9.728-9.728-9.728 22.016v1.536l0.512 5.632 1.536 13.824c9.728-0.512 18.944-1.536 28.672-2.56l9.216-52.224c1.536-6.656 1.536-13.824 0.512-20.992z" fill="#F1F1F1" p-id="4287"></path><path d="M525.312 956.928c-4.608 0-9.216 1.024-13.312 2.56l-1.536 13.824h1.536c8.192 0 16.384 0 24.576-0.512l-1.536-13.824c-3.072-1.536-6.656-2.048-9.728-2.048zM534.528 952.832l-0.512-1.536z" fill="#FF3838" p-id="4288"></path><path d="M534.016 951.296c-3.072-1.536-6.144-2.048-9.728-2.048-4.096 0-8.192 1.024-11.264 3.072v-0.512l-1.024 7.68c4.096-1.536 8.192-2.56 13.312-2.56 3.584 0 6.656 0.512 10.24 1.536l-0.512-5.632-1.024-1.536z" fill="#CBCBCB" p-id="4289"></path><path d="M431.616 877.056l-104.96 14.848s24.576 25.088 44.544 59.392c16.896 5.632 34.304 9.728 52.224 13.312l8.192-87.552zM623.104 959.488c19.968-5.12 39.936-11.264 58.88-18.944 18.432-28.672 37.888-49.152 37.888-49.152l-104.96-14.848 8.192 82.944z" fill="#272740" p-id="4290"></path><path d="M493.568 845.824v11.264l30.208 52.224 30.208-52.224v-11.264c-9.728 1.024-19.968 2.048-30.208 2.048-10.24 0-20.48-1.024-30.208-2.048zM523.776 908.8z" fill="#FFBD9A" p-id="4291"></path><path d="M681.984 941.056c17.92-7.168 35.328-15.36 52.224-24.576-7.68-17.92-13.312-23.552-14.336-24.064s-19.456 19.456-37.888 48.64zM327.168 891.904s-7.68 6.656-18.432 34.304c19.968 9.728 40.96 18.432 62.976 25.6-19.968-34.816-44.544-59.904-44.544-59.904z" fill="#272740" p-id="4292"></path><path d="M502.784 929.792l10.24 22.528v0.512c3.584-2.048 7.168-3.072 11.264-3.072 3.584 0 6.656 0.512 9.728 2.048l9.728-22.016-20.48-20.48-20.48 20.48z" fill="#FF3838" p-id="4293"></path><path d="M472.576 896.512l20.992 42.496 9.216-9.216 20.992-20.992-30.208-52.224v-0.512l-4.096 4.608c-9.216 10.752-14.848 23.04-16.896 35.84zM523.776 908.8l20.48 20.48 9.728 9.728 20.992-42.496c-2.048-12.288-7.168-24.064-15.36-33.792l-5.632-6.144v0.512l-30.208 51.712z" fill="#FFFFFF" p-id="4294"></path><path d="M290.304 537.6h-6.656c-2.56 0-4.608 0-7.168 0.512-2.048 0.512-4.608 1.024-6.656 1.536-12.288 3.584-22.528 11.776-28.672 23.04-7.68 14.336-7.68 31.744 0.512 46.08l11.776 21.504c8.192 14.848 23.552 24.576 40.448 25.088-2.56-13.312-3.584-27.136-3.584-41.472V537.6zM777.216 536.064c-2.048-0.512-4.096-1.024-6.656-1.536h-0.512c-2.048-0.512-4.608-0.512-6.656-0.512h-6.656v80.896c0 12.8-1.024 25.088-3.072 37.376 16.896-1.024 31.744-10.752 39.936-25.088l11.776-21.504c7.68-14.336 8.192-31.744 0.512-46.08-6.144-11.776-16.384-19.968-28.672-23.552z" fill="#FFBD9A" p-id="4295"></path><path d="M756.736 533.504h-7.168c-10.752-7.168-18.944-18.944-20.992-32.768l-17.408-98.816c-4.096-24.064-25.088-41.472-49.152-41.472h-276.48c-24.064 0-45.056 17.408-49.152 41.472l-17.408 98.816c-3.072 16.384-13.312 29.696-27.648 36.352h-1.024V614.4c0 14.336 1.536 27.648 3.584 41.472 17.92 99.328 98.304 176.64 199.168 189.952 9.728 1.024 19.968 2.048 30.208 2.048 10.24 0 19.968-0.512 30.208-2.048 102.4-13.312 183.808-92.16 200.192-193.536 2.048-12.288 3.072-24.576 3.072-37.376v-81.408zM486.4 651.776c0-1.024 2.048-2.048 4.608-3.584 20.48-11.776 45.568-11.776 65.536 0 2.56 1.536 4.096 2.56 4.608 3.584 1.536 8.192-3.072 16.896-12.8 23.04-15.872 7.168-33.792 7.168-49.664 0-9.728-5.632-13.824-14.336-12.288-23.04z m-64.512-61.44c-12.8 0-23.552-10.24-23.552-23.552 0-12.8 10.24-23.552 23.552-23.552 12.8 0 23.552 10.24 23.552 23.552 0 12.8-10.752 23.552-23.552 23.552zM460.8 497.664H360.448v-5.12c0-15.872 12.8-28.16 28.16-28.16h58.368c7.68 0 13.824 6.144 13.824 13.824v19.456z m2.048 216.576c39.424 12.288 81.92 12.288 121.344 0-34.816 26.624-86.528 26.624-121.344 0z m162.816-123.904c-12.8 0-23.552-10.24-23.552-23.552 0-12.8 10.24-23.552 23.552-23.552 12.8 0 23.552 10.24 23.552 23.552 0 12.8-10.24 23.552-23.552 23.552z m61.952-92.672h-100.352v-19.968c0-7.68 6.144-13.824 13.824-13.824h58.368c15.872 0 28.16 12.8 28.16 28.16v5.632z" fill="#FFDAB6" p-id="4296"></path><path d="M498.688 674.816c15.872 7.168 33.792 7.168 49.664 0 9.728-6.144 14.336-14.336 12.8-23.04 0-1.024-2.048-2.048-4.608-3.584-20.48-11.776-45.568-11.776-65.536 0-2.56 1.536-4.096 2.56-4.608 3.584-1.536 8.704 2.56 17.408 12.288 23.04z" fill="#FFBD9A" p-id="4297"></path><path d="M421.888 543.744c-12.8 0-23.552 10.24-23.552 23.552 0 12.8 10.24 23.552 23.552 23.552 12.8 0 23.552-10.24 23.552-23.552 0-13.312-10.752-23.552-23.552-23.552z m10.24 21.504c-4.608 0-8.704-4.096-8.704-8.704 0-4.608 4.096-8.704 8.704-8.704 4.608 0 8.704 4.096 8.704 8.704 0 4.608-4.096 8.704-8.704 8.704z" p-id="4298"></path><path d="M432.128 556.544m-8.704 0a8.704 8.704 0 1 0 17.408 0 8.704 8.704 0 1 0-17.408 0Z" fill="#FFFFFF" p-id="4299"></path><path d="M625.664 543.744c-12.8 0-23.552 10.24-23.552 23.552 0 12.8 10.24 23.552 23.552 23.552 12.8 0 23.552-10.24 23.552-23.552 0-13.312-10.24-23.552-23.552-23.552z m10.24 21.504c-4.608 0-8.704-4.096-8.704-8.704 0-4.608 4.096-8.704 8.704-8.704 4.608 0 8.704 4.096 8.704 8.704 0 4.608-3.584 8.704-8.704 8.704z" p-id="4300"></path><path d="M635.904 556.544m-8.704 0a8.704 8.704 0 1 0 17.408 0 8.704 8.704 0 1 0-17.408 0Z" fill="#FFFFFF" p-id="4301"></path><path d="M446.976 464.384H388.608c-15.872 0-28.16 12.8-28.16 28.16v5.12H460.8v-19.968c0-7.168-6.144-13.312-13.824-13.312zM658.944 464.384h-58.368c-7.68 0-13.824 6.144-13.824 13.824v19.968h100.352v-5.12c0.512-15.872-12.288-28.672-28.16-28.672z" fill="#5A3C29" p-id="4302"></path><path d="M462.848 714.24c34.816 27.136 86.016 27.136 121.344 0-39.424 12.288-81.92 12.288-121.344 0z" fill="#FFBD9A" p-id="4303"></path><path d="M276.48 538.112c2.56-0.512 4.608-0.512 7.168-0.512h7.68c14.336-6.656 24.576-19.968 27.648-36.352l17.408-98.816c4.096-24.064 25.088-41.472 49.152-41.472h-41.984c-31.744 0-58.368-19.968-68.608-47.616-3.072 12.8-4.608 26.624-4.608 40.448v185.856c1.536-0.512 4.096-1.024 6.144-1.536z" fill="#5A3C29" p-id="4304"></path><path d="M343.552 360.96h318.464c24.064 0 45.056 17.408 49.152 41.472l17.408 98.816c2.56 13.824 10.24 25.088 20.992 32.768h13.824c2.56 0 4.608 0 6.656 0.512h0.512c2.048 0.512 4.608 1.024 6.656 1.536V353.792c0-95.744-77.824-173.568-173.568-173.568h-194.56c-41.472 0-80.384-18.944-105.984-51.2-21.504 33.792-33.28 72.704-33.28 112.64v46.592c0 9.216 1.536 17.92 4.608 25.6 10.752 27.648 37.376 47.104 69.12 47.104z" fill="#785036" p-id="4305"></path><path d="M574.464 896.512c1.024 7.168 1.024 14.336 0 21.504l-9.216 52.224c19.456-2.048 38.912-5.632 57.856-10.24l-7.68-82.432-57.344-15.872c0.512 0.512 0.512 1.024 1.024 1.536 8.192 9.216 13.824 20.992 15.36 33.28zM472.576 896.512c2.048-12.8 7.68-25.6 16.896-35.328l-57.344 15.872-8.192 87.552c18.944 3.584 38.912 6.144 58.88 7.68l-9.728-54.272c-1.536-7.168-1.536-14.336-0.512-21.504z" fill="#CBCBCB" p-id="4306"></path></svg>