<?xml version="1.0" standalone="no"?><!DOCTYPE svg PUBLIC "-//W3C//DTD SVG 1.1//EN" "http://www.w3.org/Graphics/SVG/1.1/DTD/svg11.dtd"><svg t="1607597813147" class="icon" viewBox="0 0 1024 1024" version="1.1" xmlns="http://www.w3.org/2000/svg" p-id="4141" xmlns:xlink="http://www.w3.org/1999/xlink" width="128" height="128"><defs><style type="text/css"></style></defs><path d="M512 512m-512 0a512 512 0 1 0 1024 0 512 512 0 1 0-1024 0Z" fill="#e9e9e9" p-id="4142"></path><path d="M202.101841 490.65854c7.590603 8.890921 18.35073 27.030349 30.622476 47.689143 29.387175 49.477079 9.29727 57.376508 59.71708 100.758349s152.803556 35.791238 152.803555 35.791238l40.992508 46.502603h53.930667l31.240127-46.502603s98.54781 10.890159 156.915809-35.791238 26.591492-45.559873 69.778286-111.53473c19.602286-29.93981 25.583746-26.022603 30.362413-58.416762 0.94273-6.355302 11.329016-23.015619 10.337524-31.711492-16.936635-148.39873-219.542349-291.124825-219.542349-291.124826L242.021587 270.352254l-52.207746 125.431873s-13.47454 64.707048 12.288 94.874413z" fill="#FFE2C2" p-id="4143"></path><path d="M321.601016 753.956571c-38.180571 72.769016-13.539556 181.963175-13.539556 181.963175s9.524825 38.018032 111.583492 58.319238c14.839873 2.958222 104.480508 10.191238 168.374858 0C696.937651 976.847238 715.174603 952.173714 715.174603 952.173714s18.562032-143.262476-17.001651-207.969524-132.762413-64.512-132.762412-64.512l-55.393524 30.10235-60.058413-27.989334c0.016254 0-90.19327-0.617651-128.357587 72.151365z" fill="#fb4747" p-id="4144"></path><path d="M516.87619 225.345016c-8.045714 0-18.301968 45.706159-56.011174 86.146032s-37.709206 40.439873-68.477968 51.411301-89.559365-6.501587-145.749334 18.789588-60.318476 87.998984-60.318476 87.998984-18.805841-161.580698 19.69981-244.329651 118.718984-127.593651 217.86819-150.170413 222.939429-25.778794 347.656127 96.190984 63.000381 286.589968 63.000381 286.589969l-63.000381-88.210286s-101.002159 23.779556-172.925968-17.814349c-47.88419-27.713016-73.695492-126.602159-81.741207-126.602159z" fill="#5c4948" p-id="4145"></path></svg>