<?xml version="1.0" standalone="no"?><!DOCTYPE svg PUBLIC "-//W3C//DTD SVG 1.1//EN" "http://www.w3.org/Graphics/SVG/1.1/DTD/svg11.dtd"><svg t="1607597797577" class="icon" viewBox="0 0 1037 1024" version="1.1" xmlns="http://www.w3.org/2000/svg" p-id="3994" xmlns:xlink="http://www.w3.org/1999/xlink" width="129.625" height="128"><defs><style type="text/css"></style></defs><path d="M518.973446 0.013493A515.236837 515.236837 0 0 0 0 511.513722a508.905361 508.905361 0 0 0 222.847198 420.368491 280.245661 280.245661 0 0 1 175.153538-186.207672c-16.866637 19.513402 1.816407 162.386791 29.529589 143.184774l45.721561-31.605483L518.973446 825.181273l-3.010046-2.075894-42.60772-29.529589-66.221011-48.524017a10.379469 10.379469 0 0 0-2.958149-1.556921h-0.518974l-1.297433 0.467076q6.64286-2.387278 13.389515-4.411274l3.788506-1.193639q13.078131-3.840404 26.467646-6.64286l4.047993-0.77846q7.161834-1.401228 14.427461-2.54297l9.912393-1.349331L478.493517 726.576318q7.109936-0.830358 14.219873-1.349331h52.57201c4.774556 0.363281 9.497214 0.830358 14.219872 1.349331l4.411275 0.570871q7.317526 0.934152 14.583153 2.127791l9.497215 1.712612 4.307479 0.830358c4.359377 0.934152 8.718754 1.868304 13.026234 2.958148h0.363281c4.359377 1.089844 8.666857 2.283483 12.922439 3.580917l4.151787 1.193639 8.822549 2.854354 4.411274 1.55692-1.660715-0.57087h-0.259486a9.497214 9.497214 0 0 0-3.632815 1.764509l-65.702038 48.524018-42.711514 29.529589L518.973446 825.181273l45.721561 31.761175 45.617766 31.605483c27.868874 19.305812 46.344329-125.591574 28.803026-143.548056a280.245661 280.245661 0 0 1 176.139588 186.519057A508.905361 508.905361 0 0 0 1037.946892 511.513722 515.288735 515.288735 0 0 0 518.973446 0.013493z m0 725.005905a242.723881 242.723881 0 0 1-243.91752-232.811488h-0.467076a230.891286 230.891286 0 0 1 104.988329-205.876766l3.425224-2.387278 3.52902-2.231586c2.179688-1.401228 4.359377-2.802457 6.64286-4.151788l6.435271-3.684711 2.906251-1.660715a225.390168 225.390168 0 0 1 106.493351-28.699232h19.202018a216.411927 216.411927 0 0 1 85.059747 18.423558 244.747877 244.747877 0 0 1 69.075366 43.230488 227.10278 227.10278 0 0 1 80.856063 186.83044A242.723881 242.723881 0 0 1 518.973446 725.019398z" fill="#F7B970" p-id="3995"></path><path d="M393.900846 250.366284l3.11384-1.920202z m136.178632-35.290195q-5.189734 0-9.912393-0.259486c-3.477122 0-6.902347 0-10.379469 0.311384 3.373327 0 6.694757 0 10.016188 0.415179s6.850449-0.415179 10.379469-0.415179z m-150.242813 44.476025c2.335381-1.608818 4.670761-3.269533 7.006142-4.774556-2.335381 1.505023-4.670761 3.165738-6.954244 4.774556z m-7.369423 5.189734l3.632814-2.750559z m247.654129-28.387847a277.235615 277.235615 0 0 1 73.175256 50.236629 257.151343 257.151343 0 0 0-73.123359-50.132835zM477.351776 381.355182c-49.717656 94.40127-133.998944 178.059789-215.944851 122.789117a258.863955 258.863955 0 1 0 517.208936 0c-68.296906 45.981047-247.861718-20.91463-301.264085-122.789117z" fill="#FCE9EA" p-id="3996"></path><path d="M603.514221 731.921744h0.363281z m28.906821 8.874446h0.259486l1.660715 0.570871-4.463171-1.55692 2.594867 0.934152z m-60.719894-15.465408z m14.479359 2.54297l4.30748 0.830357z m51.482166 14.427461c17.645097 18.215968-0.98605 164.929761-29.062513 145.312565l-45.981047-32.020661-46.136739-32.176354-45.981048 32.176354-46.136739 32.020661c-27.920771 19.461504-46.70761-125.228293-29.737179-145.001181a283.307604 283.307604 0 0 0-176.450971 188.543053 527.847892 527.847892 0 0 0 597.286539 0 283.411399 283.411399 0 0 0-177.800303-188.646847zM403.242368 739.550654l-4.359377 1.505023 1.297433-0.467076h0.518974v-0.311384z" fill="#D5E270" p-id="3997"></path><path d="M518.973446 838.103712h-3.580917l3.425225 2.439175 3.425225-2.439175z m114.174158-98.604955l4.670761 1.453125z m-182.003987-10.898443z m-15.569204 2.958149l4.618864-0.934152z m129.743362-6.227681l5.189734 0.622768z m-164.877864 15.154024l4.359377-1.349331z m67.207061-14.531256l4.878351-0.622768z" fill="#D5E270" p-id="3998"></path><path d="M522.294876 838.311301l48.939196-34.356042 75.303047-56.360516a10.898442 10.898442 0 0 1 4.151788-2.023997l-2.906251-1.037947-10.119983-3.32143-4.670761-1.453125q-7.369423-2.231586-14.84264-4.151788h-0.415179q-7.42132-1.868304-14.894538-3.425225l-4.930248-0.986049q-8.19978-1.608818-16.399561-2.906252-5.553016-0.882255-11.157929-1.55692l-5.189734-0.622768q-8.147883-0.934152-16.295766-1.55692H488.821089q-8.19978 0.622768-16.347664 1.55692l-4.87835 0.622768q-5.708708 0.726563-11.313621 1.608818-8.303575 1.297434-16.503356 2.958148l-4.618863 0.934153q-15.569203 3.217635-30.30805 7.732704l-4.359377 1.349331a346.829954 346.829954 0 0 0-10.379468 3.425225l-2.958149 1.037946v0.311385a11.573108 11.573108 0 0 1 3.425225 1.816407l75.873917 56.360516 48.783504 34.356042h6.902347z" fill="#FEFEFE" p-id="3999"></path><path d="M452.285358 400.92048c57.65795 101.874487 251.857813 168.822062 325.863427 122.581528a265.61061 265.61061 0 0 0-92.63676-217.086592 301.990648 301.990648 0 0 0-79.14345-50.23663 244.955467 244.955467 0 0 0-97.411316-21.433603q-5.656811 0-11.157929 0.415179a270.385165 270.385165 0 0 1-45.773458 166.071503z" fill="#ED7667" p-id="4000"></path><path d="M496.086717 400.816686a270.385165 270.385165 0 0 0 45.773458-166.071503q-5.189734-0.363281-10.794648-0.415179a255.43873 255.43873 0 0 0-122.010657 33.369993l-3.373327 1.920202c-2.54297 1.453126-5.189734 2.854354-7.577012 4.359377s-5.189734 3.165738-7.577013 4.774555l-4.047993 2.594867-3.944198 2.75056a269.399116 269.399116 0 0 0-120.505634 238.727785l0.518973 0.311384c88.640665 55.322569 179.772402-28.33595 233.538051-122.789117z" fill="#F08E83" p-id="4001"></path></svg>