<?xml version="1.0" encoding="UTF-8"?>
<svg width="52px" height="52px" viewBox="0 0 52 52" version="1.1" xmlns="http://www.w3.org/2000/svg" xmlns:xlink="http://www.w3.org/1999/xlink">
    <!-- Generator: Sketch 61 (89581) - https://sketch.com -->
    <title>bank</title>
    <desc>Created with Sketch.</desc>
    <g id="高保真" stroke="none" stroke-width="1" fill="none" fill-rule="evenodd">
        <g id="首页2" transform="translate(-65.000000, -372.000000)" fill-rule="nonzero">
            <g id="custom" transform="translate(0.000000, 339.000000)">
                <g id="网点服务" transform="translate(47.000000, 33.000000)">
                    <g id="bank" transform="translate(18.000000, 0.000000)">
                        <rect id="矩形" fill="#000000" opacity="0" x="0" y="0" width="52" height="52"></rect>
                        <path d="M50.375,19.4991875 C51.272,19.4991875 52,18.7711875 52,17.8741875 L52,14.6241875 C52,14.0229375 51.6685,13.4736875 51.13875,13.1909375 L26.76375,0.1909375 C26.2849884,-0.0625734612 25.7117616,-0.0625734612 25.233,0.1909375 L0.858,13.1909375 C0.329862028,13.4742062 0,14.0248789 0,14.6241875 L0,17.8741875 C0,18.7711875 0.728,19.4991875 1.625,19.4991875 L3.25,19.4991875 L3.25,42.2491875 C1.45925,42.2491875 0,43.7051875 0,45.4991875 L0,50.3741875 C0,51.2711875 0.728,51.9991875 1.625,51.9991875 L50.375,51.9991875 C51.272,51.9991875 52,51.2711875 52,50.3741875 L52,45.4991875 C52,43.7051875 50.54075,42.2491875 48.75,42.2491875 L48.75,19.4991875 L50.375,19.4991875 Z M48.75,48.7491875 L3.25,48.7491875 L3.25,45.4991875 L48.75,45.4991875 L48.75,48.7491875 Z M6.5,42.2491875 L6.5,19.4991875 L9.75,19.4991875 L9.75,42.2491875 L6.5,42.2491875 Z M13,42.2491875 L13,19.4991875 L39,19.4991875 L39,42.2491875 L13,42.2491875 Z M42.25,42.2491875 L42.25,19.4991875 L45.5,19.4991875 L45.5,42.2491875 L42.25,42.2491875 Z M3.25,16.2491875 L3.25,15.5991875 L26,3.4669375 L48.75,15.5991875 L48.75,16.2491875 L3.25,16.2491875 L3.25,16.2491875 Z" id="形状" fill="#0066B3"></path>
                        <path d="M31.9085063,24.3925462 C31.8488829,23.9420063 31.5782389,23.6929641 31.1006665,23.6369297 C30.6190022,23.6369297 30.2606767,23.8338993 30.0215981,24.2255747 L26.5067347,28.7388976 L23.1596355,24.2250087 C22.9205569,23.8344653 22.5581396,23.6363636 22.0805671,23.6363636 C21.5989028,23.6929641 21.3323507,23.9459683 21.2727273,24.3925462 C21.3323508,24.6195141 21.4200324,24.8430861 21.5433712,25.066092 C21.6029946,25.1226924 21.6351446,25.1781609 21.6351446,25.2336294 L24.5327295,29.2409439 L22.3710855,29.2409439 C21.7105507,29.2409439 21.3802834,29.4945141 21.3802834,29.9971264 C21.4399069,30.3916319 21.7701743,30.6152038 22.3710855,30.6706722 L25.5200244,30.6706722 L25.5200244,32.1819053 L22.3710855,32.1819053 C21.7105507,32.1819053 21.3802834,32.4354754 21.3802834,32.9380878 C21.4399069,33.3286312 21.7701743,33.5561651 22.3710855,33.6116336 L25.5200244,33.6116336 L25.5200244,36.9770986 C25.5200244,37.5357454 25.8461999,37.8181818 26.5108265,37.8181818 C27.1678541,37.8181818 27.4981214,37.5351794 27.4981215,36.9770986 L27.4981215,33.6189917 L30.6464757,33.6189917 C31.2438798,33.5635232 31.5741471,33.3359892 31.6378625,32.9454458 C31.6378625,32.4394375 31.3075951,32.1898293 30.6464757,32.1898293 L27.498706,32.1898293 L27.498706,30.6785963 L30.6470603,30.6785963 C31.2444643,30.6219958 31.5747317,30.3989899 31.638447,30.0050505 C31.638447,29.4984761 31.3081796,29.248868 30.6470603,29.248868 L28.4900927,29.248868 L31.5548572,25.2375914 C31.5507654,25.1781609 31.5782389,25.1221264 31.638447,25.066658 C31.8214093,24.7276211 31.9090909,24.5080112 31.9090909,24.3931122 L31.9085063,24.3925462 Z" id="路径备份" fill="#EF3535"></path>
                    </g>
                </g>
            </g>
        </g>
    </g>
</svg>