<svg width="162px" height="106px" viewBox="0 0 162 106" version="1.1" xmlns="http://www.w3.org/2000/svg" xmlns:xlink="http://www.w3.org/1999/xlink">
    <g id="高保真" stroke="none" stroke-width="1" fill="none" fill-rule="evenodd">
        <g id="我的" transform="translate(-501.000000, -279.000000)">
            <g id="账户总览" transform="translate(25.000000, 143.000000)">
                <g id="矩形备份">
                    <use fill="black" fill-opacity="1" filter="url(#filter-4)" xlink:href="#path-3"></use>
                    <use fill="url(#linearGradient-1)" fill-rule="evenodd" xlink:href="#path-3"></use>
                    <use fill="url(#linearGradient-2)" fill-rule="evenodd" xlink:href="#path-3"></use>
                </g>
            </g>
            <g id="银行卡管理" transform="translate(501.000000, 279.000000)" fill-rule="nonzero">
                <path d="M19.8064394,70 L143.370338,70 L159.10725,91.6 C164.935736,99.6640001 161.730069,106 151.530218,106 L10.1894378,106 C0.281011858,106 -2.92465528,99.6639999 2.90383047,91.6 L19.8064394,70 Z" id="路径" fill="#668ABD"></path>
                <path d="M19.8064394,62 L143.370338,62 L159.10725,83.6 C164.935736,91.6640001 161.730069,98 151.530218,98 L10.1894378,98 C0.281011858,98 -2.92465528,91.6639999 2.90383047,83.6 L19.8064394,62 Z" id="路径" fill="#DAE9FF"></path>
                <path d="M33.2647059,0 L134.735294,0 C144.882353,0 153,8.08247428 153,18.185567 L153,65.814433 C153,75.9175257 144.882353,84 134.735294,84 L33.2647059,84 C23.1176471,84 15,75.9175257 15,65.814433 L15,18.185567 C15,8.08247428 23.1176471,0 33.2647059,0 Z" id="路径" fill="#86A2EF"></path>
                <path d="M30.218543,0 L124.781457,0 C134.90287,0 143,8.08247428 143,18.185567 L143,65.814433 C143,75.9175257 134.90287,84 124.781457,84 L30.218543,84 C20.0971303,84 12,75.9175257 12,65.814433 L12,18.185567 C12,8.08247428 20.0971303,0 30.218543,0 Z" id="路径" fill="#0066B3"></path>
                <path d="M93,69.5 C93,71.9852814 95.0147186,74 97.5,74 C99.9852814,74 102,71.9852814 102,69.5 C102,67.0147186 99.9852814,65 97.5,65 C95.0147186,65 93,67.0147186 93,69.5 Z" id="路径" fill="#FFFFFF"></path>
                <path d="M108,69.5 C108,71.9852814 110.014719,74 112.5,74 C114.985281,74 117,71.9852814 117,69.5 C117,67.0147186 114.985281,65 112.5,65 C110.014719,65 108,67.0147186 108,69.5 Z" id="路径" fill="#FFFFFF"></path>
                <path d="M123,69.5 C123,71.9852814 125.014719,74 127.5,74 C129.985281,74 132,71.9852814 132,69.5 C132,67.0147186 129.985281,65 127.5,65 C125.014719,65 123,67.0147186 123,69.5 Z" id="路径" fill="#FFFFFF"></path>
                <path d="M34.9067055,19 C32.3090378,19 30,20.9687501 30,23.5 C30,26.0312501 32.0204082,28 34.9067055,28 L124.093294,28 C126.690962,28 129,26.0312499 129,23.5 C129,20.9687501 126.979592,19 124.093294,19 L34.9067055,19 L34.9067055,19 Z" id="路径" fill="#DAE9FF"></path>
                <path d="M31.9067056,16 C29.309038,16 27,17.96875 27,20.5 C27,23.03125 29.0204082,25 31.9067056,25 L121.093295,25 C123.690962,25 126,22.46875 126,20.5 C126,18.53125 123.690962,16 121.093295,16 L31.9067056,16 Z" id="路径" fill="#FFFFFF"></path>
            </g>
        </g>
    </g>
</svg>