<?xml version="1.0" standalone="no"?><!DOCTYPE svg PUBLIC "-//W3C//DTD SVG 1.1//EN" "http://www.w3.org/Graphics/SVG/1.1/DTD/svg11.dtd"><svg t="1607521784078" class="icon" viewBox="0 0 1024 1024" version="1.1" xmlns="http://www.w3.org/2000/svg" p-id="12088" xmlns:xlink="http://www.w3.org/1999/xlink" width="128" height="128"><defs><style type="text/css"></style></defs><path d="M511.946111 511.973055m-511.946111 0a511.946111 511.946111 0 1 0 1023.892222 0 511.946111 511.946111 0 1 0-1023.892222 0Z" fill="#FFFFFF" p-id="12089"></path><path d="M1003.602989 651.491843l4.661404-17.163667 4.04168-17.217556 3.475845-17.487001 2.748342-17.163667 1.293338-8.783918 0.916114-9.053363 0.996947-8.730028 0.88917-8.756973 0.269445-9.053363 0.727503-9.053363v-9.053362l0.269445-9.053363-0.269445-13.175877-0.323335-12.798652-0.970003-12.798653-0.916114-12.825597-1.266393-12.798653-1.562783-12.475319-1.886117-12.529207-2.505842-12.178929-2.478897-12.205873-2.85612-12.151984-2.775287-11.855594-3.4489-11.909483-3.772235-11.586149-4.041679-11.53226-4.311125-11.586148-4.418904-11.208926-5.011683-11.262814-4.984738-11.262815-5.658352-10.912535-5.604463-10.93948-5.927797-10.64309-6.251131-10.616146-6.843911-10.64309-6.897801-10.265867-7.140301-10.319756-7.517524-10.023366-7.813914-9.969477-7.813915-9.700031-8.433638-9.969477-8.703084-9.376697-8.783918-9.700032-9.430586-9.349753-9.322808-9.053362-9.700032-9.107252-9.673087-8.433639-9.700031-8.433638-9.969477-8.08336-10.023366-7.813914-10.265867-7.544469-10.319756-7.19419-10.292811-6.843912-10.616146-6.574465-10.64309-6.251132-10.912535-6.224187-10.93948-5.604463-10.912536-5.361961-11.316703-5.308073-11.23587-4.688349-11.505316-4.688348-11.586148-4.311126-11.53226-3.772234-11.613093-3.772235-11.909484-3.4489-11.855594-3.125565-12.205873-2.829176-12.07115-2.425008-12.232818-2.263341-12.421429-1.805284-12.502263-1.589727-12.556152-1.562783-12.771708-0.943058-12.798653-0.646669L525.041154 0.026945h-26.21703l-13.175876 0.619724-13.068099 0.646669-12.825597 0.943058-12.502263 1.562783-12.475318 1.589727-12.475319 1.805284-12.529207 2.236396-12.205873 2.425008-12.178929 2.856121-11.801705 3.15251-11.936427 3.421955-11.505316 3.772235-11.505315 3.718345-11.586149 4.365015-11.289759 4.688348-11.181981 4.715293-11.262814 5.281129-10.912535 5.388906-10.939481 5.577518-10.64309 6.197243-10.616145 6.278076-10.643091 6.574465-10.292811 6.843912-10.319756 7.221134-9.969477 7.463636-9.969477 7.840858-10.023365 8.110305-9.996422 8.433638-9.376697 8.433639-9.700032 9.053363-9.322808 9.053362-9.430586 9.376698-8.62225 9.726976-8.837807 9.376697-8.433638 9.969477-8.110305 9.700031-7.49058 9.969477-7.517524 10.023366-7.167246 10.319756-7.19419 10.265867-6.547521 10.64309-6.197242 10.616146-5.981687 10.64309-5.900852 10.93948-5.361962 10.912535-4.984738 11.262815-5.011683 11.262814-4.688349 11.23587-4.04168 11.586149-4.04168 11.53226-3.772234 11.586149-3.4489 11.855594-3.071677 11.855594-2.85612 12.232817-2.505842 12.205874-2.155562 12.125039-1.886118 12.529207-1.562782 12.475319-1.212504 12.798653-1.293338 12.825597-0.59278 12.798653-0.404168 12.798652-0.269445 13.175877 0.269445 13.095042 0.404168 13.121988 0.59278 12.825597 1.293338 12.771708 1.185559 12.825597 1.562783 12.502263 1.886117 12.475319 2.155563 12.205873 2.532786 12.205873 2.85612 12.205873 3.071677 12.178928 3.4489 11.855595 3.772234 11.532259 4.04168 11.855594 4.04168 11.316704 4.688349 11.53226 5.011683 11.262814 4.984738 11.262815 5.335017 10.885591 5.900853 10.966424 5.981686 10.912536 6.224187 10.616145 6.547521 10.643091 7.19419 10.589201 7.167246 10.3467 7.49058 9.969477 7.517524 10.319756 8.110305 9.700031 8.433638 9.969477 8.783918 9.673087 8.703083 9.700032 9.430587 9.430586 9.322808 9.053363 9.700031 9.080307 9.349753 8.649195 9.996422 8.191138 9.996421 8.110304 10.023366 7.813914 9.969477 7.517525 10.292811 7.167245 10.319756 6.870856 10.616146 6.60141 10.616145 6.197243 10.64309 6.224187 10.939481 5.658352 10.912535 5.658351 11.262814 4.957794 11.181981 5.038628 11.316704 4.311125 11.586149 4.391959 11.505315 4.095568 11.559204 3.421956 11.855594 3.421956 11.855594 3.15251 12.205874 2.775287 12.151984 2.55973 12.529207 2.155563 12.475318 1.859173 12.502263 1.886117 12.475319 1.266393 12.852542 0.943058 13.068098 0.59278 13.148931 0.619724h13.068098l18.403116-0.269445 18.106725-0.646669 17.837281-1.562783 17.783391-1.886117 17.460057-2.532786 16.894221-3.071676 17.136723-3.772235 16.624776-4.04168 16.220609-5.011683 16.220608-5.335017 15.951163-5.900853 15.627829-6.251131 15.250605-7.167246 15.358383-7.544469 14.98116-8.083359 14.68477-8.487528 9.996422-6.197242 9.700031-6.278076 9.349753-6.197243 8.756973-6.60141 8.703084-6.251132 8.110304-6.574465 7.867803-6.547522 7.49058-6.574466 6.816967-6.843911 6.924745-6.574466 6.224186-6.870855 5.927798-6.897801 5.658351-7.167245 5.281129-6.870856 4.715293-7.221134 4.661404-7.167246 4.04168-7.19419 3.772234-7.167246 3.4489-7.167245 3.098621-7.544469 2.829176-7.463636 2.155563-7.544469 2.209451-7.463635 1.589728-7.813914 1.185559-7.49058 0.970003-7.813915 0.323335-7.813914 0.323334-7.813914-0.323334-8.110304-0.323335-7.840859-0.943058-8.110304-1.212504-8.110305-1.589728-6.574465-1.562782-6.870856-1.886118-6.278076-1.859172-6.547521-2.505842-6.251132-2.478897-5.927797-2.85612-5.900853-3.071677-5.981686-3.4489-5.604462-3.475845-5.631408-4.041679-5.631407-4.068625-5.335017-4.311125-4.957794-4.391959-5.011683-5.038627-5.011683-4.957794-4.984739-5.388907-4.688348-5.604462-4.365014-5.927797-4.33807-5.900853-4.418903-6.278076-4.04168-6.547521-4.068624-6.816967-3.772235-7.248079-4.04168-7.167246-3.4489-7.490579-3.421955-7.78697-3.475845-8.110304-3.098621-8.433639-3.152511-8.460583-3.071676-8.756973-2.829176-9.053363-2.856121-23.387854-8.083359 7.436691-4.33807 7.221135-4.742238 6.843911-4.715293 6.30502-4.930849 5.927797-5.361962 5.577519-5.281128 5.038627-5.631407 4.63446-5.900853 4.338069-5.981686 3.772235-6.197243 3.772234-6.60141 2.856121-6.574466 2.748342-6.843911 2.209452-6.8978 1.589727-7.167246 1.562783-7.49058 0.59278-8.730028 0.323334-8.164193-0.323334-8.433639-0.59278-8.460583-1.562783-8.08336-2.155562-8.137248-2.505842-7.813915-3.15251-8.137248-3.772235-7.813915-4.311125-7.786969-5.065572-7.813915-5.604463-7.49058-6.278076-7.49058-6.870855-7.517524-7.463636-7.19419-7.840859-7.167246-8.703083-7.49058-8.756973-7.221134-9.053363-6.520577-9.430586-6.305021-9.592254-5.927797-9.996421-5.604462-10.346701-5.011683-10.64309-4.957794-10.885591-4.418904-11.262814-4.311125-11.586149-3.772234-11.855594-3.4489-12.178929-3.152511-12.502263-3.098621-12.825597-2.532786-13.068098-2.155562-15.061994-2.155563-14.954215-1.886117-15.600884-1.616672-15.627829-1.239449-15.951163-1.212504-16.220608-0.943058-16.220608-0.646669-16.867278-0.323334-16.921166-0.29639-17.190611 0.29639h-17.433113l-17.783391 0.646668-18.13367 0.88917-18.43006 0.996948-18.483949 0.916114-18.699505 1.562783v161.53247l14.954215-1.886117 15.008104-1.859173 14.98116-1.239449 15.358384-1.266393 15.008104-0.943058 15.27755-0.59278 15.304494-0.350279h30.878434l15.358383 0.619724 15.600884 0.673614 15.627829 1.212504 15.57394 1.266393 15.627828 1.589727 15.951163 1.886117 15.897274 1.832229 12.852542 2.209451 12.205873 2.478897 11.181981 2.802231 10.64309 2.829176 9.700032 3.421956 9.080307 3.4489 8.37975 3.772235 7.49058 4.041679 3.4489 1.886118 3.125565 2.182507 3.152511 2.478897 2.748342 2.155562 2.883065 2.532786 2.155562 2.478897 2.478897 2.532786 1.886118 2.478897 1.886117 2.829176 1.886117 2.829176 1.562783 2.802231 1.212504 3.152511 0.996948 2.748342 0.889169 3.15251 0.673613 3.15251 0.59278 3.421956v5.604463l-0.59278 2.829176-0.673613 3.15251-2.478897 6.843911-3.475844 7.813914-2.155563 3.125566-2.478897 3.125566-2.802231 2.802231-3.4489 2.209452-3.448901 2.155562-3.772234 1.886118-4.04168 1.589727-4.33807 1.239448-4.742237 0.916115-5.308073 0.943058-5.308073 0.323335h-11.855594l-6.278076-0.323335-6.520577-0.943058-7.221134-0.916115-18.699506-2.209451-18.43006-1.886117-18.43006-1.562783-18.160614-1.212504-17.702558-0.970003-17.864225-0.619725-17.783391-0.323334-17.513946-0.29639-17.190611 0.29639-17.163667 0.323334-17.217556 0.619725-16.813389 0.970003-16.543942 1.158615-16.570888 1.589727-16.274497 1.913062-16.220608 2.209451v164.631092l22.768129-2.505842 22.17535-2.478897 21.87896-1.886117 21.878961-1.562783 20.935901-0.943058 20.882012-0.943059 20.316178-0.269445h19.992843l19.696453 0.619724 19.400063 0.59278 18.699505 1.239448 18.510894 1.886117 18.052836 1.886118 17.810336 2.505841 17.163667 2.748342 16.894222 3.152511 13.391432 2.532786 12.529207 3.098621 11.882539 3.15251 10.912536 3.421956 10.238922 4.04168 9.457531 4.068624 4.311125 2.155563 4.068624 2.209451 4.068625 2.209452 3.772234 2.478897 3.475845 2.532786 3.341122 2.478897 3.15251 2.829176 2.802231 2.478897 2.883065 2.85612 2.425008 2.775287 2.209452 2.802231 2.155562 3.15251 1.886118 3.098622 1.589727 3.15251 1.589727 3.071677 0.88917 3.475844 1.266393 3.15251 0.619724 3.395011 0.59278 3.448901 0.673613 3.772234v2.775287l0.323335 3.15251-0.323335 3.15251v2.748343l-0.673613 3.15251-0.59278 2.802231-0.889169 3.152511-0.996948 2.748342-1.18556 3.15251-1.562782 2.829176-1.589728 3.15251-1.886117 3.152511-4.095569 6.197242-4.930849 6.278076-3.125566 3.718345-3.772235 3.421956-3.772234 3.4489-4.04168 3.15251-4.04168 3.125566-4.391958 3.071677-4.311126 2.829176-4.742237 2.829175-4.688349 2.775287-4.957794 2.559731-5.361962 2.478897-5.308072 2.478897-5.658352 2.209451-5.900853 2.155563-5.900852 1.886117-6.305021 1.859173-6.251131 1.913062-6.493633 1.589727-6.574465 1.481949-7.221135 1.266393-14.334491 2.532786-15.035049 2.155563-15.951163 1.589727-16.813388 1.239449-17.513946 0.646669h-28.103147l-9.700032-0.323335-9.673087-0.619724-9.646142-0.646669-9.430586-0.943058-9.349753-1.212504-9.053363-1.266393-9.376697-1.562783-9.026418-1.886117-9.053363-2.155563-8.730029-2.182507-8.783917-2.532786-8.703084-2.478897-8.756973-3.15251-8.460583-3.152511-8.433639-3.098621-8.433638-3.772234-8.406694-3.718346-8.137249-3.772234-8.137249-4.33807-7.760025-4.418903-7.813914-4.63446-7.813915-4.742237-7.840858-4.957794-7.49058-5.308073-7.517525-5.631407-7.49058-5.631408-7.463635-5.927797-7.221135-6.278076-7.167245-6.224187-6.897801-6.574465-7.113356-6.843912-6.628355-6.870855-6.520577-7.248079-6.574466-7.167246-6.224186-7.167246-5.927798-7.19419-5.658351-7.49058-5.658352-7.463635-5.281128-7.544469-4.984739-7.813914-5.038627-7.49058-4.63446-8.110304-4.365014-7.813915-4.04168-8.083359-4.068624-8.164194-3.772235-8.110304-3.772234-8.487527-3.4489-8.08336-3.071677-8.756973-2.829176-8.433639-2.802231-8.730028-2.478897-8.783918-2.263341-8.703083-2.155562-9.053363-1.859173-9.080308-1.562783-9.080307-1.589727-9.376697-0.943059-9.322808-1.18556-9.430586-0.700557-9.376698-0.59278-9.700031-0.323334-9.673087v-19.373119l0.323334-9.700031 0.59278-9.619198 0.673613-9.430587 1.212504-9.349752 0.943059-9.376698 1.589727-9.053362 1.562783-9.376698 1.859173-8.756973 2.155562-9.053362 2.263341-8.730029 2.478897-9.080307 2.748342-8.406694 2.883065-8.783918 3.071677-8.433638 3.4489-8.433639 3.772234-8.433638 3.772235-8.08336 4.04168-8.164193 4.041679-8.110304 4.33807-8.164194 4.742238-7.813914 4.984738-7.78697 4.984739-7.463635 5.308072-7.894748 5.631408-7.463635 5.631407-7.49058 5.927797-7.19419 6.251131-7.167246 6.574466-7.167246 6.520577-7.167245 6.628355-6.8978 7.113356-6.897801 7.221135-6.574465 7.167246-6.197243 7.19419-6.278076 7.49058-5.927797 7.49058-5.658352 7.463635-5.604462 7.544469-5.308073 7.813914-4.984739 7.813915-5.011683 7.813914-4.688348 8.137249-4.365014 8.083359-4.365015 8.137249-4.068624 8.110304-3.74529 8.37975-3.4489 8.433638-3.4489 8.514472-3.15251 8.703084-3.098622 8.433639-2.532786 9.053363-2.478897 8.730028-2.478897 9.053363-1.886117 9.080307-1.859173 9.053363-1.562782 9.053363-1.562783 9.376697-1.266393 9.700032-0.916114 9.349752-0.619725 9.700032-0.646668 9.700031-0.29639 9.673087-0.323335 9.700032 0.323335 9.673087 0.29639 9.700032 0.646668 9.322808 0.619725 9.430586 0.916114 9.349753 1.293337 9.026418 1.535839 9.080307 1.562782 9.080308 1.886118 9.053362 1.886117 8.703084 2.451952 8.783918 2.478897 8.730028 2.532786 8.433639 3.152511 8.783917 3.098621 8.110304 3.4489 8.433639 3.4489 8.08336 3.74529 8.137248 4.04168 8.110305 4.33807 7.813914 4.418903 8.08336 4.688348 7.544469 5.011683 7.813914 4.984739 7.463635 5.308073 7.49058 5.604462 7.221135 5.658352 7.463635 5.927797 7.19419 6.251132 6.897801 6.224187 7.167245 6.574465 6.8978 6.897801 6.520577 6.8978 6.547521 6.790022 6.547522 7.221135 6.278076 7.19419 5.954741 7.167245 5.604463 7.49058 5.631407 7.544469 5.308073 7.463636 4.957794 7.867803 4.742238 7.760025 4.688348 7.840859 4.63446 8.110304 4.04168 7.813915 4.068624 8.460583 3.74529 8.083359 3.772234 8.460583 3.475845 8.406694 3.071677 8.433639 2.829176 8.783918 2.802231 8.703083 2.478897 8.783918 2.236396 8.730028 2.155563 9.080308 1.886117 9.053362 1.562783 9.053363 1.266393 9.376697 1.239448 9.376698 0.916114 9.349752 0.996948 9.430587 0.565835 9.646142 0.323335 9.700032v9.673087l-1.886118 41.279023 8.110305 4.984738 8.110304 4.661404 8.164193 5.308073 7.813914 5.308073 7.463636 5.658352 7.517524 5.604463 7.544469 5.604462 7.140301 6.305021 7.221135 6.197242 7.113356 6.278076 6.628355 6.547521 6.843911 6.574466 6.547522 7.167246 6.197242 6.870856 6.305021 7.544469 6.278076 7.463635z" fill="#E3131B" p-id="12090"></path></svg>