<svg width="10px" height="13px" viewBox="0 0 10 13" version="1.1" xmlns="http://www.w3.org/2000/svg" xmlns:xlink="http://www.w3.org/1999/xlink">
    <g id="调整" stroke="none" stroke-width="1" fill="none" fill-rule="evenodd">
        <g id="银行卡" transform="translate(-348.000000, -808.000000)" fill="#000000" fill-rule="nonzero">
            <g id="rmb" transform="translate(348.000000, 808.000000)">
                <path d="M5.73829067,12.7142857 L4.20257639,12.7142857 C4.12519544,12.7142857 4.05823116,12.6875 4.00168353,12.6339286 C3.94513591,12.5803572 3.91686209,12.5119048 3.91686209,12.4285714 L3.91686209,9.48214286 L1.34543353,9.48214286 C1.26805258,9.48214286 1.2010883,9.45535715 1.14454067,9.40178572 C1.08799305,9.34821429 1.05971923,9.27976191 1.05971923,9.19642858 L1.05971923,8.27678572 C1.05971923,8.19940477 1.08799305,8.13244048 1.14454067,8.07589286 C1.2010883,8.01934523 1.26805258,7.99107142 1.34543353,7.99107142 L3.91686209,7.99107142 L3.91686209,7.23214286 L1.34543353,7.23214286 C1.26805258,7.23214286 1.2010883,7.20535715 1.14454067,7.15178572 C1.08799305,7.09821429 1.05971923,7.02976191 1.05971923,6.94642858 L1.05971923,6.01785714 C1.05971923,5.94047619 1.08799305,5.87351191 1.14454067,5.81696428 C1.2010883,5.76041666 1.26805258,5.73214285 1.34543353,5.73214286 L3.25614781,5.73214286 L0.390076391,0.571428578 C0.342457339,0.476190484 0.342457339,0.380952385 0.390076391,0.285714281 C0.449600203,0.190476187 0.532933536,0.142857141 0.640076391,0.142857141 L2.37221923,0.142857141 C2.48531447,0.142857141 2.571624,0.196428568 2.63114781,0.303571422 L4.55079067,4.09821428 C4.66388591,4.32440476 4.83055258,4.69642857 5.05079067,5.21428572 C5.11031448,5.07142857 5.20108829,4.86904762 5.32311209,4.60714286 C5.4451359,4.3452381 5.52698114,4.16369048 5.56864781,4.0625 L7.27400495,0.3125 C7.32162401,0.19940476 7.40793353,0.142857141 7.53293353,0.142857141 L9.23829067,0.142857141 C9.33948115,0.142857141 9.41983829,0.190476187 9.47936209,0.285714281 C9.53293352,0.369047615 9.53590971,0.461309521 9.48829067,0.5625 L6.69364781,5.73214286 L8.61329067,5.73214286 C8.69067162,5.73214286 8.75763591,5.76041667 8.81418353,5.81696428 C8.87073116,5.8735119 8.89900496,5.94047618 8.89900495,6.01785714 L8.89900495,6.94642858 C8.89900495,7.02976191 8.87073115,7.09821429 8.81418353,7.15178572 C8.75763592,7.20535715 8.69067163,7.23214286 8.61329067,7.23214286 L6.02400495,7.23214286 L6.02400495,7.99107142 L8.61329067,7.99107142 C8.69067162,7.99107142 8.75763591,8.01934523 8.81418353,8.07589286 C8.87073116,8.13244048 8.89900496,8.19940477 8.89900495,8.27678572 L8.89900495,9.19642858 C8.89900495,9.27976191 8.87073115,9.34821429 8.81418353,9.40178572 C8.75763592,9.45535715 8.69067163,9.48214286 8.61329067,9.48214286 L6.02400495,9.48214286 L6.02400495,12.4285714 C6.02400495,12.5059524 5.99573115,12.5729167 5.93918353,12.6294643 C5.88263592,12.6860119 5.81567163,12.7142857 5.73829067,12.7142857 Z" id="路径"></path>
            </g>
        </g>
    </g>
</svg>