<svg width="214px" height="258px" viewBox="0 0 214 258" version="1.1" xmlns="http://www.w3.org/2000/svg" xmlns:xlink="http://www.w3.org/1999/xlink">
    <g id="高保真" stroke="none" stroke-width="1" fill="none" fill-rule="evenodd" opacity="0.25">
        <g id="首页2" transform="translate(-536.000000, -170.000000)" fill="#3C3D3D" fill-rule="nonzero">
            <g id="中国建设银行" transform="translate(529.000000, 169.000000)">
                <path d="M120.8116,10.3688 C120.8116,10.3688 142.6672,-6.4974 180.245,5.7733 C180.245,5.7733 192.8927,10.3688 207.4709,23.4091 L252.7096,70.9553 L228.5634,95.1132 L159.5321,24.9431 C159.5321,24.9444 148.031,10.7536 120.8116,10.3688 Z M220.519,103.5489 L192.1387,131.157 C192.1387,131.157 187.5276,137.6739 183.6926,131.547 L131.5509,80.5363 C131.5509,80.5363 126.9398,74.4068 123.4857,79.7784 L70.9566,133.4645 C70.9566,133.4645 67.509,138.8322 71.7184,141.1293 L123.1074,192.5092 C123.1074,192.5092 127.3168,199.4096 131.1648,194.0471 L184.4557,140.3662 C184.4557,140.3662 185.9962,135.7564 194.4319,136.9147 L248.8772,136.9147 C248.8772,136.9147 251.186,192.1322 209.0036,226.6329 C209.0036,226.6329 154.1826,281.4734 79.0166,247.7215 C79.0166,247.7215 6.5364,222.4144 7.2969,128.4738 C7.2969,128.4738 9.2209,65.5889 66.3676,32.2296 C66.3676,32.2296 108.1587,1.1648 141.5115,24.1722 L220.519,103.5489 L220.519,103.5489 Z" id="形状"></path>
            </g>
        </g>
    </g>
</svg>