<?xml version="1.0" encoding="UTF-8"?>
<svg width="46px" height="37px" viewBox="0 0 46 37" version="1.1" xmlns="http://www.w3.org/2000/svg" xmlns:xlink="http://www.w3.org/1999/xlink">
    <!-- Generator: Sketch 61 (89581) - https://sketch.com -->
    <title>赎回</title>
    <desc>Created with Sketch.</desc>
    <g id="高保真" stroke="none" stroke-width="1" fill="none" fill-rule="evenodd">
        <g id="黄金" transform="translate(-254.000000, -390.000000)" fill-rule="nonzero">
            <g id="icon栏" transform="translate(57.000000, 385.000000)">
                <g id="赎回" transform="translate(196.000000, 0.000000)">
                    <g>
                        <rect id="矩形" fill="#000000" opacity="0" x="0" y="0" width="48" height="48"></rect>
                        <path d="M34.5047565,31.3432933 C32.1534862,34.6211509 28.3136762,36.7636183 23.979493,36.7636183 C16.8656725,36.7636183 11.0747054,30.9968721 11.0337875,23.8925528 L12.5555701,23.8925528 L15.2573531,23.8925528 L8.53285256,17.1940384 L1.82034445,23.8925528 L5.37022716,23.8925528 L5.46952392,23.8925528 L6.05355188,23.8925528 C6.09499748,33.7575444 14.1037839,41.7436018 23.9794451,41.7436018 C29.6983141,41.7436018 34.7867688,39.0635629 38.0702293,34.8942777 L36.6038034,33.4333322 L34.5047565,31.3432933 Z M43.3590523,23.912987 L43.3572294,23.9140903 L41.9053383,23.9140903 L41.9053383,23.912987 C41.9053383,23.8797456 41.9077847,23.8485187 41.9077847,23.8160447 C41.9077847,13.9148857 33.8809139,5.88848761 23.9794931,5.88848761 C18.2149091,5.88848761 13.0877911,8.61342413 9.80922356,12.8413256 L11.3362828,14.3638613 L13.3777184,16.3975864 C15.7223689,13.057515 19.5988275,10.8684232 23.9794931,10.8684232 C31.1196008,10.8684232 36.9281248,16.6761336 36.9281248,23.8159488 C36.9281248,23.8484228 36.9250548,23.8796496 36.9250548,23.9128911 L36.9250548,23.9139943 L35.3473877,23.9139943 L35.3462844,23.9128911 L32.690744,23.9128911 L39.4152445,30.610638 L46.1278006,23.9128911 L43.3590523,23.9128911 L43.3590523,23.912987 Z" id="形状" fill="#2962FF"></path>
                        <polygon id="路径" fill="#EF3535" points="30.4100313 21.8031348 26.384953 21.8031348 30.0037617 18.184326 27.6263323 15.8068965 23.9172414 19.5159874 20.2081505 15.8068965 17.830721 18.184326 21.4495298 21.8031348 17.477116 21.8031348 17.477116 25.0382445 22.2996865 25.0382445 22.2996865 26.6482759 17.4545455 26.6482759 17.4545455 29.8833856 22.2996865 29.8833856 22.2996865 33.1184953 25.5347962 33.1184953 25.5347962 29.8833856 30.3799373 29.8833856 30.3799373 26.6482759 25.5347962 26.6482759 25.5347962 25.0382445 30.4100313 25.0382445"></polygon>
                    </g>
                </g>
            </g>
        </g>
    </g>
</svg>