<?xml version="1.0" encoding="UTF-8"?>
<svg width="42px" height="46px" viewBox="0 0 42 46" version="1.1" xmlns="http://www.w3.org/2000/svg" xmlns:xlink="http://www.w3.org/1999/xlink">
    <!-- Generator: Sketch 61 (89581) - https://sketch.com -->
    <title>成交查询</title>
    <desc>Created with Sketch.</desc>
    <g id="高保真" stroke="none" stroke-width="1" fill="none" fill-rule="evenodd">
        <g id="黄金" transform="translate(-637.000000, -388.000000)" fill-rule="nonzero">
            <g id="icon栏" transform="translate(57.000000, 385.000000)">
                <g id="成交查询" transform="translate(565.000000, 3.000000)">
                    <g transform="translate(15.000000, 0.000000)">
                        <path d="M37.386,3.122 L31.926,3.122 C31.926,1.484 30.834,0.392 29.196,0.392 L12.81,0.392 C11.172,0.392 10.08,1.484 10.08,3.122 L4.62,3.122 C2.436,3.122 0.522,5.036 0.522,7.22 L0.522,41.624 C0.522,43.808 2.436,45.722 4.62,45.722 L37.386,45.722 C39.57,45.722 41.484,43.808 41.484,41.624 L41.484,7.22 C41.478,5.036 39.57,3.122 37.386,3.122 Z M12.81,4.49 L12.81,3.122 L29.196,3.122 L29.196,5.858 L12.81,5.858 L12.81,4.49 Z M38.748,41.624 C38.748,42.446 38.202,42.992 37.38,42.992 L4.614,42.992 C3.792,42.992 3.246,42.446 3.246,41.624 L3.246,7.22 C3.246,6.398 3.792,5.852 4.614,5.852 L10.074,5.852 C10.074,7.49 11.166,8.582 12.804,8.582 L29.19,8.582 C30.828,8.582 31.92,7.49 31.92,5.852 L37.38,5.852 C38.202,5.852 38.748,6.398 38.748,7.22 L38.748,41.624 Z" id="形状" fill="#2962FF"></path>
                        <path d="M30.684,17.678 L18.132,30.23 L12.336,24.434 C11.76,23.858 10.986,23.858 10.404,24.434 C9.828,25.016 9.828,25.784 10.404,26.366 L17.136,33.098 L17.166,33.128 C17.742,33.704 18.516,33.704 19.098,33.128 L32.616,19.61 C33.192,19.028 33.192,18.26 32.616,17.678 C32.034,17.102 31.26,17.102 30.684,17.678 Z" id="路径" fill="#EF3535"></path>
                    </g>
                </g>
            </g>
        </g>
    </g>
</svg>