<svg xmlns="http://www.w3.org/2000/svg" width="53.51" height="53.51" viewBox="0 0 53.51 53.51">
  <g id="组_4" data-name="组 4" transform="translate(-212 -211.996)">
    <path id="路径_18" data-name="路径 18" d="M393.2,367.872a1.6,1.6,0,1,0,0-3.2h-5l5.683-5.6a1.584,1.584,0,0,0,0-2.264,1.647,1.647,0,0,0-2.3,0l-6.475,6.388-6.477-6.388a1.637,1.637,0,0,0-2.291,0,1.587,1.587,0,0,0,0,2.264l5.68,5.6h-5.037a1.6,1.6,0,1,0,0,3.2h6.487v3.186h-6.487a1.6,1.6,0,1,0,0,3.2h6.487v4.806a1.621,1.621,0,0,0,3.242,0v-4.806H393.2a1.6,1.6,0,1,0,0-3.2h-6.487v-3.186Z" transform="translate(-148.792 -131.469)" fill="#ef3535"/>
    <path id="路径_19" data-name="路径 19" d="M264.746,260.881l-9.468-9.472a24.3,24.3,0,1,0-3.857,3.859l9.472,9.473a2.724,2.724,0,0,0,3.822-.031A2.741,2.741,0,0,0,264.746,260.881ZM236.3,256.768a20.487,20.487,0,1,1,20.477-20.489A20.506,20.506,0,0,1,236.3,256.768Z" transform="translate(0 0)" fill="#0066b3"/>
  </g>
</svg>
