<?xml version="1.0" encoding="UTF-8"?>
<svg width="64px" height="64px" viewBox="0 0 64 64" version="1.1" xmlns="http://www.w3.org/2000/svg" xmlns:xlink="http://www.w3.org/1999/xlink">
    <!-- Generator: Sketch 61 (89581) - https://sketch.com -->
    <title>形状</title>
    <desc>Created with Sketch.</desc>
    <g id="调整" stroke="none" stroke-width="1" fill="none" fill-rule="evenodd">
        <g id="转账" transform="translate(-51.000000, -1288.000000)" fill="#B81C22" fill-rule="nonzero">
            <g id="编组-3" transform="translate(-1.000000, 946.000000)">
                <g id="中国银行" transform="translate(52.000000, 342.000000)">
                    <path d="M63.648,30.62368 C63.24064,19.46272 56.2864,11.86592 56.2864,11.86592 C45.53536,-0.63968 31.74464,0.52896 31.74464,0.52896 C17.0176,0.06208 7.96032,11.16512 7.96032,11.16512 C1.76544,18.52832 1.0656,25.3056 1.0656,25.3056 C-1.68128,36.7008 4.04576,46.51744 4.04576,46.51744 C8.30976,54.23072 12.81088,57.79552 20.1168,61.18592 C27.4208,64.5744 38.5216,64.10752 45.41824,60.6592 C52.31232,57.21216 56.51872,53.41344 60.3776,46.22592 C64.23456,39.0384 63.648,30.62368 63.648,30.62368 Z M28.76256,56.51104 C28.76256,56.51104 17.19264,55.86816 10.82304,44.76448 C10.82304,44.76448 5.33024,36.9344 7.61024,27.17632 C9.88832,17.41728 15.20448,13.50208 16.25792,12.5088 C17.30976,11.5152 24.11744,7.46656 28.76224,7.5408 L28.76224,19.17056 L23.85632,19.17056 C23.85632,19.17056 17.19264,19.57952 16.96,26.94208 L16.96,37.69504 C16.96,37.69504 17.13504,44.29824 24.03136,45.05664 L28.76256,45.05664 L28.76256,56.51104 Z M24.7888,38.21984 C24.7888,38.21984 23.62176,38.512 23.44704,37.16896 L23.44704,26.88384 C23.44704,26.88384 23.61952,25.77312 24.49632,25.77312 L38.93088,25.77312 C38.93088,25.77312 40.15776,25.53984 40.2752,26.88384 L40.2752,36.87616 C40.2752,36.87616 40.56704,38.4544 39.3984,38.21984 L24.7888,38.21984 Z M52.89696,45.75808 C48.22336,52.888 39.34112,56.16 35.192,56.51104 L35.192,45.05632 L40.6848,45.05632 C40.6848,45.05632 46.52928,43.88864 46.87776,37.8112 L46.87776,25.59808 C46.87776,25.59808 45.94336,19.46272 39.45632,19.17024 L35.19232,19.17024 L35.19232,7.54272 C35.19232,7.54272 42.49792,8.12576 48.39872,13.56064 C54.29888,18.99424 55.81984,24.43008 56.46368,27.35136 C57.1056,30.27264 57.57056,38.62848 52.89696,45.75808 Z" id="形状"></path>
                </g>
            </g>
        </g>
    </g>
</svg>