<?xml version="1.0" encoding="UTF-8"?>
<svg width="66px" height="66px" viewBox="0 0 66 66" version="1.1" xmlns="http://www.w3.org/2000/svg" xmlns:xlink="http://www.w3.org/1999/xlink">
    <!-- Generator: Sketch 61 (89581) - https://sketch.com -->
    <title>移动</title>
    <desc>Created with Sketch.</desc>
    <g id="调整" stroke="none" stroke-width="1" fill="none" fill-rule="evenodd">
        <g id="收支详情" transform="translate(-23.000000, -794.000000)" fill-rule="nonzero">
            <g id="账单备份-3" transform="translate(23.000000, 778.000000)">
                <g id="移动" transform="translate(0.000000, 16.000000)">
                    <path d="M57.7383142,32.2777028 C53.8940741,28.2783366 50.1952808,24.9852224 48.119204,23.3057953 C47.8087571,23.0479016 47.5591134,22.842626 47.396517,22.6865906 C44.1115879,19.8656102 40.5318674,20.1160984 37.6888005,22.5986988 C37.3938792,22.8721831 36.9373359,23.2400551 36.4363595,23.7328465 C32.8861961,26.7237638 26.2276666,32.8147972 23.2367493,35.592189 C22.6626922,36.1153169 22.2208949,36.5202165 22.0139304,36.7410827 C20.4527316,38.1782717 18.1097965,38.670998 15.6354461,36.3658051 C14.8396784,35.6513031 10.5379855,31.8506516 6.87043825,27.9096201 C4.82222959,25.7440276 3.17242447,23.6892579 2.05230833,22.2012047 L1.95045006,22.0977224 C1.95045006,22.0977224 1.44947368,23.010939 0.97811935,24.4989921 C2.36184573,26.5536969 4.85185163,29.8394705 8.07844612,33.2130709 C11.8939087,37.1985354 15.5319638,40.4539075 17.6244107,42.1185236 C17.9627906,42.3977244 18.2132788,42.6482126 18.3758753,42.781252 C21.7051075,45.6252283 25.284893,45.3590846 28.142706,42.8625827 C28.4080052,42.6268406 28.8350564,42.2507185 29.3212217,41.8015157 C32.7975249,38.8919291 39.3090485,32.8887224 42.4174146,30.0308445 C43.0653319,29.4272303 43.5522768,28.9771831 43.7871745,28.7563169 C45.3492178,27.3199724 47.7068989,26.812435 50.1812493,29.117628 C50.9770819,29.861687 55.2638989,33.6475276 58.9315111,37.5590669 C60.9797197,39.732 62.6295249,41.8015157 63.7488615,43.2896339 L63.8523438,43.3996772 C63.8523438,43.3996772 64.3976233,42.4716496 64.838641,40.9770354 C63.4548497,38.9362323 60.9500977,35.6513031 57.7382493,32.2777028" id="路径" fill="#84BF41"></path>
                    <path d="M29.7187158,11.9333976 C26.7869127,13.9955079 14.9430957,25.0517421 12.4827119,27.8504409 C13.9264619,29.2276713 15.5179973,30.6714213 16.8878221,31.8876142 C17.5801075,32.4690118 18.3898418,32.351628 19.1116843,31.6215354 C23.8994776,26.812435 35.3909481,16.7654941 36.7016587,15.7192382 C38.8376292,13.9955079 41.9312493,14.1720709 44.7595701,15.9844724 C47.7947906,17.9217933 52.5087237,22.48125 58.2983398,28.6536142 C60.8614264,31.3792972 64.2793949,35.8352717 65.737891,37.9277835 C65.737891,37.9277835 65.7970052,36.3658051 65.72308,34.701189 C57.8565426,23.195752 47.1903969,13.4731594 43.4932276,11.4619783 C39.2942375,9.16419094 34.0359343,8.84718307 29.7187158,11.9333976" id="路径" fill="#0083BE"></path>
                    <path d="M19.524769,5.2305 C13.3959284,10.2021969 6.29553667,16.735937 4.29176108,18.9457677 C4.29176108,18.9457677 6.28079061,21.4718917 7.76799927,22.7168622 C8.47594022,23.3057303 8.9029914,23.010874 9.30126502,22.5846673 C15.3709914,16.6989094 21.0711568,11.5645512 24.8873989,8.58922441 C31.3249973,3.58712598 38.9115544,3.11577165 46.2771804,9.01549606 C49.031576,11.2179862 51.7284816,13.7079921 55.2926764,17.3837894 C59.830826,22.3637362 65.1926115,29.464128 65.3557184,30.2812677 C65.3557184,30.2812677 65.369954,28.3373858 65.1786449,26.9815276 C65.1786449,26.9815276 62.6730485,22.1789882 57.5764973,16.006624 C50.7996745,7.74181299 44.1271134,3.40322244 40.7675445,1.65818504 C36.3484678,-0.684814961 27.7009087,-1.36975984 19.524769,5.2305 M36.0241194,53.8522972 C38.9707335,51.7893425 50.7996745,40.7627303 53.2748694,37.9491555 C51.8163733,36.5719902 50.2552394,35.1134291 48.8550131,33.8980157 C48.1627276,33.3092126 47.3234363,33.448813 46.6015288,34.16325 C41.8285465,38.9954114 30.3526666,49.0127303 29.0264304,50.0812028 C26.8903949,51.7893425 23.7820288,51.6201201 20.983265,49.8011575 C17.9627906,47.8785827 13.2045544,43.333937 7.44449533,37.1394213 C4.88140872,34.3989272 1.47903077,29.9725098 0.0196902165,27.8660965 C0.0196902165,27.8660965 -0.0246129331,29.4272303 0.0196902165,31.0918465 C7.88707211,42.589878 18.5672493,52.313315 22.2644186,54.3237165 C26.4485327,56.6140984 31.6929343,56.9605984 36.0241194,53.8522972" id="形状" fill="#0083BE"></path>
                    <path d="M46.1736981,60.5773465 C52.3320957,55.5834331 59.433267,49.0570984 61.4510741,46.8397972 C61.4510741,46.8397972 59.4767906,44.3063327 57.9591804,43.0687028 C57.2529284,42.4717146 56.8250327,42.8034035 56.4276036,43.2157087 C50.3430662,49.085876 44.6716784,54.2423858 40.8562158,57.1963406 C34.4038064,62.1910335 26.8460268,62.6837598 19.4656548,56.7692894 C16.7251607,54.5881063 14.0299442,52.0628268 10.4649697,48.4091811 C5.92766463,43.4439803 0.564969744,36.321437 0.373660689,35.5109232 C0.373660689,35.5109232 0.373660689,37.4703307 0.565034705,38.7892264 C0.565034705,38.7892264 3.09849927,43.6065768 8.1375603,49.793752 C14.9283497,58.079935 21.6164363,62.4185256 24.9604796,64.1496614 C29.409893,66.4918169 38.0279599,67.1553898 46.1736981,60.5773465" id="路径" fill="#0083BE"></path>
                </g>
            </g>
        </g>
    </g>
</svg>