<?xml version="1.0" encoding="UTF-8"?>
<svg width="36px" height="42px" viewBox="0 0 36 42" version="1.1" xmlns="http://www.w3.org/2000/svg" xmlns:xlink="http://www.w3.org/1999/xlink">
    <g id="高保真" stroke="none" stroke-width="1" fill="none" fill-rule="evenodd">
        <g id="我的" transform="translate(-26.000000, -987.000000)">
            <g id="清理缓存" transform="translate(0.000000, 956.000000)">
                <rect id="矩形" stroke="#9B9B9B" fill="#FFFFFF" x="0" y="0.185303514" width="750" height="103"></rect>
                <g transform="translate(26.000000, 31.000000)" fill-rule="nonzero">
                    <path d="M30.871875,30.5578125 C30.6328125,30.5578125 30.3890625,30.496875 30.1640625,30.365625 L7.846875,17.3765625 C7.1765625,16.9875 6.946875,16.125 7.340625,15.4546875 C7.7296875,14.784375 8.5921875,14.5546875 9.2625,14.9484375 L31.5796875,27.9375 C32.25,28.3265625 32.4796875,29.1890625 32.0859375,29.859375 C31.8234375,30.3046875 31.3546875,30.5578125 30.871875,30.5578125 Z" id="路径" fill="#EF3535"></path>
                    <path d="M23.4984375,42 C22.809375,42 22.125,41.803125 21.525,41.45625 L2.7234375,30.5015625 C0.8484375,29.409375 0.2015625,26.98125 1.284375,25.0921875 L9.084375,11.475 C9.7875,10.2515625 11.0953125,9.4875 12.5015625,9.4875 C13.190625,9.4875 13.875,9.6703125 14.475,10.021875 L19.78125,13.115625 L25.828125,2.559375 C26.7234375,0.99375 28.396875,0.0234375 30.1921875,0.0234375 C31.0734375,0.0234375 31.9453125,0.2578125 32.709375,0.703125 C35.1046875,2.1 35.934375,5.1984375 34.5515625,7.6125 L28.4953125,18.1875 L33.2765625,20.971875 C35.1515625,22.0640625 35.7984375,24.4875 34.715625,26.3765625 L26.915625,40.003125 C26.2171875,41.2265625 24.9046875,42 23.4984375,42 L23.4984375,42 Z M12.5015625,12.3 C12.0984375,12.3 11.728125,12.5203125 11.5265625,12.871875 L3.7265625,26.4890625 C3.4125,27.0421875 3.5953125,27.75 4.14375,28.0640625 L22.9453125,39.009375 C23.11875,39.1078125 23.30625,39.159375 23.503125,39.159375 C23.90625,39.159375 24.2765625,38.9390625 24.478125,38.5875 L32.278125,24.9703125 C32.5921875,24.4171875 32.409375,23.709375 31.865625,23.3953125 L25.875,19.9125 C25.209375,19.5234375 24.9796875,18.6703125 25.3640625,18 L32.109375,6.215625 C32.728125,5.1375 32.3625,3.7546875 31.29375,3.1359375 C30.95625,2.9390625 30.5765625,2.8359375 30.1921875,2.8359375 C29.4,2.8359375 28.6640625,3.2671875 28.2703125,3.95625 L21.5203125,15.740625 C21.3328125,16.0640625 21.028125,16.303125 20.6625,16.4015625 C20.3015625,16.5 19.9171875,16.4484375 19.5890625,16.25625 L13.0546875,12.4546875 C12.8859375,12.3515625 12.6984375,12.3 12.5015625,12.3 L12.5015625,12.3 Z" id="形状" fill="#0066B3"></path>
                </g>
            </g>
        </g>
    </g>
</svg>