<?xml version="1.0" standalone="no"?><!DOCTYPE svg PUBLIC "-//W3C//DTD SVG 1.1//EN" "http://www.w3.org/Graphics/SVG/1.1/DTD/svg11.dtd"><svg t="1607521704439" class="icon" viewBox="0 0 1024 1024" version="1.1" xmlns="http://www.w3.org/2000/svg" p-id="11698" xmlns:xlink="http://www.w3.org/1999/xlink" width="128" height="128"><defs><style type="text/css"></style></defs><path d="M0 508.65981a511.097905 508.65981 0 1 0 1022.19581 0 511.097905 508.65981 0 1 0-1022.19581 0Z" fill="#004186" p-id="11699"></path><path d="M718.872381 684.105143c-41.520762 1.414095-79.85981 2.645333-121.392762 4.047238-26.331429 111.152762-243.516952 81.249524-219.306667-59.977143 12.190476-83.529143 125.647238-120.112762 196.156953-56.978286 15.555048 17.42019 23.149714 33.596952 28.099047 68.949334 34.816-1.414095 81.822476-2.645333 116.455619-4.047238 1.767619-179.919238-203.580952-271.201524-357.497904-183.783619-147.553524 83.712-130.584381 338.553905 24.039619 403.626666v4.035048c-84.297143-1.584762-176.896-66.645333-196.876191-143.847619l1.072762-414.72c66.974476-45.372952 141.019429-99.718095 207.811048-144.920381 2.657524 1.414095 5.302857 2.645333 7.960381 4.047238-4.59581 62.439619-1.767619 165.668571 1.950476 240.761905 41.874286-40.43581 70.144-82.822095 142.60419-96.902096 46.652952-9.142857 91.355429-3.510857 119.454477 5.985524 211.529143 72.106667 224.609524 344.015238 45.238857 437.74781-4.059429 0-12.726857 7.92381-19.44381 9.142857 0-1.401905 4.242286-7.033905 7.436191-13.190095 5.473524-20.053333 10.76419-40.106667 16.249904-59.977143z" fill="#FFFFFF" p-id="11700"></path></svg>