<?xml version="1.0" encoding="UTF-8"?>
<svg width="64px" height="64px" viewBox="0 0 64 64" version="1.1" xmlns="http://www.w3.org/2000/svg" xmlns:xlink="http://www.w3.org/1999/xlink">
    <!-- Generator: Sketch 61 (89581) - https://sketch.com -->
    <title>形状</title>
    <desc>Created with Sketch.</desc>
    <g id="调整" stroke="none" stroke-width="1" fill="none" fill-rule="evenodd">
        <g id="转账" transform="translate(-51.000000, -1484.000000)" fill="#D62629" fill-rule="nonzero">
            <g id="编组-3" transform="translate(-1.000000, 946.000000)">
                <g id="工商银行" transform="translate(52.000000, 538.000000)">
                    <path d="M50.0086154,34.2892308 L50.0086154,48.4849231 L34.2941539,48.4849231 L34.2941539,43.8966154 L44.992,43.8966154 L44.992,38.6584616 L34.2941539,38.6584616 L34.2941539,24.4726154 L44.992,24.4726154 L44.992,19.6627693 L34.2941539,19.6627693 L34.2941539,15.072 L50.0086154,15.072 L50.0086154,29.2578461 L39.3132307,29.2578461 L39.3132307,34.0676923 L50.0086154,34.0676923 L50.0086154,34.2892308 Z M32,0 C49.6738461,0 64,14.3261539 64,32 C64,49.6738461 49.6738461,64 32,64 C14.3261539,64 0,49.6738461 0,32 C0,14.3261539 14.3261539,0 32,0 Z M32,6.34584613 C17.8313846,6.34584613 6.35076925,17.8313846 6.35076925,32 C6.35076925,46.1686154 17.8313846,57.6516923 32,57.6516923 C46.1686154,57.6516923 57.6516923,46.1686154 57.6516923,32 C57.6516923,17.8313846 46.1686154,6.34584613 32.0024616,6.34584613 L32,6.34584613 Z M29.6910769,15.072 L29.6910769,19.6627693 L18.9956923,19.6627693 L18.9956923,24.4726154 L29.6910769,24.4726154 L29.6910769,38.6584616 L18.9956923,38.6584616 L18.9956923,43.8966154 L29.6910769,43.8966154 L29.6910769,48.4849231 L13.9815384,48.4849231 L13.9815384,34.0676923 L24.6769231,34.0676923 L24.6769231,29.2578461 L13.9815384,29.2578461 L13.9815384,15.072 L29.6935384,15.072 L29.6910769,15.072 Z" id="形状"></path>
                </g>
            </g>
        </g>
    </g>
</svg>