<?xml version="1.0" encoding="UTF-8"?>
<svg width="64px" height="67px" viewBox="0 0 64 67" version="1.1" xmlns="http://www.w3.org/2000/svg" xmlns:xlink="http://www.w3.org/1999/xlink">
    <!-- Generator: Sketch 61 (89581) - https://sketch.com -->
    <title>形状</title>
    <desc>Created with Sketch.</desc>
    <g id="调整" stroke="none" stroke-width="1" fill="none" fill-rule="evenodd">
        <g id="转账" transform="translate(-53.000000, -1187.000000)" fill="#0066B3" fill-rule="nonzero">
            <g id="编组-3" transform="translate(-1.000000, 946.000000)">
                <g id="建设银行" transform="translate(54.000000, 241.000000)">
                    <path d="M29.6002317,2.3493402 C29.6002317,2.3493402 35.3016622,-2.01873422 45.1018291,1.15731989 C45.1018291,1.15731989 48.4005519,2.3493402 52.2006168,5.72539771 L64.0008178,18.0402742 L57.7020438,24.2990475 L39.7017371,6.12273783 C39.7017371,6.12273783 36.701686,2.44800856 29.6002317,2.3493402 Z M55.6006746,26.4830847 L48.2005485,33.6325398 C48.2005485,33.6325398 47.0005281,35.3232353 46.0005111,33.7338749 L32.4002794,20.5256498 C32.4002794,20.5256498 31.2002589,18.9362894 30.301577,20.3256464 L16.6000102,34.2298833 C16.6000102,34.2298833 15.7013282,35.6192404 16.8000136,36.2165838 L30.2002419,49.5234772 C30.2002419,49.5234772 31.301594,51.3101743 32.3016111,49.9208173 L46.2005145,36.0165804 C46.2005145,36.0165804 46.6005213,34.8245601 48.8005588,35.1232319 L63.0008007,35.1232319 C63.0008007,35.1232319 63.6008109,49.4248089 52.6006235,58.3636278 C52.6006235,58.3636278 38.3017133,72.5638698 18.7013793,63.8250542 C18.7013793,63.8250542 -0.197609298,57.2702758 0.00239409874,32.9391947 C0.00239409874,32.9391947 0.501069256,16.6509172 15.3999897,8.01076995 C15.3999897,8.01076995 26.3015088,-0.0347004761 35.0003237,5.92540111 L55.6006746,26.4830847 L55.6006746,26.4830847 Z" id="形状"></path>
                </g>
            </g>
        </g>
    </g>
</svg>