<?xml version="1.0" encoding="UTF-8"?>
<svg width="30px" height="34px" viewBox="0 0 30 34" version="1.1" xmlns="http://www.w3.org/2000/svg" xmlns:xlink="http://www.w3.org/1999/xlink">
    <defs>
        <rect id="path-1" x="0" y="0" width="151" height="100"></rect>
        <filter x="-0.3%" y="-0.5%" width="100.7%" height="101.0%" filterUnits="objectBoundingBox" id="filter-2">
            <feOffset dx="1" dy="0" in="SourceAlpha" result="shadowOffsetInner1"></feOffset>
            <feComposite in="shadowOffsetInner1" in2="SourceAlpha" operator="arithmetic" k2="-1" k3="1" result="shadowInnerInner1"></feComposite>
            <feColorMatrix values="0 0 0 0 0   0 0 0 0 0.4   0 0 0 0 0.701960784  0 0 0 1 0" type="matrix" in="shadowInnerInner1"></feColorMatrix>
        </filter>
    </defs>
    <g id="高保真" stroke="none" stroke-width="1" fill="none" fill-rule="evenodd">
        <g id="基金详情页" transform="translate(-196.000000, -1715.000000)">
            <g id="底部" transform="translate(-1.000000, 1699.000000)">
                <rect id="矩形" stroke="#0066B3" fill="#FFFFFF" x="0" y="0" width="751" height="100"></rect>
                <g id="咨询" transform="translate(136.000000, 1.000000)">
                    <g id="矩形备份">
                        <use fill="#FFFFFF" fill-rule="evenodd" xlink:href="#path-1"></use>
                        <use fill="black" fill-opacity="1" filter="url(#filter-2)" xlink:href="#path-1"></use>
                    </g>
                    <g id="un-consult-o" transform="translate(61.000000, 15.000000)" fill-rule="nonzero">
                        <path d="M14.9999917,0.161290323 C23.0173157,0.161290323 29.5160836,6.74634839 29.5160836,14.8715871 C29.5324677,21.5138936 25.115291,27.3416437 18.7406651,29.0879484 L10.5357492,33.8387097 L10.5357492,28.8724129 C4.52566955,26.8824161 0.469712871,21.2330079 0.48390811,14.8715871 C0.48390811,6.74634839 6.98266769,0.161290323 14.9999917,0.161290323 Z M14.9999917,2.4244129 C8.215415,2.4244129 2.71714764,7.99690323 2.71714764,14.8715871 C2.70438214,20.254393 6.13594139,25.035123 11.2213532,26.7193032 L12.768987,27.2244645 L12.768987,29.9411097 L17.885335,26.9774968 L18.166723,26.9011613 C23.4996951,25.4642581 27.2828,20.5473548 27.2828,14.8715871 C27.2828,7.99690323 21.7845684,2.4244129 14.9999917,2.4244129 L14.9999917,2.4244129 Z" id="形状" fill="#0066B3"></path>
                        <path d="M8.73129295,17.9250065 C8.93980713,17.7128899 9.22410311,17.5935127 9.52074254,17.5935127 C9.81738197,17.5935127 10.101678,17.7128899 10.3101921,17.9250065 C11.5549276,19.1908443 13.251805,19.9032126 15.0223241,19.9032126 C16.7928432,19.9032126 18.4897205,19.1908443 19.734456,17.9250065 C19.9429702,17.7128899 20.2272662,17.5935127 20.5239056,17.5935127 C20.820545,17.5935127 21.104841,17.7128899 21.3133552,17.9250065 C21.7481252,18.368223 21.7481252,19.0803447 21.3133552,19.5235613 C19.6512933,21.2130723 17.3859356,22.1638069 15.0223241,22.1638069 C12.6587126,22.1638069 10.3933548,21.2130723 8.73129295,19.5235613 C8.29652298,19.0803447 8.29652298,18.368223 8.73129295,17.9250065 L8.73129295,17.9250065 Z" id="路径" fill="#EF3535"></path>
                    </g>
                    <rect id="矩形" fill="#000000" fill-rule="nonzero" opacity="0" x="58" y="14" width="36" height="36"></rect>
                </g>
            </g>
        </g>
    </g>
</svg>