<?xml version="1.0" encoding="UTF-8"?>
<svg width="52px" height="36px" viewBox="0 0 52 36" version="1.1" xmlns="http://www.w3.org/2000/svg" xmlns:xlink="http://www.w3.org/1999/xlink">
    <!-- Generator: Sketch 61 (89581) - https://sketch.com -->
    <title>编组 9</title>
    <desc>Created with Sketch.</desc>
    <g id="高保真" stroke="none" stroke-width="1" fill="none" fill-rule="evenodd">
        <g id="首页2" transform="translate(-67.000000, -508.000000)" fill-rule="nonzero">
            <g id="custom" transform="translate(0.000000, 339.000000)">
                <g id="bank-card" transform="translate(38.000000, 169.000000)">
                    <g id="编组-9" transform="translate(29.000000, 0.841000)">
                        <path d="M47.6666667,2.48689958e-14 L4.33333332,2.48689958e-14 C1.94422221,2.48689958e-14 0,1.94422221 0,4.33333332 L0,30.3333333 C0,32.7224444 1.94422221,34.6666667 4.33333332,34.6666667 L47.6666667,34.6666667 C50.0557778,34.6666667 52,32.7224445 52,30.3333333 L52,4.33333332 C52,1.94277774 50.0557778,2.48689958e-14 47.6666667,2.48689958e-14 Z M4.33333332,2.88888889 L47.6666667,2.88888889 C48.464,2.88888889 49.1111111,3.53744447 49.1111111,4.33333332 L49.1111111,8.93677779 L2.88888889,8.93677779 L2.88888889,4.33333332 C2.88888889,3.536 3.53744447,2.88888889 4.33333332,2.88888889 Z M47.6666667,31.7777778 L4.33333332,31.7777778 C3.53744442,31.7777778 2.88888889,31.1306667 2.88888889,30.3333333 L2.88888889,11.8256667 L49.1111111,11.8256667 L49.1111111,30.3333333 C49.1111111,31.1292222 48.464,31.7777778 47.6666667,31.7777778 Z" id="形状" fill="#0066B3"></path>
                        <path d="M18.7777778,25.6981111 C18.7777778,26.0812016 18.6255957,26.4486017 18.3547098,26.7194876 C18.0838239,26.9903735 17.7164238,27.1425556 17.3333333,27.1425556 L8.66666668,27.1425556 C7.86892204,27.1425556 7.22222224,26.4958558 7.22222224,25.6981111 C7.22222224,24.9003665 7.86892204,24.2536667 8.66666668,24.2536667 L17.3333333,24.2536667 C17.7164238,24.2536667 18.0838239,24.4058488 18.3547098,24.6767346 C18.6255957,24.9476205 18.7777778,25.3150206 18.7777778,25.6981111 L18.7777778,25.6981111 Z" id="路径" fill="#EF3535"></path>
                        <path d="M28.8888889,17.7536667 C28.8888889,18.1370076 28.7365087,18.5046267 28.4653103,18.7755542 C28.194112,19.0464816 27.8263407,19.1984945 27.443,19.1981118 L8.66522221,19.1981118 C7.86747757,19.1981118 7.22077776,18.5514113 7.22077776,17.7536667 C7.22077776,16.955922 7.86747757,16.3092215 8.66522221,16.3092215 L27.443,16.3092215 C27.8263407,16.3088389 28.194112,16.4608517 28.4653104,16.7317792 C28.7365087,17.0027066 28.8888889,17.3703258 28.8888889,17.7536667 L28.8888889,17.7536667 Z" id="路径" fill="#EF3535"></path>
                    </g>
                </g>
            </g>
        </g>
    </g>
</svg>