<?xml version="1.0" encoding="UTF-8"?>
<svg width="51px" height="44px" viewBox="0 0 51 44" version="1.1" xmlns="http://www.w3.org/2000/svg" xmlns:xlink="http://www.w3.org/1999/xlink">
    <!-- Generator: Sketch 61 (89581) - https://sketch.com -->
    <title>编组 10</title>
    <desc>Created with Sketch.</desc>
    <g id="高保真" stroke="none" stroke-width="1" fill="none" fill-rule="evenodd">
        <g id="首页2" transform="translate(-223.000000, -503.000000)" fill-rule="nonzero">
            <g id="custom" transform="translate(0.000000, 339.000000)">
                <g id="债券" transform="translate(222.000000, 160.000000)">
                    <g id="编组-2">
                        <g id="编组-10" transform="translate(1.040000, 4.682039)">
                            <path d="M48.36,3.17490108 C48.23572,3.20480108 35.83086,6.11680108 29.1239,2.77242108 C18.3001,-2.62647892 6.6521,1.49166108 6.16148,1.67002108 L5.19012,2.02258108 L5.19012,9.89486108 C3.75859498,10.1469319 2.34828478,10.5073754 0.97136,10.9730811 L1.42108547e-13,11.3256411 L1.42108547e-13,40.1986411 L1.88422,39.6568011 C2.00044,39.6235211 13.56004,36.3808011 22.64938,40.6115211 C26.52988,42.4177411 31.41138,42.8979864 35.50326,42.8979864 C38.2660527,42.9006129 41.0251109,42.6948895 43.75696,42.2825411 L44.99014,42.0779211 L44.99014,33.4217411 C47.33014,33.2449411 48.87454,32.9911811 48.94682,32.9797411 L50.18,32.7748611 L50.18,2.73940108 L48.36,3.17490108 Z M42.03836,39.5470811 C38.78134,39.9420211 29.8025,40.6926411 23.89738,37.9431411 C19.8367,36.0526811 15.4271,35.4806811 11.57338,35.4806811 C8.6763857,35.4895242 5.78762881,35.7897758 2.95074,36.3769011 L2.95074,13.4399611 C5.82842,12.6287611 14.6042,10.7146411 22.61246,14.7087611 C28.67046,17.7304811 38.09026,16.4507611 42.03758,15.7183411 L42.03758,39.5470811 L42.03836,39.5470811 Z M47.22822,30.2445411 C46.64816,30.3150011 45.88116,30.3966411 44.99014,30.4676211 L44.99014,12.0427211 L43.17014,12.4784811 C43.04508,12.5078611 30.64022,15.4198611 23.93378,12.0757411 C18.3365,9.28412108 12.5229,9.03920108 8.1419,9.47574108 L8.1419,4.13690108 C11.01958,3.32570108 19.79536,1.41158108 27.80388,5.40570108 C33.86188,8.42742108 43.28168,7.14770108 47.22874,6.41502108 L47.22874,30.2445411 L47.22822,30.2445411 Z" id="形状" fill="#0066B3"></path>
                            <polygon id="路径" fill="#EF3535" points="28.08 18.9779611 25.4202 24.6550611 27.79504 24.6550611 27.79504 26.9792011 24.43324 26.9792011 24.16726 27.5127211 24.16726 28.1793611 27.79608 28.1793611 27.79608 30.5037611 24.16726 30.5037611 24.16726 33.0179611 21.07066 33.0179611 21.07066 30.5032411 17.42286 30.5032411 17.42286 28.1788411 21.07066 28.1788411 21.07066 27.5122011 20.86266 26.9786811 17.42286 26.9786811 17.42286 24.6545411 20.17886 24.6545411 17.53674 18.9779611 20.7285 18.9779611 22.78042 24.5027011 22.81838 24.5027011 24.94622 18.9779611"></polygon>
                        </g>
                    </g>
                </g>
            </g>
        </g>
    </g>
</svg>