<?xml version="1.0" encoding="UTF-8"?>
<svg width="66px" height="66px" viewBox="0 0 66 66" version="1.1" xmlns="http://www.w3.org/2000/svg" xmlns:xlink="http://www.w3.org/1999/xlink">
    <!-- Generator: Sketch 61 (89581) - https://sketch.com -->
    <title>饿了么</title>
    <desc>Created with Sketch.</desc>
    <g id="调整" stroke="none" stroke-width="1" fill="none" fill-rule="evenodd">
        <g id="收支详情" transform="translate(-24.000000, -498.000000)" fill-rule="nonzero">
            <g id="账单备份" transform="translate(24.000000, 482.000000)">
                <g id="饿了么" transform="translate(0.000000, 16.000000)">
                    <path d="M6.6,0 L59.4,0 C63.03,0 66,2.97 66,6.6 L66,59.4 C66,63.03 63.03,66 59.4,66 L6.6,66 C2.97,66 0,63.03 0,59.4 L0,6.6 C0,2.97 2.97,0 6.6,0 Z" id="路径" fill="#2962FF"></path>
                    <path d="M33.495,44.88 C28.545,45.1275 24.255,42.24 22.3575,38.28 C20.295,33.9075 20.7075,29.6175 23.595,25.8225 C26.4,22.1925 30.36,20.7075 34.98,21.285 C37.29,21.5325 39.27,22.5225 41.085,23.925 C42.075,24.75 41.9925,25.08 40.92,25.6575 C40.0125,26.1525 39.105,26.73 38.115,27.225 C35.5575,28.71 33,30.1125 30.525,31.68 C29.205,32.505 28.875,33.825 29.7,35.145 C30.525,36.63 32.0925,36.96 33.7425,35.97 C38.6925,33.165 43.6425,30.2775 48.675,27.4725 C49.5,26.9775 49.5825,26.565 49.2525,25.74 C47.9325,23.0175 46.035,20.7075 43.56,18.975 C37.95,15.2625 31.9275,14.6025 25.8225,17.49 C19.7175,20.295 16.335,25.3275 15.84,31.9275 C15.345,37.3725 17.49,41.9925 21.45,45.7875 C27.06,51.0675 36.3825,51.8925 42.735,47.685 C44.385,46.6125 44.385,46.6125 43.395,44.88 C42.24,43.065 41.1675,42.735 39.1875,43.6425 C37.29,44.385 35.3925,44.9625 33.495,44.88 L33.495,44.88 Z" id="路径" fill="#FFFFFF"></path>
                    <path d="M50.655,36.7125 C50.5725,35.3925 49.83,34.32 49.2525,33.2475 C49.0875,32.9175 48.7575,33 48.4275,33.165 C47.2725,33.825 46.1175,34.485 44.9625,35.0625 C44.4675,35.31 44.385,35.64 44.6325,36.135 C45.2925,37.2075 45.9525,38.28 46.53,39.435 C46.7775,39.93 47.1075,40.0125 47.6025,39.765 C48.2625,39.3525 49.005,38.94 49.665,38.445 C50.4075,38.0325 50.7375,37.455 50.655,36.7125 L50.655,36.7125 Z" id="路径" fill="#FFFFFF"></path>
                </g>
            </g>
        </g>
    </g>
</svg>