<?xml version="1.0" standalone="no"?><!DOCTYPE svg PUBLIC "-//W3C//DTD SVG 1.1//EN" "http://www.w3.org/Graphics/SVG/1.1/DTD/svg11.dtd"><svg t="1607520757794" class="icon" viewBox="0 0 1024 1024" version="1.1" xmlns="http://www.w3.org/2000/svg" p-id="2085" xmlns:xlink="http://www.w3.org/1999/xlink" width="128" height="128"><defs><style type="text/css"></style></defs><path d="M512 512m-512 0a512 512 0 1 0 1024 0 512 512 0 1 0-1024 0Z" fill="#6D1687" p-id="2086"></path><path d="M128 320h213.333333c8.533333 4.266667 12.8 8.533333 17.066667 12.8h-38.4v12.8h51.2c4.266667 0 8.533333 4.266667 12.8 8.533333H320v8.533334h72.533333c4.266667 4.266667 4.266667 8.533333 4.266667 12.8h-213.333333V384h217.6v12.8H183.466667v8.533333h217.6v12.8H183.466667v8.533334h213.333333c0 4.266667-4.266667 8.533333-4.266667 12.8H183.466667v8.533333H384c0 12.8-4.266667 17.066667-4.266667 21.333333H183.466667v8.533334h183.466666l-12.8 12.8H298.666667v8.533333h68.266666c4.266667 4.266667 12.8 8.533333 17.066667 12.8H298.666667v12.8h93.866666c4.266667 4.266667 4.266667 8.533333 8.533334 12.8h-213.333334v8.533333h221.866667l4.266667 12.8H183.466667v8.533334h230.4v12.8H183.466667v8.533333h230.4v12.8H183.466667v12.8h230.4c0 4.266667 0 8.533333-4.266667 12.8H183.466667v12.8h221.866666c0 4.266667-4.266667 8.533333-8.533333 12.8H320v8.533333h72.533333c-4.266667 0-8.533333 4.266667-12.8 8.533334H320v8.533333h46.933333c-8.533333 8.533333-12.8 12.8-21.333333 17.066667H128V320z" fill="#E7A602" p-id="2087"></path><path d="M584.533333 554.666667v98.133333c0 8.533333 0 17.066667 4.266667 21.333333 0 4.266667 4.266667 8.533333 8.533333 8.533334v8.533333h-55.466666c-4.266667-8.533333-4.266667-17.066667-4.266667-25.6l-21.333333 21.333333c-4.266667 0-8.533333 4.266667-12.8 4.266667v-34.133333c8.533333 0 12.8-4.266667 21.333333-8.533334 8.533333-8.533333 12.8-17.066667 12.8-25.6V597.333333c-4.266667 0-4.266667 4.266667-12.8 4.266667s-12.8 4.266667-21.333333 8.533333v-34.133333l17.066666-4.266667c4.266667 0 8.533333 0 12.8-4.266666 4.266667-4.266667 4.266667-8.533333 4.266667-12.8 0-8.533333-4.266667-17.066667-12.8-17.066667h-21.333333v-38.4h8.533333c17.066667 0 34.133333 4.266667 46.933333 8.533333 17.066667 8.533333 25.6 25.6 25.6 46.933334z m-81.066666 136.533333h-25.6c-17.066667 0-29.866667-4.266667-38.4-12.8-12.8-8.533333-17.066667-21.333333-17.066667-38.4s4.266667-29.866667 17.066667-42.666667c8.533333-8.533333 21.333333-17.066667 38.4-17.066666l25.6-4.266667v34.133333c-8.533333 0-17.066667 4.266667-21.333334 8.533334-8.533333 0-12.8 8.533333-12.8 17.066666s4.266667 12.8 8.533334 17.066667c4.266667 4.266667 8.533333 4.266667 17.066666 4.266667h12.8l-4.266666 34.133333z m0-153.6c-8.533333 0-17.066667 4.266667-21.333334 8.533333-4.266667 4.266667-8.533333 8.533333-8.533333 17.066667H426.666667c4.266667-25.6 12.8-42.666667 29.866666-51.2 12.8-8.533333 25.6-12.8 46.933334-12.8v38.4z m264.533333 25.6v128h-46.933333v-115.2c0-12.8 0-17.066667-4.266667-21.333333-4.266667-8.533333-12.8-12.8-25.6-12.8s-21.333333 4.266667-25.6 12.8-12.8 17.066667-12.8 29.866666v106.666667h-46.933333v-187.733333h46.933333v29.866666c8.533333-12.8 17.066667-21.333333 25.6-25.6s17.066667-8.533333 29.866667-8.533333c17.066667 0 34.133333 4.266667 46.933333 17.066667 8.533333 8.533333 12.8 25.6 12.8 46.933333z m59.733333 68.266667v59.733333h-46.933333v-251.733333h46.933333v136.533333l59.733334-72.533333h59.733333l-64 72.533333 68.266667 110.933333H896l-42.666667-81.066666-25.6 25.6z" fill="#C0C0C0" p-id="2088"></path></svg>