<svg width="26px" height="26px" viewBox="0 0 26 26" version="1.1" xmlns="http://www.w3.org/2000/svg" xmlns:xlink="http://www.w3.org/1999/xlink">
    <g id="调整" stroke="none" stroke-width="1" fill="none" fill-rule="evenodd">
        <g id="转账" transform="translate(-601.000000, -610.000000)" fill="#000000" fill-rule="nonzero">
            <g id="delete" transform="translate(601.000000, 610.000000)">
                <path d="M25.1727461,0.992333333 C24.670045,0.488776749 23.9877223,0.205809587 23.2761905,0.205809587 C22.5646586,0.205809587 21.8823359,0.488776749 21.3796348,0.992333333 L13.0825396,9.28942857 L4.78544444,0.992333333 C3.73800574,-0.0551053657 2.03977203,-0.0551053657 0.992333333,0.992333333 C-0.0551053657,2.03977203 -0.0551053657,3.73800574 0.992333333,4.78544444 L9.28942857,13.0825396 L0.992333333,21.3796348 C-0.0242746648,22.432207 -0.00973573714,24.1053226 1.02501048,25.1400688 C2.0597567,26.1748151 3.73287252,26.189354 4.78544444,25.1727461 L13.0825396,16.8756509 L21.3796348,25.1727461 C21.8816324,25.6776248 22.5642186,25.9615061 23.2761905,25.9615061 C23.9881623,25.9615061 24.6707485,25.6776248 25.1727461,25.1727461 C25.6763027,24.670045 25.9592699,23.9877223 25.9592699,23.2761905 C25.9592699,22.5646586 25.6763027,21.8823359 25.1727461,21.3796348 L16.8756509,13.0825396 L25.1727461,4.78544444 C25.6763027,4.28274338 25.9592699,3.60042074 25.9592699,2.8888889 C25.9592699,2.17735702 25.6763027,1.49503439 25.1727461,0.992333333" id="形状-path"></path>
            </g>
        </g>
    </g>
</svg>