<?xml version="1.0" encoding="UTF-8"?>
<svg width="26px" height="26px" viewBox="0 0 26 26" version="1.1" xmlns="http://www.w3.org/2000/svg" xmlns:xlink="http://www.w3.org/1999/xlink">
    <g id="高保真" stroke="none" stroke-width="1" fill="none" fill-rule="evenodd">
        <g id="搜索" transform="translate(-548.000000, -41.000000)">
            <g id="Bars/Search/Search-Bar" transform="translate(69.000000, 27.000000)" stroke="#0066B3">
                <g id="iPhone/Search-Bars/Search-Bar">
                    <rect id="Search-Field" x="0" y="0" width="520" height="53" rx="10"></rect>
                </g>
            </g>
            <g id="delete" transform="translate(548.000000, 41.000000)" fill="#000000" fill-rule="nonzero">
                <path d="M13,23.8333333 C7.0265,23.8333333 2.16666667,18.9735 2.16666667,13 C2.16666667,7.0265 7.0265,2.16666667 13,2.16666667 C18.9735,2.16666667 23.8333333,7.0265 23.8333333,13 C23.8333333,18.9735 18.9735,23.8333333 13,23.8333333 M13,0 C5.83158333,0 0,5.83158333 0,13 C0,20.1684167 5.83158333,26 13,26 C20.1684167,26 26,20.1684167 26,13 C26,5.83158333 20.1684167,0 13,0 M17.6659167,7.90075 C17.4629028,7.69739061 17.1873494,7.58311541 16.9,7.58311541 C16.6126506,7.58311541 16.3370972,7.69739061 16.1340833,7.90075 L12.7833333,11.2515 L9.43258333,7.90075 C9.00957924,7.47774591 8.32375409,7.47774591 7.90075,7.90075 C7.47774591,8.32375409 7.47774591,9.00957924 7.90075,9.43258333 L11.2515,12.7833333 L7.90075,16.1340833 C7.49019677,16.5591605 7.49606826,17.2348418 7.91394654,17.6527201 C8.33182482,18.0705984 9.00750621,18.0764699 9.43258333,17.6659167 L12.7833333,14.3151667 L16.1340833,17.6659167 C16.3368131,17.86981 16.6124729,17.9844544 16.9,17.9844544 C17.1875271,17.9844544 17.4631869,17.86981 17.6659167,17.6659167 C17.8692761,17.4629028 17.9835513,17.1873494 17.9835513,16.9 C17.9835513,16.6126506 17.8692761,16.3370972 17.6659167,16.1340833 L14.3151667,12.7833333 L17.6659167,9.43258333 C17.8692761,9.22956944 17.9835513,8.95401607 17.9835513,8.66666667 C17.9835513,8.37931726 17.8692761,8.10376389 17.6659167,7.90075" id="形状"></path>
            </g>
        </g>
    </g>
</svg>