<?xml version="1.0" encoding="UTF-8"?>
<svg width="67px" height="66px" viewBox="0 0 67 66" version="1.1" xmlns="http://www.w3.org/2000/svg" xmlns:xlink="http://www.w3.org/1999/xlink">
    <!-- Generator: Sketch 61 (89581) - https://sketch.com -->
    <title>人脸支付</title>
    <desc>Created with Sketch.</desc>
    <g id="调整" stroke="none" stroke-width="1" fill="none" fill-rule="evenodd">
        <g id="收支详情" transform="translate(-24.000000, -350.000000)" fill-rule="nonzero">
            <g id="账单" transform="translate(24.000000, 334.000000)">
                <g id="人脸支付" transform="translate(0.500000, 16.000000)">
                    <path d="M60.4368512,47.0232329 L60.4368512,47.0767345 L60.4292081,47.0767345 L60.4292081,59.8865489 C60.4292081,60.3757065 60.0317676,60.7731471 59.54261,60.7731471 L47.1760947,60.7884332 C45.9914161,60.7884332 45.0666025,62.1183304 45.0666025,63.303009 C45.0666025,64.4876875 46.0296316,65.7946555 47.2143101,65.7946555 L60.5973561,65.8328709 C63.4940862,65.8328709 65.840514,63.4788 65.840514,60.589713 L65.840514,47.0232329 C65.840514,45.8385544 64.4724014,44.8755254 63.2877228,44.8755254 C62.0954012,44.8755254 60.4368512,45.8385544 60.4368512,47.0232329 Z M47.0232329,5.43719457 L47.0767345,5.43719457 L47.0767345,5.44483766 L59.8865489,5.44483766 C60.3757065,5.44483766 60.7731471,5.8422782 60.7731471,6.33143579 L60.7884332,18.6979511 C60.7884332,19.8826297 62.1183304,20.8074433 63.303009,20.8074433 C64.4876875,20.8074433 65.7946555,19.8444142 65.7946555,18.6597357 L65.8328709,5.28433282 C65.8328709,2.38760271 63.4788,0.0411748941 60.589713,0.0411748941 L47.0232329,0.0411748941 C45.8385544,0.0411748941 44.8755254,1.40928753 44.8755254,2.59396607 C44.8755254,3.77864461 45.8385544,5.43719457 47.0232329,5.43719457 Z M2.58632299,44.8755254 C1.40164445,44.8755254 0.033531807,45.8385544 0.033531807,47.0232329 L0.033531807,60.589713 C0.033531807,63.4864431 2.38760271,65.8328709 5.27668974,65.8328709 L18.6597357,65.7946555 C19.8444142,65.7946555 20.8074433,64.4876875 20.8074433,63.303009 C20.8074433,62.1183304 19.8826297,60.7884332 18.6979511,60.7884332 L6.33143579,60.7731471 C5.8422782,60.7731471 5.44483766,60.3757065 5.44483766,59.8865489 L5.44483766,47.0767345 L5.43719457,47.0767345 L5.43719457,47.0232329 C5.43719457,45.8385544 3.77864461,44.8755254 2.58632299,44.8755254 L2.58632299,44.8755254 Z M20.9985204,2.58632299 C20.9985204,1.40164445 20.0354914,0.033531807 18.8508129,0.033531807 L5.27668974,0.033531807 C2.37995963,0.033531807 0.033531807,2.38760271 0.033531807,5.27668974 L0.0717472428,18.6520926 C0.0717472428,19.8367712 1.37871518,20.7998002 2.56339372,20.7998002 C3.74807226,20.7998002 5.07796947,19.8749866 5.07796947,18.6903081 L5.09325564,6.32379271 C5.09325564,5.83463511 5.49069618,5.43719457 5.97985377,5.43719457 L18.7973113,5.43719457 L18.7973113,5.42955148 L18.8508129,5.42955148 C20.0354914,5.43719457 20.9985204,3.77864461 20.9985204,2.58632299 Z" id="形状" fill="#0066B3"></path>
                    <path d="M14.2114589,51.6625869 C14.1579573,51.1275708 14.219102,50.5925547 14.402536,50.0881109 C14.7159026,49.3008729 15.1362724,48.5594935 15.6560024,47.8869018 C17.3833401,46.243638 19.301755,44.8220237 21.3806748,43.6526314 C22.0532665,43.354551 26.0123858,42.0093676 27.1282765,41.0234093 C28.3511705,40.0145218 28.5193184,38.2031101 27.5027878,36.9878592 C27.4492862,36.9267145 27.3957846,36.8655698 27.3346399,36.8044251 C25.9970996,35.5509588 23.5742409,30.1320098 23.5742409,30.1320098 C23.5742409,30.1320098 20.9832343,20.2800702 26.4939003,16.2903786 C28.1753795,14.9375522 30.2466561,14.1656003 32.4020068,14.0968126 C34.2363478,14.0738833 36.0630456,14.4331084 37.7521679,15.1515586 C39.8005154,16.2292339 41.3902775,18.0024302 42.223374,20.1577808 C43.2551908,22.970437 43.4080526,26.0276719 42.6513869,28.924402 C41.8488628,31.8822768 40.4196054,34.6337883 38.4706182,37.0031454 C37.3623705,38.0043898 37.2706534,39.7087983 38.2642548,40.8246891 C38.5011905,41.0921971 38.7992709,41.3062036 39.1202806,41.4667084 C42.483239,42.5825992 45.6551203,44.1952906 48.5365642,46.2512811 C49.8435321,47.2448824 50.8906351,48.5289211 51.6014422,50.0116801 C51.7390178,50.53141 51.8001625,51.0664261 51.7772332,51.6014422 L14.2114589,51.6625869" id="路径" fill="#EF3535"></path>
                </g>
            </g>
        </g>
    </g>
</svg>