<?xml version="1.0" encoding="UTF-8"?>
<svg width="14px" height="16px" viewBox="0 0 14 16" version="1.1" xmlns="http://www.w3.org/2000/svg" xmlns:xlink="http://www.w3.org/1999/xlink">
    <g id="高保真" stroke="none" stroke-width="1" fill="none" fill-rule="evenodd">
        <g id="黄金" transform="translate(-276.000000, -1283.000000)" fill-rule="nonzero">
            <g id="fire" transform="translate(275.000000, 1283.000000)">
                <rect id="矩形" fill="#000000" opacity="0" x="0" y="0" width="16" height="16"></rect>
                <path d="M8.3783,0 C8.80583333,0.7782 9.0727,1.8262 9.0727,2.98633333 C9.0727,5.38153333 7.9521,7.3238 6.56883333,7.3238 C5.49083333,7.3238 4.5799,6.13626667 4.2271,4.48013333 C2.97456667,6.24906667 1.91963333,8.34446667 1.91963333,10.4183333 C1.91963333,13.5012 4.64216667,16 7.9997,16 C11.3578333,16 14.0803667,13.5012 14.0803667,10.4183333 C14.0803667,4.8184 8.6019,0.187 8.3783,0 L8.3783,0 Z M8.04996667,14.6658667 C6.00156667,14.6658667 5.3903,13.0798 5.49583334,12.4401333 C5.70623334,11.1654 6.96503334,10.9574 7.91583334,10.9574 C10.1786333,10.9574 11.0896333,8.60186669 11.1434333,7.99120002 C11.1433667,7.99120002 11.9580333,14.6658667 8.04996667,14.6658667 L8.04996667,14.6658667 Z" id="形状" fill="#EF3535"></path>
            </g>
        </g>
    </g>
</svg>