<?xml version="1.0" encoding="UTF-8"?>
<svg width="30px" height="35px" viewBox="0 0 30 35" version="1.1" xmlns="http://www.w3.org/2000/svg" xmlns:xlink="http://www.w3.org/1999/xlink">
    <g id="高保真" stroke="none" stroke-width="1" fill="none" fill-rule="evenodd">
        <g id="基金详情页" transform="translate(-29.000000, -1177.000000)" fill-rule="nonzero">
            <g id="基金档案" transform="translate(26.000000, 1109.000000)">
                <g id="图表描述" transform="translate(0.000000, 67.000000)">
                    <g id="wealth" transform="translate(3.000000, 1.000000)">
                        <path d="M27.3940084,15.7994546 C26.2690129,13.3667558 24.6814982,11.0272097 22.8031272,9.03376173 C22.717242,8.94259648 22.7109027,8.83676827 22.7147708,8.7817916 C22.7184956,8.72835249 22.7388028,8.62766193 22.8326748,8.55370968 C23.9843527,7.64588214 24.5930702,6.5515239 24.5930702,5.38895109 C24.5930702,3.84941687 23.5308948,2.44544923 21.6022032,1.43573109 C19.8337852,0.509865475 17.498697,0 15.0270449,0 C12.5554287,0 10.2203405,0.509865475 8.45188667,1.43573109 C6.52319508,2.44544923 5.46101969,3.84941687 5.46101969,5.38895109 C5.46101969,6.6276137 6.14491351,7.77878613 7.43877831,8.71803964 C7.54554383,8.7955545 7.56968335,8.90340779 7.57459006,8.96085953 C7.57931766,9.01632372 7.57412446,9.12301445 7.48648434,9.21455475 C5.55173994,11.2349661 3.91637595,13.5478488 2.7571768,15.9031828 C1.55456947,18.3465694 0.918918919,20.7359169 0.918918919,22.8128425 C0.918918919,24.4785306 1.30017314,26.0928046 2.05211611,27.6108507 C2.77204016,29.0642073 3.79943887,30.3667343 5.10573158,31.4821682 C7.76244149,33.7506871 11.2858825,35 15.0270091,35 C18.7681357,35 22.2916126,33.7506871 24.9483225,31.4821682 C26.2546152,30.3667343 27.2820139,29.0642448 28.0019379,27.6108507 C28.7538809,26.0928046 29.1351351,24.4785306 29.1351351,22.8128425 C29.1351351,20.687728 28.5330435,18.2624919 27.3940084,15.7994546 Z M15.0270091,33.4767412 C8.04993115,33.4767412 2.37370199,28.692946 2.37370199,22.8128425 C2.37370199,19.1024424 4.78382332,14.1881432 8.51373976,10.29305 C8.88370862,9.90765094 9.07057516,9.36977573 9.02357106,8.82555541 C8.97679623,8.27646376 8.70130469,7.78103619 8.26761679,7.46621415 C7.65091255,7.01852557 6.91576699,6.2947161 6.91576695,5.38895109 C6.91576695,4.46998571 7.71280141,3.52566952 9.10247223,2.79814744 C10.6728314,1.97600998 12.7768749,1.52325876 15.0270091,1.52325876 C17.2771792,1.52325876 19.3812226,1.9760475 20.9515818,2.79814744 C22.3412168,3.52570705 23.1382513,4.46998571 23.1382513,5.38895109 C23.1382513,6.22961411 22.4962614,6.91217232 21.9576346,7.33676022 C21.5538883,7.65503239 21.3009962,8.14100964 21.2638557,8.67007571 C21.2264657,9.20158959 21.4100525,9.72412685 21.767491,10.1035567 C25.3594109,13.9155474 27.680352,18.9042114 27.680352,22.8128425 C27.680352,28.6929085 22.0040871,33.4767412 15.0270091,33.4767412 Z" id="形状" fill="#0066B3"></path>
                        <path d="M20.6318404,18.4474282 C21.0292383,18.4474282 21.3513514,18.1047196 21.3513514,17.6819967 C21.3513514,17.2592362 21.0292029,16.9165653 20.6318404,16.9165654 L16.7437394,16.9165654 L19.1970345,14.3066964 C19.47798,14.0077828 19.47798,13.5231365 19.1970345,13.2241852 C18.9160537,12.9252716 18.4604473,12.9252716 18.1794309,13.2241852 L15.5134958,16.0602651 L12.8475607,13.2241852 C12.5665798,12.9252716 12.1110088,12.9252716 11.8299924,13.2241852 C11.5489761,13.5230988 11.5490116,14.0077451 11.8299924,14.3066964 L14.2832877,16.9165654 L10.3951866,16.9165654 C9.99778869,16.9165654 9.67567568,17.2592739 9.67567568,17.6819967 C9.67567568,18.1047573 9.99782411,18.4474282 10.3951866,18.4474282 L14.7939849,18.4474282 L14.7939849,21.3107574 L10.3951866,21.3107574 C9.99778869,21.3107574 9.67567568,21.653466 9.67567568,22.0761888 C9.67567568,22.4989494 9.99782411,22.8416203 10.3951866,22.8416203 L14.7939849,22.8416203 L14.7939849,27.2345686 C14.7939849,27.6573291 15.1161333,28 15.5134958,28 C15.9108582,28 16.2330067,27.6572915 16.2330067,27.2345686 L16.2330067,22.8416579 L20.631805,22.8416579 C21.0292029,22.8416579 21.3513514,22.4989494 21.3513514,22.0762265 C21.3513514,21.653466 21.0291675,21.3107951 20.631805,21.3107951 L16.2330421,21.3107951 L16.2330421,18.4474658 L20.6318404,18.4474658 L20.6318404,18.4474282 Z" id="路径" fill="#EF3535"></path>
                    </g>
                </g>
            </g>
        </g>
    </g>
</svg>