<?xml version="1.0" encoding="UTF-8"?>
<svg width="53px" height="52px" viewBox="0 0 53 52" version="1.1" xmlns="http://www.w3.org/2000/svg" xmlns:xlink="http://www.w3.org/1999/xlink">
    <!-- Generator: Sketch 61 (89581) - https://sketch.com -->
    <title>编组 4</title>
    <desc>Created with Sketch.</desc>
    <g id="高保真" stroke="none" stroke-width="1" fill="none" fill-rule="evenodd">
        <g id="首页2" transform="translate(-360.000000, -371.000000)" fill-rule="nonzero">
            <g id="custom" transform="translate(0.000000, 339.000000)">
                <g id="基金" transform="translate(360.500000, 32.000000)">
                    <g id="编组-4">
                        <rect id="矩形" fill="#000000" opacity="0" x="0" y="0" width="52" height="52"></rect>
                        <path d="M48.9141619,31.8656919 L44.598971,32.3141078 C44.1418901,32.357433 43.7432981,32.6412131 43.559166,33.0473869 C43.3750338,33.447062 43.4259409,33.9247225 43.6913079,34.2799891 L44.1191443,34.8432169 L25.2076902,48.4494991 L20.1267262,42.344977 C19.5936567,41.720752 18.6724949,41.6061352 18.0027078,42.0806932 C15.8711075,43.6122393 12.7062009,45.8640671 12.1906309,46.1846737 C11.5253896,46.5095978 11.2059854,47.2788604 11.4454373,47.9794205 C11.7183861,48.7636068 12.5892229,49.1762794 13.4004874,48.9195776 C13.6658543,48.8340103 13.8499865,48.7701056 18.6515028,45.3290008 L23.7335499,51.434606 C24.0368264,51.7974547 24.4852423,51.9902518 24.9358245,51.9902518 C25.2531817,51.9902518 25.5770376,51.8971026 25.8575684,51.6913079 L45.9485513,37.2434335 L46.2583266,37.6571893 C46.5020309,37.9777958 46.8930409,38.1630111 47.2981316,38.1630111 C47.34254,38.1630111 47.3869483,38.1630111 47.4313566,38.1554292 C47.8841191,38.1094303 48.2806076,37.8318474 48.4787436,37.42215 L50.2334146,33.5824533 C50.4147227,33.1740924 50.360849,32.6995895 50.0926077,32.3422692 C49.8037787,31.9962778 49.361192,31.8174548 48.9130788,31.8656919 L48.9141619,31.8656919 Z M25.9983753,-2.51919697e-14 C11.6609802,-2.51919697e-14 5.45826011e-14,11.2623883 5.45826011e-14,25.1112916 C5.45826011e-14,31.8158678 2.70782561,38.1196859 7.61115626,42.8637964 C8.2237398,43.4431342 9.18216327,43.4431342 9.79474681,42.8637964 C10.0842246,42.5896874 10.248208,42.2085748 10.248208,41.8099106 C10.248208,41.4112465 10.0842246,41.0301339 9.79474681,40.7560249 C5.46547523,36.5816409 3.08258869,31.0176009 3.08258869,25.1112916 C3.08258869,12.9087462 13.3571622,2.98510692 25.9907934,2.98510697 C38.6255077,2.98510697 48.8989981,12.9087463 48.8989981,25.1112916 C48.8989981,25.93772 49.5922015,26.6005957 50.4478743,26.6005957 C51.3035472,26.6005957 51.9902518,25.9312213 51.9902518,25.1112916 C51.9902518,11.2623883 40.3292716,-2.51919697e-14 25.9983753,-2.51919697e-14 Z" id="形状" fill="#0066B3"></path>
                        <path d="M33.2444758,16.6238306 C33.1649778,16.0231108 32.8041192,15.6910546 32.1673559,15.6163419 C31.5251369,15.6163419 31.0473695,15.8789682 30.7285982,16.401202 L26.0421136,22.4189658 L21.5793146,16.4004473 C21.2605432,15.8797228 20.7773201,15.6155872 20.1405568,15.6155872 C19.4983378,15.6910545 19.1429349,16.0283935 19.063437,16.6238306 C19.142935,16.9264545 19.2598438,17.2245504 19.4242955,17.5218916 C19.5037935,17.5973589 19.54666,17.6713169 19.5466601,17.7452749 L23.4101066,23.0883609 L20.5279147,23.0883609 C19.6472016,23.0883609 19.2068451,23.4264545 19.2068451,24.0966043 C19.2863431,24.6226115 19.7266996,24.9207074 20.5279147,24.9946654 L24.7264998,24.9946654 L24.7264998,27.0096427 L20.5279147,27.0096427 C19.6472016,27.0096427 19.2068451,27.3477363 19.2068451,28.0178861 C19.2863431,28.5386106 19.7266996,28.8419892 20.5279147,28.9159471 L24.7264998,28.9159471 L24.7264998,33.4032338 C24.7264998,34.1480962 25.1614005,34.5246781 26.0475693,34.5246781 C26.923606,34.5246781 27.3639625,34.1473415 27.3639626,33.4032338 L27.3639626,28.9257579 L31.5617683,28.9257579 C32.358307,28.8517999 32.7986635,28.5484213 32.8836172,28.0276968 C32.8836172,27.353019 32.4432607,27.0202081 31.5617683,27.0202081 L27.364742,27.0202081 L27.364742,25.0052308 L31.5625477,25.0052308 C32.3590863,24.9297635 32.7994429,24.6324222 32.8843966,24.1071697 C32.8843966,23.4317372 32.4440401,23.0989264 31.5625477,23.0989264 L28.6865909,23.0989264 L32.7729436,17.7505576 C32.7674878,17.6713169 32.8041192,17.5966043 32.8843966,17.5226463 C33.1283464,17.0705971 33.2452552,16.7777839 33.2452552,16.6245853 L33.2444758,16.6238306 Z" id="路径" fill="#EF3535"></path>
                    </g>
                </g>
            </g>
        </g>
    </g>
</svg>