<?xml version="1.0" encoding="UTF-8"?>
<svg width="16px" height="16px" viewBox="0 0 16 16" version="1.1" xmlns="http://www.w3.org/2000/svg" xmlns:xlink="http://www.w3.org/1999/xlink">
    <g id="图标" stroke="none" stroke-width="1" fill="none" fill-rule="evenodd">
        <g id="10.5”-iPad-Air" transform="translate(-698.000000, -132.000000)" fill="#000000" fill-rule="nonzero">
            <g id="github" transform="translate(698.000000, 132.000000)">
                <rect id="矩形" opacity="0" x="0" y="0" width="15.9843902" height="15.9843902"></rect>
                <path d="M0,8.19499707 C0,9.92264325 0.49684813,11.4757932 1.49054439,12.8544468 C2.48424065,14.2331005 3.77198309,15.1983246 5.35377171,15.750119 C5.41637724,15.7604423 5.46849301,15.7656039 5.51011902,15.7656039 C5.55174504,15.7656039 5.58554537,15.7577782 5.61152,15.7421268 C5.63749463,15.7264754 5.65830764,15.7108241 5.67395902,15.6951727 C5.68961041,15.6795213 5.70010016,15.6535467 5.70542829,15.6172488 C5.71075642,15.5809509 5.71342049,15.5549763 5.71342049,15.5393249 L5.71342049,13.9703571 C5.32846309,14.0119831 4.9849652,14.009319 4.68292683,13.9623649 C4.38088846,13.9154107 4.14411967,13.842482 3.97262049,13.7435785 C3.8011213,13.6446751 3.65026862,13.5224611 3.52006244,13.3769366 C3.38985626,13.231412 3.3014426,13.0987083 3.25482146,12.9788254 C3.20820033,12.8589424 3.16141268,12.7340644 3.11445854,12.6041912 C3.06750439,12.474318 3.03886569,12.3988917 3.02854244,12.3779122 C2.93496715,12.2217314 2.79443772,12.0787044 2.60695415,11.9488312 C2.41947057,11.818958 2.27894114,11.714893 2.18536585,11.6366361 C2.09179057,11.5583792 2.08130081,11.4829528 2.15389659,11.4103571 C2.67438829,11.1396215 3.26231415,11.4831193 3.91767415,12.4408507 C4.27166179,12.9716657 4.89089041,13.1278465 5.77536,12.9093932 C5.87959154,12.4828098 6.08772163,12.1184989 6.39975024,11.8164605 C5.19259577,11.5980072 4.29763642,11.1504442 3.7148722,10.4737717 C3.13210797,9.79709919 2.84072585,8.97490211 2.84072585,8.00718049 C2.84072585,7.10173138 3.12694634,6.3159987 3.69938732,5.64998244 C3.47027772,4.97364293 3.50158049,4.26083902 3.79329561,3.51157073 C4.09500098,3.49059122 4.43317073,3.55036618 4.80780488,3.69089561 C5.18243902,3.83142504 5.44518244,3.95114146 5.59603512,4.05004488 C5.7468878,4.14894829 5.87959154,4.24002602 5.99414634,4.32327805 C6.58723382,4.15677398 7.25591415,4.07352195 8.00018732,4.07352195 C8.74446049,4.07352195 9.41830244,4.15677398 10.0217132,4.32327805 C10.1569145,4.22970276 10.3077672,4.13079935 10.4742712,4.0265678 C10.6407753,3.92233626 10.895693,3.81044553 11.2390244,3.69089561 C11.5823558,3.57134569 11.8997125,3.52189398 12.1910946,3.54254049 C12.4721535,4.28148553 12.5086179,4.98396618 12.3004878,5.64998244 C12.883252,6.3159987 13.1746341,7.10173138 13.1746341,8.00718049 C13.1746341,8.97490211 12.8780904,9.79959675 12.2850029,10.4812644 C11.6919154,11.162932 10.7969561,11.6078309 9.60012488,11.815961 C10.0476878,12.2635239 10.2714693,12.8046621 10.2714693,13.4393756 L10.2714693,15.4529093 C10.2714693,15.4632325 10.2766309,15.4788839 10.2869541,15.4998634 C10.2869541,15.5624689 10.2896182,15.6092566 10.2949463,15.6402263 C10.3002745,15.6711961 10.3237515,15.7024989 10.3653776,15.7341346 C10.4070036,15.7657704 10.4694426,15.7814218 10.5526946,15.781094 C12.1448065,15.2399506 13.4482003,14.2747265 14.4628761,12.8854166 C15.4775519,11.4961067 15.9848898,9.93246699 15.9848898,8.19449756 C15.9848898,7.11222114 15.7740956,6.07673236 15.3525073,5.08803122 C14.930919,4.09933008 14.3638062,3.24866081 13.6511688,2.53602341 C12.9385314,1.82338602 12.0878621,1.25627317 11.099161,0.834684878 C10.1104598,0.413096585 9.07497106,0.202302439 7.99269463,0.202302439 C6.91041821,0.202302439 5.87492943,0.413096585 4.88622829,0.834684878 C3.89752715,1.25627317 3.04685789,1.82338602 2.33422049,2.53602341 C1.62158309,3.24866081 1.05447024,4.09933008 0.632881951,5.08803122 C0.211293659,6.07673236 0.000499512195,7.11222114 0.000499512195,8.19449756 L0,8.19499707 Z" id="路径"></path>
            </g>
        </g>
    </g>
</svg>