<?xml version="1.0" encoding="UTF-8"?>
<svg width="53px" height="46px" viewBox="0 0 53 46" version="1.1" xmlns="http://www.w3.org/2000/svg" xmlns:xlink="http://www.w3.org/1999/xlink">
    <!-- Generator: Sketch 61 (89581) - https://sketch.com -->
    <title>编组 5</title>
    <desc>Created with Sketch.</desc>
    <g id="高保真" stroke="none" stroke-width="1" fill="none" fill-rule="evenodd">
        <g id="首页2" transform="translate(-220.000000, -376.000000)" fill-rule="nonzero">
            <g id="custom" transform="translate(0.000000, 339.000000)">
                <g id="黄金" transform="translate(219.250000, 33.000000)">
                    <g id="编组-5" transform="translate(0.750000, 4.489860)">
                        <path d="M26.1625,45.459661 C11.736348,45.459661 9.28550166e-14,33.670091 9.28550166e-14,19.179953 C9.28550166e-14,13.412841 2.464059,9.214582 6.9368,7.359287 C10.906623,5.712096 13.669981,6.479031 15.633514,7.329387 C16.1473298,7.55018892 16.5043188,8.02833578 16.5700066,8.58371428 C16.6356944,9.13909278 16.4001016,9.68732771 15.9519736,10.0219043 C15.5038456,10.3564809 14.9112638,10.4265689 14.397448,10.205767 C12.591787,9.422985 10.834265,9.130862 8.127119,10.253906 C4.804033,11.633193 3.118869,14.63605 3.118869,19.179953 C3.118869,31.942768 13.456196,42.325842 26.162799,42.325842 C38.869402,42.325842 49.206729,31.942768 49.206729,19.179953 C49.20643,15.170961 47.7802,12.420161 44.5809,10.259587 C42.344679,8.749637 40.6341,9.093487 38.07466,10.310716 C37.2954418,10.6658534 36.3754897,10.3287619 36.0102006,9.55425085 C35.6449115,8.77973977 35.9699532,7.8554614 36.739625,7.480083 C39.577135,6.1295 42.701685,5.216952 46.320482,7.659483 C50.360869,10.386961 52.325,14.154361 52.325,19.179953 C52.325,33.670091 40.588652,45.459661 26.1625,45.459661 Z" id="路径" fill="#0066B3"></path>
                        <path d="M42.561155,13.823667 C42.1512975,13.070462 41.2090096,12.7912805 40.454999,13.199654 C40.109056,13.387127 39.761319,13.564434 39.413582,13.737854 C39.41717,13.609882 39.420758,13.48191 39.420758,13.353938 C39.420758,5.97876169 33.4419963,6.87127123e-14 26.06682,6.87127123e-14 C18.6916437,6.87127123e-14 12.712882,5.97876169 12.712882,13.353938 C12.712882,13.579085 12.71946,13.804232 12.730822,14.02908 C11.802128,13.582673 11.282466,13.263341 11.260639,13.249886 C10.5359143,12.8036642 9.58704271,13.0240127 9.13312317,13.743941 C8.67920364,14.4638694 8.88942779,15.4150352 9.604478,15.876601 C10.008726,16.132246 16.513471,20.134361 25.828218,20.134361 C30.606238,20.134361 36.123984,19.080984 41.936843,15.928328 C42.2987681,15.7320616 42.5678844,15.4000376 42.6849704,15.005321 C42.8020563,14.6106045 42.7575175,14.18554 42.561155,13.823667 L42.561155,13.823667 Z M20.038681,16.430349 C18.6725203,16.1631487 17.3257204,15.8050475 16.007264,15.358434 C16.003676,15.334215 16.00547,15.310295 16.000985,15.285777 C15.2351254,11.276296 16.9218828,7.19465515 20.2947985,4.89554255 C23.6677142,2.59642996 28.0834641,2.51836073 31.5355418,4.69680934 C34.9876196,6.87525795 36.8176022,10.8947238 36.19395,14.928771 C36.185684,14.9982202 36.1819884,15.0681374 36.182887,15.138071 C31.0278499,17.0684237 25.4351447,17.516097 20.038681,16.430349 L20.038681,16.430349 Z" id="形状" fill="#EF3535"></path>
                    </g>
                </g>
            </g>
        </g>
    </g>
</svg>