<?xml version="1.0" encoding="UTF-8"?>
<svg width="66px" height="66px" viewBox="0 0 66 66" version="1.1" xmlns="http://www.w3.org/2000/svg" xmlns:xlink="http://www.w3.org/1999/xlink">
    <!-- Generator: Sketch 61 (89581) - https://sketch.com -->
    <title>去哪儿</title>
    <desc>Created with Sketch.</desc>
    <g id="调整" stroke="none" stroke-width="1" fill="none" fill-rule="evenodd">
        <g id="收支详情" transform="translate(-24.000000, -646.000000)" fill="#1296DB" fill-rule="nonzero">
            <g id="账单备份-2" transform="translate(24.000000, 630.000000)">
                <g id="去哪儿" transform="translate(0.000000, 16.000000)">
                    <path d="M58.5935625,0 L7.4146875,0 C3.33196875,0 0,3.33196875 0,7.4146875 L0,58.587375 C0,62.6700937 3.33196875,66 7.4146875,66 L58.5863438,66 C62.6690625,66 66.0000153,62.6700937 66.0000153,58.5884063 L66.0000153,7.4146875 C66.00825,3.33196875 62.6762813,0 58.5935625,0 Z M54.6139687,50.4714375 L52.0337812,50.4714375 L53.3249063,49.1813438 L53.538375,45.098625 L52.8897188,41.8708125 L51.385125,39.0781875 L47.8922812,35.3698125 C47.515875,34.9944375 46.8672187,35.10375 46.65375,35.5832812 L45.799875,39.4525313 L45.799875,41.6563125 C45.799875,42.0327188 45.6369375,42.3575625 45.370875,42.623625 L43.2196875,44.6139375 L40.8529687,48.4821563 L40.742625,48.9689063 C40.6920937,49.4566875 40.2569063,49.77225 39.777375,49.77225 L37.7870625,49.77225 L39.7247812,48.0552188 L42.5184375,43.3228125 L43.3805625,39.8815313 L43.3805625,36.01125 L43.1670937,33.2175937 L43.2774375,32.142 C43.3056935,31.8110637 43.1941209,31.4834104 42.9697742,31.2384905 C42.7454276,30.9935705 42.4287956,30.8537516 42.0966562,30.8529375 L39.1947187,30.8529375 C38.98125,30.8529375 38.8183125,30.9055313 38.6048437,30.96225 L33.7105312,33.2175938 L32.6349375,33.2175938 C31.9336875,33.2175938 31.3448437,33.8074688 31.3448437,34.5087188 L31.3448437,45.5265938 L31.9945312,46.17525 L31.9945312,47.037375 L31.131375,47.466375 L31.131375,49.8310312 L28.7646562,49.8310312 L29.8412812,48.7554375 L29.8412812,46.3887187 L24.4695,40.6405312 C24.2034375,40.31775 24.0415312,39.88875 24.0930937,39.4618125 L24.2034375,38.5996875 C24.255,38.333625 24.31275,38.1119063 24.5262187,37.8984375 L25.76475,36.4464375 L27.0548437,34.7294062 L27.9169687,32.15025 L25.96275,29.7773438 L21.6665625,29.5618125 L19.2998437,28.9152188 L15.8585625,25.686375 L13.707375,23.3196562 L13.2804375,22.2440625 L13.1700937,21.5438438 C13.1239505,21.0210641 12.7920297,20.5668567 12.3079687,20.3640938 C12.197625,20.3125313 12.1460625,20.3125313 12.0419062,20.3125313 L10.2155625,20.3125313 L8.2768125,19.8845625 L7.95403125,19.5081563 C7.62501554,19.0805141 7.52603063,18.5189576 7.689,18.0045938 C7.7983125,17.6807813 8.01178125,17.4673125 8.2768125,17.304375 L9.24309375,16.7660625 C9.24309375,16.7660625 10.6950937,16.6041563 11.446875,16.7155313 C11.5561875,16.7155313 11.7119062,16.7155313 11.8212187,16.6639688 L12.684375,16.1772188 C12.9494062,16.066875 13.2216562,15.9627188 13.4877187,16.0153125 L15.8008125,16.1256563 C16.5020625,16.1772188 17.0393438,16.6639688 17.1424687,17.3641875 L17.4075,19.0296563 L18.4830937,22.03575 L20.6353125,23.9755313 L24.292125,23.9755313 L25.7946562,23.1134063 L29.0235,19.8845625 L33.5414062,19.6710938 L33.9167812,18.7048125 C34.1807812,18.0045938 34.8820312,17.6292188 35.635875,17.7385313 L35.899875,17.7900938 L36.762,16.9279688 L37.351875,15.8008125 C37.4010623,15.699138 37.5050157,15.6354766 37.6179375,15.6378095 C37.94175,15.6378095 38.20575,15.8008125 38.3697188,16.0658438 L38.5326563,16.330875 C38.907,16.92075 39.6587813,17.1342188 40.2486563,16.817625 L41.9646563,15.9039375 C42.2307188,15.7420313 42.5565938,15.7420313 42.879375,15.852375 L43.0423125,15.9039375 C43.3063125,16.0142813 43.5280313,16.22775 43.6321875,16.4938125 L43.8961875,17.1424688 L44.4334688,17.304375 C45.0233438,17.4673125 45.2368125,18.1077188 44.92125,18.5944688 L44.7077813,18.9182813 L45.4090313,21.3355313 C45.5173125,21.7109063 45.783375,22.0347188 46.1082188,22.25025 L48.5254688,23.7012188 C48.741,23.8105313 48.901875,23.96625 49.01325,24.1879688 L51.0540938,27.0909375 C51.2675625,27.4157813 51.4305,27.7911563 51.4305,28.1675625 L52.020375,33.8641875 L53.0959688,35.0439375 C53.2745021,35.2378789 53.3301982,35.5150918 53.2404265,35.7629396 C53.1506549,36.0107873 52.9303521,36.1880321 52.6690313,36.2226563 L52.6690313,37.0847813 L54.7614375,39.7753125 C54.924375,39.9887813 55.0275,40.2610313 55.0275,40.5786563 L54.6139688,50.4714375 L54.6139687,50.4714375 Z" id="形状"></path>
                </g>
            </g>
        </g>
    </g>
</svg>