<svg width="26px" height="17px" viewBox="0 0 26 17" version="1.1" xmlns="http://www.w3.org/2000/svg" xmlns:xlink="http://www.w3.org/1999/xlink">
    <g id="高保真" stroke="none" stroke-width="1" fill="none" fill-rule="evenodd">
        <g id="转账" transform="translate(-359.000000, -302.000000)">
            <g id="编组-2" transform="translate(24.000000, 125.000000)">
                <g id="矩形">
                    <use fill="black" fill-opacity="1" filter="url(#filter-2)" xlink:href="#path-1"></use>
                    <use fill="#FFFFFF" fill-rule="evenodd" xlink:href="#path-1"></use>
                </g>
                <g id="1.通用/2.Icon图标/Line/left备份" opacity="0.437383743" transform="translate(348.000000, 185.000000) rotate(-90.000000) translate(-348.000000, -185.000000) translate(331.000000, 168.000000)" fill="#000000">
                    <g id="minus-square" fill-rule="nonzero" opacity="0">
                        <rect id="矩形" x="0" y="0" width="34" height="34"></rect>
                    </g>
                    <g id="left">
                        <rect id="矩形" fill-rule="nonzero" opacity="0" x="0" y="0" width="34" height="34"></rect>
                        <path d="M24.0390625,7.24824219 L24.0390625,4.68164062 C24.0390625,4.45917969 23.7833984,4.33632813 23.6107422,4.47246094 L8.64277344,16.1632813 C8.09824219,16.5882813 8.09824219,17.4083984 8.64277344,17.8333984 L23.6107422,29.5242188 C23.7867187,29.6603516 24.0390625,29.5375 24.0390625,29.3150391 L24.0390625,26.7484375 C24.0390625,26.5857422 23.9626953,26.4296875 23.8365234,26.3300781 L11.8833984,17 L23.8365234,7.66660156 C23.9626953,7.56699219 24.0390625,7.4109375 24.0390625,7.24824219 Z" id="路径" fill-opacity="0.65"></path>
                    </g>
                </g>
            </g>
        </g>
    </g>
</svg>