<svg width="46px" height="45px" viewBox="0 0 46 45" version="1.1" xmlns="http://www.w3.org/2000/svg" xmlns:xlink="http://www.w3.org/1999/xlink">
    <g id="高保真" stroke="none" stroke-width="1" fill="none" fill-rule="evenodd">
        <g id="转账" transform="translate(-617.000000, -154.000000)" fill-rule="nonzero">
            <g id="编组-2" transform="translate(24.000000, 125.000000)">
                <g id="转账设置备份" transform="translate(549.000000, 28.000000)">
                    <g id="多人" transform="translate(44.000000, 0.000000)">
                        <rect id="矩形" fill="#000000" opacity="0" x="0" y="0" width="46" height="46"></rect>
                        <path d="M18.8626603,4.8918101 C14.9329783,4.8918101 11.0651387,9.04979673 11.0651387,15.0173153 C11.0651387,16.1331706 11.5424008,17.424142 12.3759289,18.8413598 C13.0588843,20.0047273 13.8588024,21.0608532 14.6009114,22.0368872 L15.0687627,22.6613319 C15.7597844,23.5776365 16.2894782,24.6812745 16.2558681,25.9328787 C16.2236025,27.2360674 15.5944232,28.2514687 14.868447,28.9831548 C14.3642969,29.4908554 13.723018,29.8967445 13.1301375,30.2320441 C12.5291906,30.5754886 11.7911148,30.9474404 10.9871634,31.3519719 L10.9468314,31.3750492 C9.2851527,32.213977 7.12201266,33.3053976 4.41304607,34.9479584 C3.56204071,35.4651614 3.26761702,36.2457172 3.26761702,38.6416841 C3.26761702,39.1955393 3.46927707,39.6272206 4.10383402,40.0887666 C4.82712136,40.618187 6.0101936,41.0770181 7.65708393,41.4096027 C10.932043,42.074772 15.1534599,42.0869894 18.8209839,42.0177575 L19.8588609,41.9987526 C23.1163428,41.9430956 26.5741403,41.8847236 29.3382273,41.310506 C30.8668104,40.9955688 31.9356086,40.565245 32.5795764,40.0751917 C33.1240585,39.6638727 33.3418513,39.2471239 33.3445401,38.6308242 C33.3264466,37.845107 33.17878,37.0679298 32.90761,36.331239 C32.5957092,35.4678764 32.2273435,34.9832531 32.0068618,34.8176396 C29.9660622,33.2701029 27.9037522,32.2234794 26.1439322,31.4035565 C25.8387533,31.2596627 25.5255081,31.118484 25.2149516,30.9759477 C24.7242455,30.7560346 24.2375726,30.5279765 23.7535885,30.2944886 C23.13382,29.9890537 22.3204578,29.5655173 21.7437101,28.9831548 C21.0177339,28.2501112 20.3885546,27.2374249 20.356289,25.9342361 C20.322679,24.6812745 20.8537171,23.5776364 21.5407056,22.6599744 L22.0112458,22.0396022 C22.7533547,21.0608532 23.5532729,20.0047273 24.2362282,18.8440748 C25.0697564,17.424142 25.5470185,16.1331706 25.5470185,15.0159578 C25.5470185,11.9833289 24.7914655,9.36473401 23.5707501,7.57420696 C22.3876778,5.83254949 20.8012855,4.8918101 18.8626603,4.8918101 Z M18.8287487,1.87755102 C22.2387292,1.87755102 24.9341415,3.62900001 26.6978375,6.20981532 C28.4312337,8.74490758 29.2897257,12.0839644 29.2897257,15.5614606 C29.2897257,17.7193372 28.4021966,19.7121026 27.4742677,21.2895497 C26.6927875,22.6155198 25.7572838,23.8360727 25.0616528,24.751805 L24.6829064,25.2509489 C24.5945322,25.3627165 24.5187829,25.4821046 24.4531335,25.6091132 L24.5011081,25.6548363 C24.5465576,25.6865885 24.7409808,25.8199475 25.253551,26.0676143 C25.6032602,26.240346 25.9845317,26.4130778 26.43019,26.6150215 L27.4212432,27.0697124 C29.1685268,27.8825676 31.4170183,29.006594 33.6831845,30.7186703 C34.8232114,31.5797888 35.5302047,32.9121093 35.9468258,34.0551869 C36.3773343,35.2427176 36.6159446,36.5521766 36.6122449,37.6749329 C36.6020572,39.7299325 35.6450912,41.298489 34.2235295,42.3742521 C32.892867,43.3776203 31.1847204,43.9402685 29.5068737,44.2857319 C26.5008893,44.9080742 22.8396736,44.9677683 19.858939,45.0160316 L18.8704108,45.0338128 C15.4667427,45.0973171 11.0682339,45.110018 7.48150494,44.3822585 C5.69887162,44.0228241 3.90992591,43.4398545 2.52371389,42.4339461 C1.04660272,41.3645335 0,39.7794659 0,37.6647722 C0,35.4802238 0.136348723,32.391374 3.10950839,30.5980121 C5.79103328,28.977382 7.94231311,27.8952685 9.5166359,27.1040047 L9.52547332,27.0989244 C10.1556526,26.788733 10.7790484,26.4647844 11.3952183,26.1273084 C11.8875887,25.8478894 12.069387,25.7018295 12.1198865,25.6510261 L12.1590236,25.6091132 C12.0938563,25.4826881 12.0169211,25.3627634 11.9292508,25.2509489 L11.5505044,24.751805 C10.8523484,23.8373428 9.91936964,22.6155198 9.13915194,21.2895497 C8.20996064,19.7121026 7.32243143,17.7193372 7.32243143,15.5614606 C7.32243143,8.51248176 12.0567621,1.87755102 18.8287487,1.87755102 Z" id="形状" fill="#0066B3"></path>
                        <path d="M29.1564904,5.41539418 C29.2851744,4.8614702 29.6244323,4.37839695 30.101473,4.07824747 C30.5748244,3.77797261 31.1511552,3.68169262 31.6976748,3.81159104 C33.9151995,4.33846293 35.948147,5.42956433 37.4208642,7.24463151 C38.9052798,9.07386883 39.6721846,11.4544537 39.6721846,14.2730251 C39.6721846,17.6274857 38.831189,19.8689455 37.0933048,22.0743359 C37.0405213,22.1592714 37.0027189,22.2524954 36.9815187,22.3500097 C36.8805891,22.7456056 36.8832736,23.1601926 36.9893178,23.5544723 C37.29348,23.8301461 37.8056164,24.2346394 38.4906313,24.7743932 L39.4967064,25.5756507 C40.7016568,26.5366444 42.1262798,27.7140549 43.2805365,28.888889 C44.7740511,30.4089595 46.0127972,33.0652182 45.9999002,35.9456229 C45.9803012,39.5487052 42.8281927,42.244898 39.6721846,42.244898 C38.9099463,42.2411299 38.2093499,41.8291694 37.840712,41.1679667 C37.4633633,40.4996279 37.4633633,39.6850193 37.840712,39.0166805 C38.2189651,38.3506835 38.9169784,37.9410374 39.6734844,37.9410374 C40.7419517,37.9410374 41.7662246,36.9233632 41.7714239,35.9263 C41.7805228,34.2104238 40.99802,32.6504193 40.2922076,31.9316064 C39.3316269,30.9538661 38.0798823,29.9155807 36.8879303,28.9623162 L36.0911293,28.3298123 C35.2462342,27.6625271 34.4403343,27.0235822 33.9944897,26.5971896 C33.5082964,26.109111 33.1522787,25.5088155 32.9585183,24.8503968 C32.7804404,24.2707089 32.6855522,23.6652571 32.679053,23.0572289 C32.6621551,21.930058 32.9195231,20.4911439 33.7956144,19.3807195 C34.9160752,17.9611283 35.4438097,16.6742212 35.4438097,14.2730251 C35.4438097,12.2711696 34.9108758,10.9108353 34.160869,9.98591113 C33.4004634,9.04810492 32.2579053,8.36407322 30.7357943,8.00080216 C30.1898621,7.87198264 29.7167209,7.52545809 29.4203577,7.04109666 C29.1252943,6.55673523 29.0304061,5.97189455 29.1564904,5.4166824 L29.1564904,5.41539418 Z M37.2137435,23.8338502 L37.1387997,23.7183153 L37.2220708,23.8338502 L37.2137435,23.8338502 Z" id="形状" fill="#EF3535"></path>
                    </g>
                </g>
            </g>
        </g>
    </g>
</svg>