<?xml version="1.0" encoding="UTF-8"?>
<svg width="40px" height="48px" viewBox="0 0 40 48" version="1.1" xmlns="http://www.w3.org/2000/svg" xmlns:xlink="http://www.w3.org/1999/xlink">
    <!-- Generator: Sketch 61 (89581) - https://sketch.com -->
    <title>编组 3</title>
    <desc>Created with Sketch.</desc>
    <g id="高保真" stroke="none" stroke-width="1" fill="none" fill-rule="evenodd">
        <g id="首页2" transform="translate(-643.000000, -375.000000)" fill-rule="nonzero">
            <g id="custom" transform="translate(0.000000, 339.000000)">
                <g id="保险" transform="translate(637.000000, 34.000000)">
                    <g id="编组-3">
                        <rect id="矩形" fill="#000000" opacity="0" x="0" y="0" width="52" height="52"></rect>
                        <path d="M32.0666667,25.6148148 C32.7888889,25.6148148 33.4148148,24.9407408 33.4148148,24.1222222 C33.4148148,23.3037037 32.7888889,22.6296296 32.0666667,22.6296296 L28.0222222,22.6296296 L32.2592592,18.5851852 C32.7888889,18.0074074 32.837037,17.1407408 32.3555556,16.562963 C32.162963,16.2740741 31.8259259,16.0814815 31.4407408,16.0814815 C31.1037037,16.0333333 30.7185185,16.1777777 30.4777778,16.4185185 L26,20.7037037 L21.4740741,16.4185185 C21.2333333,16.1777778 20.8481481,16.0814815 20.5111111,16.0814815 C20.1740741,16.1296296 19.837037,16.2740741 19.5962963,16.562963 C19.1148148,17.1407408 19.162963,18.0555556 19.6925926,18.5851852 L23.9777778,22.6296296 L19.9333333,22.6296296 C19.2111111,22.6296296 18.5851852,23.3037037 18.5851852,24.1222222 C18.5851852,24.9407408 19.2111111,25.6148148 19.9333333,25.6148148 L24.6518519,25.6148148 L24.6518519,27.8296296 L19.9333333,27.8296296 C19.2111111,27.8296296 18.5851852,28.5037037 18.5851852,29.3222222 C18.5851852,30.1407408 19.2111111,30.8148148 19.9333333,30.8148148 L24.6518519,30.8148148 L24.6518519,34.4740741 C24.6518519,35.2925926 25.2777778,35.9666667 26,35.9666667 C26.7222222,35.9666667 27.3481481,35.2925926 27.3481481,34.4740741 L27.3481481,30.8148148 L32.0666667,30.8148148 C32.7888889,30.8148148 33.4148148,30.1407408 33.4148148,29.3222222 C33.4148148,28.5037037 32.7888889,27.8296296 32.0666667,27.8296296 L27.3481481,27.8296296 L27.3481481,25.6148148 L32.0666667,25.6148148 L32.0666667,25.6148148 Z" id="路径" fill="#EF3535"></path>
                        <path d="M26,5.87407407 L42.9,11.8444444 L42.9,26.0481481 C42.9,36.3518519 29.562963,44.1037037 25.9518519,46.0296296 C22.3888889,44.1037037 9.05185186,36.2074074 9.05185186,26 L9.05185186,11.7962963 L26,5.87407407 M26,2.88888889 C25.8555556,2.88888889 25.7111111,2.93703704 25.5185185,2.98518518 L7.12592593,9.43703704 C6.54814814,9.62962965 6.16296296,10.2074074 6.16296296,10.7851852 L6.16296296,26 C6.16296296,38.4703704 21.9555556,47.2333333 25.3259259,48.9185185 C25.5185185,49.0148148 25.7592592,49.062963 25.9518519,49.062963 C26.1444445,49.062963 26.3851852,49.0148148 26.5777778,48.9185185 C29.9481481,47.2333334 45.7888889,38.4703704 45.7888889,26 L45.7888889,10.8333333 C45.7888889,10.2074074 45.4037037,9.67777774 44.8259259,9.48518518 L26.4814815,2.98518518 C26.2888888,2.93703704 26.1444444,2.88888889 26,2.88888889 Z" id="形状" fill="#0066B3"></path>
                    </g>
                </g>
            </g>
        </g>
    </g>
</svg>