<svg xmlns="http://www.w3.org/2000/svg" width="51.99" height="52" viewBox="0 0 51.99 52">
  <g id="组_3" data-name="组 3" transform="translate(-37.498 -40.698)">
    <path id="路径_10" data-name="路径 10" d="M478.861,900.165a2.365,2.365,0,0,1-2.365,2.365h-25.73a2.365,2.365,0,1,1,0-4.731H476.5A2.365,2.365,0,0,1,478.861,900.165Z" transform="translate(-389.418 -809.878)" fill="#0066b3"/>
    <path id="路径_11" data-name="路径 11" d="M746.4,749.7a2.363,2.363,0,0,1-3.346.006l-9.357-9.363a2.361,2.361,0,0,1,0-3.34l.006-.006a2.361,2.361,0,0,1,3.34,0l9.357,9.357A2.368,2.368,0,0,1,746.4,749.7Z" transform="translate(-657.6 -657.695)" fill="#0066b3"/>
    <path id="路径_12" data-name="路径 12" d="M883.466,568.054a2.36,2.36,0,1,0,1.3-3.074A2.36,2.36,0,0,0,883.466,568.054Z" transform="translate(-799.221 -495.229)" fill="#0066b3"/>
    <path id="路径_13" data-name="路径 13" d="M87.533,56.9a25.97,25.97,0,1,0-24.06,35.75V88.1A21.417,21.417,0,1,1,84.38,71.348l4,1.433a.23.23,0,0,1,.133-.2c.077-.033.16-.077.227-.022A25.6,25.6,0,0,0,87.533,56.9Z" fill="#0066b3"/>
    <path id="路径_14" data-name="路径 14" d="M344.711,441.065a2.365,2.365,0,0,1-2.365,2.365h-15.38a2.365,2.365,0,1,1,0-4.731h15.386A2.36,2.36,0,0,1,344.711,441.065Z" transform="translate(-271.618 -376.072)" fill="#ef3535"/>
    <path id="路径_15" data-name="路径 15" d="M335.719,274.013a2.361,2.361,0,0,1-3.34,0l-7.586-7.581a2.362,2.362,0,0,1,3.34-3.34l7.581,7.581A2.366,2.366,0,0,1,335.719,274.013Z" transform="translate(-270.944 -209.59)" fill="#ef3535"/>
    <path id="路径_16" data-name="路径 16" d="M333.154,274.013a2.361,2.361,0,0,1,0-3.34l7.58-7.581a2.362,2.362,0,1,1,3.34,3.34l-7.581,7.581A2.361,2.361,0,0,1,333.154,274.013Zm11.463,8.959a2.365,2.365,0,0,1-2.365,2.365H326.865a2.365,2.365,0,1,1,0-4.731h15.386A2.365,2.365,0,0,1,344.617,282.972Z" transform="translate(-271.528 -209.82)" fill="#ef3535"/>
    <path id="路径_17" data-name="路径 17" d="M460.265,431.717a2.365,2.365,0,0,1-2.365-2.365V413.965a2.365,2.365,0,1,1,4.731,0v15.386A2.369,2.369,0,0,1,460.265,431.717Z" transform="translate(-397.238 -350.898)" fill="#ef3535"/>
  </g>
</svg>
