<svg width="45px" height="45px" viewBox="0 0 45 45" version="1.1" xmlns="http://www.w3.org/2000/svg" xmlns:xlink="http://www.w3.org/1999/xlink">
    <g id="高保真" stroke="none" stroke-width="1" fill="none" fill-rule="evenodd">
        <g id="消息中心" transform="translate(-221.000000, -454.000000)" fill-rule="nonzero">
            <g id="缴费" transform="translate(221.000000, 454.000000)">
                <path d="M44.8099787,43.0441406 C44.8099787,44.105522 43.9505415,44.9696555 42.8844638,44.9696555 L21.9386186,44.9696555 C20.8772372,44.9696555 20.0131037,44.1102184 20.0131037,43.0441406 C20.0131037,41.9827592 20.8725408,41.1186257 21.9386186,41.1186257 L42.8844638,41.1186257 C43.9458452,41.1186257 44.8099787,41.9780629 44.8099787,43.0441406 Z" id="路径" fill="#0066B3"></path>
                <path d="M44.2839844,44.4389648 C43.5278675,45.1950817 42.3115057,45.1950817 41.5600852,44.4436612 L33.9425604,36.82144 C33.1911399,36.0700195 33.1911399,34.8536577 33.9425604,34.1022372 L33.9472567,34.0975408 C34.6986772,33.3461204 35.9150391,33.3461204 36.6664595,34.0975408 L44.2839844,41.7150657 C45.0354048,42.4664862 45.0354048,43.6875444 44.2839844,44.4389648 Z" id="路径" fill="#0066B3"></path>
                <path d="M40.5790012,28.1242633 C40.8372382,28.7601224 41.4151089,29.2098939 42.094905,29.3041298 C42.774701,29.3983658 43.4531281,29.1227472 43.874594,28.5811112 C44.29606,28.0394752 44.3965234,27.3141228 44.1381356,26.678325 C43.8798986,26.042466 43.3020279,25.5926945 42.6222318,25.4984585 C41.9424358,25.4042226 41.2640087,25.6798412 40.8425427,26.2214772 C40.4210768,26.7631132 40.3206133,27.4884656 40.5790012,28.1242633 Z" id="路径" fill="#0066B3"></path>
                <path d="M43.1897283,14.6169656 C38.6060636,3.34096236 25.747381,-2.08805043 14.4666815,2.49091797 C3.19067827,7.07458274 -2.23833452,19.9332653 2.34063388,31.2139648 C5.81595348,39.7707653 14.062793,44.9649592 22.7651811,44.9649592 L22.7651811,41.1045366 C15.5891158,41.0998402 8.78876065,36.82144 5.91927379,29.7627841 C2.13868963,20.4592596 6.61903409,9.85483842 15.9225586,6.07425426 C25.2260831,2.2936701 35.8305043,6.77401456 39.6110884,16.0775391 C41.0575728,19.6420898 41.2970881,23.3944957 40.512793,26.8839045 L43.9082741,28.1002663 C43.9129705,28.0204279 43.9552379,27.9546786 44.0209872,27.9265004 C44.0867365,27.8983221 44.1571822,27.8607511 44.2135387,27.9077148 C45.2326527,23.6105291 44.9790483,19.022168 43.1897283,14.6169656 Z" id="路径" fill="#0066B3"></path>
                <path d="M30.5705611,21.48307 C30.5705611,22.5444513 29.7111239,23.4085849 28.6450462,23.4085849 L16.1245028,23.4085849 C15.0631214,23.4085849 14.1989879,22.5491477 14.1989879,21.48307 C14.1989879,20.4216886 15.0584251,19.557555 16.1245028,19.557555 L28.6497425,19.557555 C29.7111239,19.557555 30.5705611,20.4169922 30.5705611,21.48307 L30.5705611,21.48307 Z" id="路径" fill="#EF3535"></path>
                <path d="M23.634011,20.7316495 C22.8825906,21.48307 21.6662287,21.48307 20.9148082,20.7316495 L14.7390714,14.560609 C13.9876509,13.8091886 13.9876509,12.5928267 14.7390714,11.8414063 C15.4904918,11.0899858 16.7068537,11.0899858 17.4582741,11.8414063 L23.6293146,18.0124467 C24.3807351,18.7638672 24.3807351,19.980229 23.634011,20.7316495 L23.634011,20.7316495 Z" id="路径" fill="#EF3535"></path>
                <path d="M21.2388583,20.7316495 C20.4874379,19.980229 20.4874379,18.7638672 21.2388583,18.0124467 L27.4098988,11.8414063 C28.1613192,11.0899858 29.3776811,11.0899858 30.1291016,11.8414063 C30.880522,12.5928267 30.880522,13.8091886 30.1291016,14.560609 L23.9580611,20.7316495 C23.2066406,21.48307 21.9902788,21.48307 21.2388583,20.7316495 Z M30.5705611,28.0251243 C30.5705611,29.0865057 29.7111239,29.9506392 28.6450462,29.9506392 L16.1198065,29.9506392 C15.0584251,29.9506392 14.1942915,29.0912021 14.1942915,28.0251243 C14.1942915,26.9637429 15.0537287,26.0996094 16.1198065,26.0996094 L28.6450462,26.0996094 C29.7111239,26.0996094 30.5705611,26.9637429 30.5705611,28.0251243 Z" id="形状" fill="#EF3535"></path>
                <path d="M22.3847745,34.6611062 C21.3233931,34.6611062 20.4592596,33.801669 20.4592596,32.7355913 L20.4592596,20.2103516 C20.4592596,19.1489702 21.3186967,18.2848366 22.3847745,18.2848366 C23.4461559,18.2848366 24.3102894,19.1442738 24.3102894,20.2103516 L24.3102894,32.7355913 C24.3102894,33.7969727 23.4461559,34.6611062 22.3847745,34.6611062 Z" id="路径" fill="#EF3535"></path>
            </g>
        </g>
    </g>
</svg>