<?xml version="1.0" standalone="no"?><!DOCTYPE svg PUBLIC "-//W3C//DTD SVG 1.1//EN" "http://www.w3.org/Graphics/SVG/1.1/DTD/svg11.dtd"><svg t="1607520846017" class="icon" viewBox="0 0 1301 1024" version="1.1" xmlns="http://www.w3.org/2000/svg" p-id="7400" xmlns:xlink="http://www.w3.org/1999/xlink" width="162.625" height="128"><defs><style type="text/css"></style></defs><path d="M798.84451 399.752395l168.371407-77.252763L650.847458 180.350774 334.101695 322.499632l314.293294 141.488577 2.358143 0.471629c237.417833 0 430.502579 106.871039 430.502579 238.172439S888.170965 940.710391 650.847458 940.710391 220.061901 833.933677 220.061901 702.632277v-5.565217H0v5.565217c0 177.238025 291.843773 321.367723 650.847458 321.367723s650.847458-144.129698 650.847457-321.367723c0-148.280029-214.496684-266.56448-502.567428-302.879882zM650.847458 380.415623l-128.943258-57.915991L650.847458 264.58364l128.754605 57.915992z" fill="#0066B5" p-id="7401"></path><path d="M650.847458 0C292.409727 0 0 144.129698 0 321.367723c0 148.185704 214.496684 266.56448 502.661754 302.879882l-168.560059 77.252763L650.847458 843.554901l316.462785-142.054533-314.198968-141.488577H650.847458C413.240973 559.445836 220.156227 452.763449 220.156227 321.367723S413.240973 83.195284 650.847458 83.195284s430.502579 106.871039 430.502579 238.172439v5.376566H1301.694915v-5.376566C1301.694915 144.129698 1009.285188 0 650.847458 0z m0 643.490052l128.848931 58.010316L650.847458 759.322034l-128.943258-57.821666z" fill="#009C55" p-id="7402"></path></svg>