<?xml version="1.0" encoding="UTF-8"?>
<svg width="46px" height="46px" viewBox="0 0 46 46" version="1.1" xmlns="http://www.w3.org/2000/svg" xmlns:xlink="http://www.w3.org/1999/xlink">
    <!-- Generator: Sketch 61 (89581) - https://sketch.com -->
    <title>编组 8</title>
    <desc>Created with Sketch.</desc>
    <g id="高保真" stroke="none" stroke-width="1" fill="none" fill-rule="evenodd">
        <g id="首页2" transform="translate(-502.000000, -377.000000)" fill-rule="nonzero">
            <g id="custom" transform="translate(0.000000, 339.000000)">
                <g id="贷款" transform="translate(498.750000, 32.000000)">
                    <g id="编组-8">
                        <rect id="矩形" fill="#000000" opacity="0" x="0" y="0" width="52" height="52"></rect>
                        <path d="M45.5,29 L48.75,29 C48.75,41.553125 38.553125,51.75 26,51.75 C13.446875,51.75 3.25,41.553125 3.25,29 C3.25,16.446875 13.446875,6.25 26,6.25 L26,9.5 C15.234375,9.5 6.5,18.234375 6.5,29 C6.5,39.765625 15.234375,48.5 26,48.5 C36.765625,48.5 45.5,39.765625 45.5,29 Z M45.053125,7.63125 L38.146875,14.5375 L32.58125,8.971875 L32.459375,22.621875 L46.109375,22.5 L40.4625,16.8125 L47.36875,9.90625 L45.053125,7.63125 L45.053125,7.63125 Z" id="形状" fill="#0066B3"></path>
                        <path d="M29.5446751,22.9173343 C29.4651771,22.3166144 29.1043186,21.9845582 28.4675553,21.9098456 C27.8253362,21.9098456 27.3475689,22.1724719 27.0287975,22.6947057 L22.342313,28.7124695 L17.879514,22.693951 C17.5607426,22.1732265 17.0775195,21.9090909 16.4407562,21.9090909 C15.7985371,21.9845582 15.4431343,22.3218971 15.3636364,22.9173343 C15.4431344,23.2199582 15.5600432,23.5180541 15.7244949,23.8153953 C15.8039929,23.8908626 15.8468594,23.9648206 15.8468594,24.0387786 L19.710306,29.3818646 L16.828114,29.3818646 C15.947401,29.3818646 15.5070445,29.7199582 15.5070445,30.390108 C15.5865425,30.9161152 16.026899,31.2142111 16.828114,31.288169 L21.0266992,31.288169 L21.0266992,33.3031464 L16.828114,33.3031464 C15.947401,33.3031464 15.5070445,33.64124 15.5070445,34.3113898 C15.5865425,34.8321143 16.026899,35.1354929 16.828114,35.2094508 L21.0266992,35.2094508 L21.0266992,39.6967375 C21.0266992,40.4415999 21.4615999,40.8181818 22.3477687,40.8181818 C23.2238054,40.8181818 23.6641619,40.4408452 23.664162,39.6967375 L23.664162,35.2192616 L27.8619677,35.2192616 C28.6585063,35.1453036 29.0988629,34.841925 29.1838166,34.3212005 C29.1838166,33.6465227 28.7434601,33.3137118 27.8619677,33.3137118 L23.6649413,33.3137118 L23.6649413,31.2987345 L27.862747,31.2987345 C28.6592857,31.2232672 29.0996422,30.9259259 29.184596,30.4006734 C29.184596,29.7252409 28.7442395,29.3924301 27.862747,29.3924301 L24.9867903,29.3924301 L29.0731429,24.0440613 C29.0676872,23.9648206 29.1043186,23.890108 29.184596,23.81615 C29.4285457,23.3641008 29.5454545,23.0712876 29.5454545,22.9180889 L29.5446751,22.9173343 Z" id="路径备份-2" fill="#EF3535"></path>
                    </g>
                </g>
            </g>
        </g>
    </g>
</svg>