<?xml version="1.0" encoding="UTF-8"?>
<svg width="24px" height="29px" viewBox="0 0 24 29" version="1.1" xmlns="http://www.w3.org/2000/svg" xmlns:xlink="http://www.w3.org/1999/xlink">
    <g id="低保真" stroke="none" stroke-width="1" fill="none" fill-rule="evenodd">
        <g id="生活" transform="translate(-20.000000, -39.000000)" fill="#000000" fill-rule="nonzero">
            <g id="定位" transform="translate(20.000000, 39.000000)">
                <g id="编组-2">
                    <path d="M11.9926211,8.87264693 C13.4742046,8.87480653 14.7483456,9.92231843 15.0369762,11.3755116 C15.3256068,12.8287047 14.5484953,14.2836295 13.1801931,14.8518205 C11.8118909,15.4200116 10.2327502,14.9435267 9.40709017,13.7133364 C8.58143011,12.4831462 8.73876252,10.8412112 9.78301068,9.79019671 C10.3676275,9.20179175 11.1631643,8.87144303 11.9926211,8.87264693 M11.9926211,7.00005272 C9.60759903,7.00372309 7.55720122,8.6914531 7.09519346,11.0312927 C6.63318569,13.3711322 7.8882198,15.7115238 10.0928745,16.6213777 C12.2975292,17.5312317 14.8378909,16.7571878 16.1605934,14.7725542 C17.4832958,12.7879206 17.220016,10.1453432 15.5317428,8.46069059 C14.5949174,7.52000367 13.3202138,6.99393758 11.9926211,7.00005272 L11.9926211,7.00005272 Z" id="形状"></path>
                    <path d="M20.4886194,3.52063692 C18.2641273,1.27057517 15.2006393,0 12,0 C8.79936075,0 5.73587273,1.27057517 3.51138062,3.52063692 C-1.17046021,8.25512176 -1.17046021,15.7663535 3.51138062,20.5008383 L12,29 L20.4886194,20.5008383 C25.1704602,15.7663535 25.1704602,8.25512176 20.4886194,3.52063692 Z M19.2097663,19.3047943 L12,26.5535462 L4.79023375,19.3047943 C0.809612929,15.2910944 0.809612929,8.91159966 4.79023375,4.8978998 C6.68210298,2.99133389 9.28312383,1.91533223 12,1.91533223 C14.7168762,1.91533223 17.317897,2.99133389 19.2097663,4.8978998 C23.1903871,8.91159966 23.1903871,15.2910944 19.2097663,19.3047943 L19.2097663,19.3047943 Z" id="形状"></path>
                </g>
            </g>
        </g>
    </g>
</svg>