<svg width="33px" height="26px" viewBox="0 0 33 26" version="1.1" xmlns="http://www.w3.org/2000/svg" xmlns:xlink="http://www.w3.org/1999/xlink">
    <g id="高保真" stroke="none" stroke-width="1" fill="none" fill-rule="evenodd">
        <g id="登录" transform="translate(-46.000000, -641.000000)" fill="#000000" fill-rule="nonzero">
            <g id="密码" transform="translate(42.000000, 607.000000)">
                <g id="password" transform="translate(0.000000, 15.000000)">
                    <path d="M32.05,19 C34.7712109,19 37,21.1929599 37,23.8829138 L37,40.1170862 C37,42.8086899 34.7712109,45 32.05,45 L8.95,45 C6.23046484,45 4,42.8086899 4,40.1170862 L4,23.8829138 C4,21.1929599 6.22878906,19 8.95,19 L32.05,19 Z M20.5,27.131728 C18.6858594,27.131728 17.2,28.5806406 17.2,30.3755929 C17.2,31.5906502 17.8617187,32.6221704 18.8517187,33.1727819 L18.8517187,36.8699218 C18.8517187,37.7665731 19.5929297,38.5073209 20.5017188,38.5073209 C21.4105078,38.5073209 22.1517188,37.7665731 22.1517188,36.8699218 L22.1517188,33.1727819 C23.14,32.6221704 23.8,31.5906502 23.8,30.3755929 C23.8,28.5806406 22.3141406,27.131728 20.5,27.131728 Z" id="形状结合"></path>
                </g>
            </g>
        </g>
    </g>
</svg>