<?xml version="1.0" encoding="UTF-8"?>
<svg width="37px" height="43px" viewBox="0 0 37 43" version="1.1" xmlns="http://www.w3.org/2000/svg" xmlns:xlink="http://www.w3.org/1999/xlink">
    <g id="高保真" stroke="none" stroke-width="1" fill="none" fill-rule="evenodd">
        <g id="登录" transform="translate(-45.000000, -624.000000)" fill="#000000" fill-rule="nonzero">
            <g id="密码" transform="translate(42.000000, 607.000000)">
                <g id="lock" transform="translate(0.000000, 17.000000)">
                    <rect id="矩形" opacity="0" x="0" y="0" width="43" height="43"></rect>
                    <path d="M36.4884814,42.3545801 L6.51160254,42.3545801 C4.80432617,42.3545801 3.47594531,41.0263252 3.47594531,39.5086436 L3.47594531,18.6387783 C3.47594531,17.1210127 4.8042002,15.7928418 6.51160254,15.7928418 L36.4884814,15.7928418 C38.1957578,15.7928418 39.5241387,17.1210967 39.5241387,18.6387783 L39.5241387,39.5086436 C39.5241387,41.0264092 38.1958838,42.3545801 36.4884814,42.3545801 L36.4884814,42.3545801 Z M21.5,22.8126338 C19.0337148,22.8126338 16.9467031,24.7101348 16.9467031,26.9867412 C16.9467031,28.5045068 17.8951387,29.8326777 19.2234355,30.5917285 L19.2234355,34.5762412 C19.2234355,35.7145654 20.1718711,36.663085 21.500168,36.663085 C22.8284648,36.663085 23.7769004,35.7146494 23.7769004,34.5762412 L23.7769004,30.5917285 C25.1051553,29.8328877 26.0536328,28.5048848 26.0536328,26.9867412 C26.0536328,24.7100088 23.9667891,22.8126338 21.5003359,22.8126338 L21.5,22.8126338 Z M21.5,4.78841113 C16.5671357,4.78841113 12.3932803,8.58265723 12.3932803,13.136332 L7.8399834,13.136332 C7.8399834,6.30609277 13.9112979,0.614177734 21.3106572,0.614177734 C28.7100166,0.614177734 34.7813311,6.30605078 34.7813311,13.136332 L30.2280342,13.136332 C30.6076855,8.39327246 26.4337881,4.78841113 21.5005459,4.78841113 L21.5,4.78841113 Z" id="形状"></path>
                </g>
            </g>
        </g>
    </g>
</svg>

