<svg width="35px" height="35px" viewBox="0 0 35 35" version="1.1" xmlns="http://www.w3.org/2000/svg" xmlns:xlink="http://www.w3.org/1999/xlink">
    <g id="高保真" stroke="none" stroke-width="1" fill="none" fill-rule="evenodd">
        <g id="首页2" transform="translate(-34.000000, -26.000000)" fill="#FFFFFF" fill-rule="nonzero">
            <g id="顶部" transform="translate(34.000000, 14.000000)">
                <g id="登录" transform="translate(0.000000, 12.000000)">
                    <path d="M10,4.4408921e-16 C9.30964406,4.4408921e-16 8.75,0.559644063 8.75,1.25 C8.75,1.94035594 9.30964406,2.5 10,2.5 L10,4.4408921e-16 Z M28.8554688,1.25 L28.8554688,5.55111512e-16 L28.8554688,1.25 Z M33.75,6.35546875 L32.5,6.35546875 L33.75,6.35546875 Z M33.75,28.8554688 L35,28.8554688 L33.75,28.8554688 Z M28.8554688,33.75 L28.8554688,35 L28.8554688,33.75 Z M10,32.5 C9.30964406,32.5 8.75,33.0596441 8.75,33.75 C8.75,34.4403559 9.30964406,35 10,35 L10,32.5 Z M1.25,16.25 C0.559644063,16.25 0,16.8096441 0,17.5 C0,18.1903559 0.559644063,18.75 1.25,18.75 L1.25,16.25 Z M23.75,18.75 C24.4403559,18.75 25,18.1903559 25,17.5 C25,16.8096441 24.4403559,16.25 23.75,16.25 L23.75,18.75 Z M19.63375,9.11625 C19.3199069,8.79130427 18.8551526,8.66098425 18.4181158,8.77537855 C17.9810791,8.88977286 17.6397729,9.23107906 17.5253786,9.66811585 C17.4109843,10.1051526 17.5413043,10.5699069 17.86625,10.88375 L19.63375,9.11625 Z M26.25,17.5 L27.13375,18.38375 C27.6217274,17.8956252 27.6217274,17.1043748 27.13375,16.61625 L26.25,17.5 Z M17.86625,24.11625 C17.3925347,24.6067236 17.3993095,25.386356 17.8814768,25.8685232 C18.363644,26.3506905 19.1432764,26.3574653 19.63375,25.88375 L17.86625,24.11625 Z M10,2.5 L28.75,2.5 L28.75,4.4408921e-16 L10,4.4408921e-16 L10,2.5 Z M32.5,6.25 L32.5,28.75 L35,28.75 L35,6.25 L32.5,6.25 Z M28.75,32.5 L10,32.5 L10,35 L28.75,35 L28.75,32.5 Z M32.5,28.75 C32.5,30.8210678 30.8210678,32.5 28.75,32.5 L28.75,35 C32.2017797,35 35,32.2017797 35,28.75 L32.5,28.75 Z M28.75,2.5 C30.8210678,2.5 32.5,4.17893219 32.5,6.25 L35,6.25 C35,2.79822031 32.2017797,0 28.75,0 L28.75,2.5 Z M1.25,18.75 L23.75,18.75 L23.75,16.25 L1.25,16.25 L1.25,18.75 Z M17.86625,10.88375 L25.36625,18.38375 L27.13375,16.61625 L19.63375,9.11625 L17.86625,10.88375 Z M25.36625,16.61625 L17.86625,24.11625 L19.63375,25.88375 L27.13375,18.38375 L25.36625,16.61625 Z" id="形状"></path>
                </g>
            </g>
        </g>
    </g>
</svg>