<?xml version="1.0" encoding="UTF-8"?>
<svg width="30px" height="32px" viewBox="0 0 30 32" version="1.1" xmlns="http://www.w3.org/2000/svg" xmlns:xlink="http://www.w3.org/1999/xlink">
    <g id="高保真" stroke="none" stroke-width="1" fill="none" fill-rule="evenodd">
        <g id="基金详情页" transform="translate(-29.000000, -1246.000000)" fill-rule="nonzero">
            <g id="基金档案" transform="translate(26.000000, 1109.000000)">
                <g id="图表描述" transform="translate(3.000000, 67.000000)">
                    <g id="safe" transform="translate(0.000000, 70.000000)">
                        <path d="M15.095625,0.266555912 C14.97075,0.245243904 14.843625,0.24412222 14.71875,0.265434228 C11.353875,0.82851991 0.375,2.99000618 0.375,7.16603805 C0.375,20.6890679 11.344875,31.75 14.9055,31.75 C18.40425,31.75 29.625,20.4108901 29.625,7.16603805 C29.623875,3.19190942 19.464,1.01696293 15.095625,0.266555912 Z M14.8996023,30.0077171 C12.7286023,29.8029554 1.998875,19.7847562 1.998875,6.83706851 C1.998875,5.43863912 8.121875,3.1525212 14.8972386,2.00771711 C21.7789659,3.19905795 27.998875,5.48633929 27.998875,6.83706851 C27.998875,19.759161 17.1036932,29.7959749 14.8996023,30.0077171 Z" id="形状" fill="#0066B3"></path>
                        <path d="M21.95025,10.5221184 L13.74675,18.7878125 L10.116375,15.0683062 C9.681,14.6229974 8.97,14.6151457 8.525625,15.0458725 C8.080125,15.4777211 8.07,16.1888692 8.503125,16.6319346 L12.933375,21.1713923 C12.935625,21.1747573 12.940125,21.1747573 12.942375,21.1781224 C12.944625,21.1803658 12.94575,21.1848525 12.948,21.1870959 C13.021125,21.2588837 13.11,21.3015077 13.194375,21.3497401 C13.236,21.3732955 13.270875,21.4103111 13.313625,21.4271364 C13.44975,21.4832206 13.59375,21.5112627 13.738875,21.5112627 C13.88175,21.5112627 14.024625,21.4832206 14.159625,21.4293798 C14.2035,21.4114328 14.23725,21.3755389 14.278875,21.3531052 C14.36325,21.3059944 14.451,21.2644921 14.523,21.193826 C14.52525,21.1915826 14.526375,21.1870959 14.52975,21.1848525 C14.532,21.1814875 14.535375,21.1803658 14.53875,21.1781224 L23.548875,12.099207 C23.9865,11.658385 23.982,10.9494803 23.539875,10.513145 C23.1,10.0779313 22.385625,10.0812964 21.95025,10.5221184 Z" id="路径" fill="#EF3535"></path>
                    </g>
                </g>
            </g>
        </g>
    </g>
</svg>