<?xml version="1.0" encoding="UTF-8"?>
<svg width="16px" height="16px" viewBox="0 0 16 16" version="1.1" xmlns="http://www.w3.org/2000/svg" xmlns:xlink="http://www.w3.org/1999/xlink">
    <g id="需求文档" stroke="none" stroke-width="1" fill="none" fill-rule="evenodd">
        <g id="A2" transform="translate(-1947.000000, -2253.000000)" fill-rule="nonzero">
            <g id="pre_icon_银行经理" transform="translate(1947.000000, 2253.000000)">
                <rect id="矩形" fill="#000000" opacity="0" x="0" y="0" width="16" height="16"></rect>
                <path d="M5.80392156,4.86274509 C5.80392156,5.92753667 6.37198107,6.91144467 7.29411762,7.44384047 C8.21625417,7.97623626 9.35237326,7.97623626 10.2745098,7.44384047 C11.1966464,6.91144467 11.7647059,5.92753667 11.7647059,4.86274509 C11.7647059,3.79795352 11.1966464,2.81404553 10.2745098,2.28164974 C9.35237326,1.74925395 8.21625418,1.74925395 7.29411763,2.28164974 C6.37198108,2.81404553 5.80392156,3.79795352 5.80392156,4.86274509 Z" id="路径" fill="#0099FF" opacity="0.2"></path>
                <path d="M3.60784314,15.8431372 C3.60784314,12.6378039 6.20643137,10.0392157 9.4117647,10.0392157 C12.617098,10.0392157 15.2156863,12.6378039 15.2156863,15.8431372" id="路径" fill="#0099FF" opacity="0.2"></path>
                <path d="M15.8431372,16 L0.15686275,16 C0.15686275,12.2999216 2.72219608,9.20658823 6.16878431,8.38054902 C4.6585098,7.68596078 3.60784314,6.16345098 3.60784314,4.39215686 C3.60784314,1.96643138 5.57427452,0 8,0 C10.4257255,0 12.3921569,1.96643137 12.3921569,4.39215686 C12.3921569,6.16345098 11.3414902,7.68596078 9.83121569,8.38054902 C13.2778039,9.20658823 15.8431372,12.2999216 15.8431372,16 Z M11.4509804,4.39215686 C11.4509804,2.4862745 9.90588234,0.941176469 8,0.941176469 C6.09411766,0.941176469 4.54901961,2.48627452 4.54901961,4.39215686 C4.54901961,6.29772548 6.0934902,7.8425098 7.99874509,7.84313725 L8.00125491,7.84313725 C9.9065098,7.8425098 11.4509804,6.29772548 11.4509804,4.39215686 Z M9.66870588,9.32486275 L9.88235294,9.7254902 L8.56470587,13.8039216 L7.43529412,13.8039216 L6.11764706,9.7254902 L6.33098039,9.3254902 C3.66556863,10.0439216 1.63670588,12.4109804 1.09803922,15.0588235 L14.9019608,15.0588235 C14.5123137,12.4367059 12.3777255,10.0464314 9.66870587,9.32486275 L9.66870588,9.32486275 Z" id="形状" fill="#0066B3"></path>
            </g>
        </g>
    </g>
</svg>