<?xml version="1.0" encoding="UTF-8"?>
<svg width="64px" height="64px" viewBox="0 0 64 64" version="1.1" xmlns="http://www.w3.org/2000/svg" xmlns:xlink="http://www.w3.org/1999/xlink">
    <!-- Generator: Sketch 61 (89581) - https://sketch.com -->
    <title>形状</title>
    <desc>Created with Sketch.</desc>
    <g id="调整" stroke="none" stroke-width="1" fill="none" fill-rule="evenodd">
        <g id="转账" transform="translate(-51.000000, -1386.000000)" fill="#C7162E" fill-rule="nonzero">
            <g id="编组-3" transform="translate(-1.000000, 946.000000)">
                <g id="招商银行" transform="translate(52.000000, 440.000000)">
                    <path d="M20.1994105,22.8279281 L11.0597236,45.1640087 L47.3969329,45.1640087 L38.2720152,22.7319278 L29.2283282,44.868623 L20.2043336,22.8279281 L20.1994105,22.8279281 Z M55.7809279,39.8175279 L63.0350775,39.8175279 C62.899693,40.3615298 62.7495392,40.9006087 62.5846162,41.437226 L56.4283122,41.437226 L55.7809279,39.8175279 Z M54.5600056,36.7775169 L63.6430771,36.7775169 C63.5643079,37.3190573 63.468308,37.8556747 63.3600004,38.392292 L55.2073898,38.392292 L54.5600056,36.7775169 L54.5600056,36.7775169 Z M53.3366217,33.7375059 L63.9532308,33.7375059 C63.9236924,34.2765848 63.8793847,34.8156637 63.8301539,35.352281 L53.988929,35.352281 L53.3366217,33.7375059 Z M52.1156993,30.6925719 L63.9729231,30.6925719 C63.9926154,31.1282658 64,31.5639597 64,32.0021151 L64,32.3098085 L52.760622,32.3098085 L52.1132378,30.6925719 L52.1156993,30.6925719 L52.1156993,30.6925719 Z M50.8972385,27.6550225 L63.7070771,27.6550225 C63.7809232,28.1867167 63.8400001,28.7257956 63.8843078,29.2697976 L51.5446227,29.2697976 L50.8972385,27.6500994 L50.8972385,27.6550225 Z M49.6763161,24.6100884 L63.1409236,24.6100884 C63.2689235,25.1467058 63.3796927,25.6857846 63.4806157,26.2297866 L50.3212388,26.2297866 L49.6713931,24.6100884 L49.6763161,24.6100884 L49.6763161,24.6100884 Z M1.88825046e-05,32.0021151 C-0.0171929333,16.0562114 11.7341847,2.53493188 27.5446369,0.314616188 C43.3526276,-1.90816108 58.380311,7.84941262 62.7692315,23.182391 L49.1052395,23.182391 L41.1298596,3.32508855 L32.1870957,25.5405533 L23.0646396,3.52447389 L6.1538803,45.1615471 L13.0560301,54.8674283 L51.2393922,54.8674283 L57.8436959,44.9646234 L56.9993888,42.8600004 L62.1070781,42.8600004 C56.8270826,57.4850255 41.7995712,66.1991911 26.4837145,63.5173057 C11.1683836,60.8472522 -0.00716460691,47.5485122 1.88825046e-05,32.0021151 Z" id="形状"></path>
                </g>
            </g>
        </g>
    </g>
</svg>