<?xml version="1.0" encoding="UTF-8"?>
<svg width="42px" height="33px" viewBox="0 0 42 33" version="1.1" xmlns="http://www.w3.org/2000/svg" xmlns:xlink="http://www.w3.org/1999/xlink">
    <!-- Generator: Sketch 61 (89581) - https://sketch.com -->
    <title>形状</title>
    <desc>Created with Sketch.</desc>
    <g id="高保真" stroke="none" stroke-width="1" fill="none" fill-rule="evenodd">
        <g id="首页2" transform="translate(-671.000000, -29.000000)" fill="#FFFFFF" fill-rule="nonzero">
            <g id="顶部" transform="translate(34.000000, 14.000000)">
                <g id="消息" transform="translate(633.000000, 0.000000)">
                    <g id="message">
                        <path d="M31.447,15.0003306 L18.553,15.0003306 C15.7075,15.0003306 13.3639,15.0003306 11.5075,15.2457632 C9.55870001,15.5015081 7.83880001,16.0624968 6.46120003,17.4175322 C5.08360005,18.770505 4.51030005,20.4596587 4.24990003,22.3736204 C4,24.1968338 4,26.4985377 4,29.2911068 L4,33.7088932 C4,36.5014623 4,38.8031662 4.252,40.6263796 C4.5103,42.5403413 5.0836,44.229495 6.46120003,45.5824678 C7.83880001,46.9375032 9.55870001,47.4984919 11.5075,47.7542368 C13.3639,48.0017319 15.7075,48.0017319 18.553,47.9996694 L31.447,47.9996694 C34.2925,47.9996694 36.6361,47.9996694 38.4925,47.7542368 C40.4392,47.4984919 42.1612,46.9375032 43.5388,45.5824678 C44.9164,44.229495 45.4897,42.5403413 45.7501,40.6263796 C46,38.8031662 46,36.5014623 46,33.7088932 L46,29.2911068 C46,26.4985377 46,24.1968338 45.748,22.3736204 C45.4897,20.4596587 44.9164,18.770505 43.5388,17.4175322 C42.1612,16.0624968 40.4392,15.5015081 38.4925,15.2457632 C36.6361,14.9982681 34.2925,14.9982681 31.447,15.0003306 Z M9.4306,20.3338488 C9.89890001,19.8739205 10.5856,19.5294899 12.0682,19.3335563 C13.6096,19.1293729 15.6718,19.125248 18.7,19.125248 L31.3,19.125248 C34.3282,19.125248 36.3904,19.1293729 37.9318,19.3314938 C39.4144,19.5294899 40.1011,19.8739205 40.5694,20.3338488 C41.0377,20.7917146 41.3884,21.468201 41.5879,22.9222344 C41.7958,24.4381415 41.8,26.4614134 41.8,29.4375413 L41.8,33.5624587 C41.8,36.5385866 41.7958,38.5618585 41.59,40.0777656 C41.3884,41.5338615 41.0377,42.2082855 40.5694,42.6661512 C40.1011,43.1260795 39.4144,43.4705101 37.9318,43.6664437 C36.3904,43.8706271 34.3282,43.874752 31.3,43.874752 L18.7,43.874752 C15.6718,43.874752 13.6096,43.8706271 12.0682,43.6685062 C10.5856,43.4705101 9.89890001,43.1260795 9.4306,42.6661512 C8.96229998,42.2082854 8.6116,41.531799 8.41210001,40.0777656 C8.20420001,38.5618585 8.20000003,36.5385866 8.20000003,33.5624587 L8.20000003,29.4375413 C8.20000003,26.4634759 8.20420001,24.4381415 8.41,22.9222344 C8.6116,21.4661385 8.96229998,20.7917145 9.4306,20.3338488 Z M14.4559,24.5330146 C13.4375974,23.9874027 12.1617432,24.355837 11.6062,25.3559356 C11.0506568,26.3560342 11.4257974,27.6090802 12.4441,28.154692 L17.9608,31.1101953 L18.0448,31.1535069 C19.4476,31.9063043 20.6278,32.5394792 21.661,32.9725955 C22.753,33.4325238 23.8156,33.7336427 25,33.7336427 C26.1865,33.7336427 27.2491,33.4325238 28.339,32.9725955 C29.3701,32.5394792 30.5524,31.9063043 31.9573,31.1535069 L37.5559,28.154692 C38.5584635,27.6021292 38.9222727,26.3605461 38.372127,25.3691293 C37.8219812,24.3777124 36.562407,24.0050388 35.5462,24.5330146 L30.0295,27.4885179 C28.5175,28.2970016 27.5116,28.8332409 26.6863,29.1817965 C25.9009,29.5117899 25.42,29.6087254 25,29.6087254 C24.58,29.6087254 24.1012,29.5138523 23.3158,29.1817965 C22.4905,28.8332409 21.4825,28.2970017 19.9705,27.4885179 L14.458,24.5330146 L14.4559,24.5330146 Z" id="形状"></path>
                    </g>
                </g>
            </g>
        </g>
    </g>
</svg>