<svg width="41px" height="50px" viewBox="0 0 41 50" version="1.1" xmlns="http://www.w3.org/2000/svg" xmlns:xlink="http://www.w3.org/1999/xlink">
    <g id="高保真" stroke="none" stroke-width="1" fill="none" fill-rule="evenodd">
        <g id="消息中心" transform="translate(-71.000000, -452.000000)" fill-rule="nonzero">
            <g id="生活缴费" transform="translate(71.000000, 452.000000)">
                <path d="M20.5,50 C9.199375,50 0,40.7327586 0,29.3362069 C0,24.5689655 3.26291668,18.3448276 9.70333335,10.8620689 C14.3414583,5.46551724 18.9027084,1.41379312 19.090625,1.25 L20.5,0 L21.909375,1.25 C22.0972916,1.42241377 26.6670833,5.47413794 31.2966666,10.8620689 C37.7370833,18.3448276 41,24.5689655 41,29.3362069 C41,40.7327586 31.800625,50 20.5,50 Z M20.5,5.76724136 C14.9308333,10.9827586 4.27083333,22.4051724 4.27083333,29.3362069 C4.27083333,38.3534483 11.5483333,45.6896552 20.5,45.6896552 C29.4516667,45.6896552 36.7291667,38.3534483 36.7291667,29.3362069 C36.7291667,22.4051724 26.0691667,10.9913793 20.5,5.76724136 Z" id="形状" fill="#0066B3"></path>
                <path d="M21.4210706,34.1471036 C20.9125938,34.1603375 20.4259181,33.9293117 20.0980472,33.5190621 L17.6424919,30.7894368 L15.1869367,33.5190621 C14.8520225,33.9195863 14.3701643,34.149025 13.8639133,34.149025 C13.3576622,34.149025 12.875804,33.9195863 12.5408898,33.5190621 C11.7846034,32.7014642 11.7846034,31.3966407 12.5408898,30.5790429 L16.3209567,26.3790154 C16.6558709,25.9784912 17.1377291,25.7490525 17.6439802,25.7490525 C18.1502312,25.7490525 18.6320894,25.9784912 18.9670036,26.3790154 L21.4225588,29.1086407 L27.6604133,22.1789879 C27.9953275,21.7784637 28.4771857,21.549025 28.9834367,21.549025 C29.4896878,21.549025 29.971546,21.7784637 30.3064602,22.1789879 C31.0627466,22.9965858 31.0627466,24.3014093 30.3064602,25.1190071 L22.7455823,33.5190621 C22.4173822,33.9297473 21.9300641,34.1608182 21.4210706,34.1471036 Z" id="路径_9" fill="#EF3535"></path>
            </g>
        </g>
    </g>
</svg>