<svg xmlns="http://www.w3.org/2000/svg" width="46.74" height="52" viewBox="0 0 46.74 52">
  <g id="组_2" data-name="组 2" transform="translate(-51.2)">
    <path id="路径_8" data-name="路径 8" d="M74.6,6.5l6.76,5.2.26.26.26.26a24.076,24.076,0,0,1,8.06,6.5A18.269,18.269,0,0,1,74.6,46.8a18.5,18.5,0,0,1-15.08-8.06,17.618,17.618,0,0,1,0-20.02,38.357,38.357,0,0,1,7.8-6.76l.26-.26.26-.26L74.6,6.5m0-6.5L64.72,7.54A31.857,31.857,0,0,0,55.1,15.6a23.617,23.617,0,0,0,0,26A23.293,23.293,0,0,0,74.6,52,23.386,23.386,0,0,0,94.1,15.6a31.857,31.857,0,0,0-9.62-8.06Z" transform="translate(0)" fill="#0066b3"/>
    <path id="路径_9" data-name="路径 9" d="M268.7,425.65a2.253,2.253,0,0,1-1.778-.8l-3.3-3.477-3.3,3.477a2.371,2.371,0,0,1-3.556,0,2.681,2.681,0,0,1,0-3.745l5.08-5.35a2.371,2.371,0,0,1,3.556,0l3.3,3.477,8.383-8.827a2.371,2.371,0,0,1,3.556,0,2.681,2.681,0,0,1,0,3.745l-10.161,10.7A2.253,2.253,0,0,1,268.7,425.65Z" transform="translate(-194.1 -389.057)" fill="#ef3535"/>
  </g>
</svg>
