<svg width="44px" height="44px" viewBox="0 0 44 44" version="1.1" xmlns="http://www.w3.org/2000/svg" xmlns:xlink="http://www.w3.org/1999/xlink">
    <g id="高保真" stroke="none" stroke-width="1" fill="none" fill-rule="evenodd">
        <g id="消息中心" transform="translate(-375.000000, -456.000000)">
            <g id="影票" transform="translate(375.000000, 456.000000)">
                <g id="movie" fill="#0066B3" fill-rule="nonzero">
                    <path d="M32.9609811,39.9320755 L42.0930566,41.4765263 L42.0930566,43.1698113 L21.5873962,43.1698113 C10.8238872,43.1672388 1.70838221,35.2327053 0.221884082,24.5723369 C-1.26461404,13.9119684 5.33256739,3.7864338 15.684786,0.839451866 C26.0370046,-2.10753007 36.9778448,3.02542903 41.3286372,12.8704144 C45.6794296,22.7153999 42.1094047,35.8055934 32.9609811,41.4765263 L32.9609811,39.9320755 Z M21.5873962,3.58490558 C11.6462707,3.58490558 3.58739623,11.6437802 3.58739623,21.5849056 C3.58739623,31.5260311 11.6462707,39.5849056 21.5873962,39.5849056 C31.5285217,39.5849056 39.5873962,31.5260311 39.5873962,21.5849056 C39.5873962,16.8105855 37.6906377,12.2318447 34.3144544,8.85611969 C30.9382711,5.48039465 26.3592729,3.58425764 21.5849528,3.58490558 L21.5873962,3.58490558 Z" id="路径_18"></path>
                </g>
                <g id="编组" transform="translate(8.301887, 17.433962)">
                    <circle id="椭圆形" fill="#EF3535" fill-rule="nonzero" cx="4.31698113" cy="4.31698113" r="4.31698113"></circle>
                    <circle id="椭圆形" fill="#FFFFFF" cx="4.4" cy="4.4" r="1.07924528"></circle>
                </g>
                <g id="编组备份" transform="translate(17.433962, 8.301887)">
                    <circle id="椭圆形" fill="#EF3535" fill-rule="nonzero" cx="4.31698113" cy="4.31698113" r="4.31698113"></circle>
                    <circle id="椭圆形" fill="#FFFFFF" cx="4.38662397" cy="4.38837108" r="1.07924528"></circle>
                </g>
                <g id="编组备份-2" transform="translate(25.735849, 17.433962)">
                    <circle id="椭圆形" fill="#EF3535" fill-rule="nonzero" cx="4.31698113" cy="4.31698113" r="4.31698113"></circle>
                    <circle id="椭圆形" fill="#FFFFFF" cx="4.38662397" cy="4.38837108" r="1.07924528"></circle>
                </g>
                <g id="编组备份-3" transform="translate(17.433962, 25.735849)">
                    <circle id="椭圆形" fill="#EF3535" fill-rule="nonzero" cx="4.31698113" cy="4.31698113" r="4.31698113"></circle>
                    <circle id="椭圆形" fill="#FFFFFF" cx="4.38662397" cy="4.38837108" r="1.07924528"></circle>
                </g>
            </g>
        </g>
    </g>
</svg>