<?xml version="1.0" encoding="UTF-8"?>
<svg width="52px" height="52px" viewBox="0 0 52 52" version="1.1" xmlns="http://www.w3.org/2000/svg" xmlns:xlink="http://www.w3.org/1999/xlink">
    <g id="高保真" stroke="none" stroke-width="1" fill="none" fill-rule="evenodd">
        <g id="语音助手" transform="translate(-336.000000, -689.000000)">
            <g id="编组-2" transform="translate(336.000000, 689.000000)">
                <g id="movie" fill="#0066B3" fill-rule="nonzero">
                    <path d="M39.703,48.1 L50.703,48.1 L50.703,52 L26.003,52 C13.0378642,51.9969013 2.05782402,42.439395 0.267269463,29.5984967 C-1.5232851,16.7575983 6.42331981,4.56093162 18.8930377,1.01115793 C31.3627555,-2.53861576 44.5414949,3.64426679 49.7822221,15.5029992 C55.0229493,27.3617316 50.722692,41.2691036 39.703,48.1 L39.703,48.1 Z M26.003,3.8999998 C13.797507,3.8999998 3.903,13.794507 3.903,26 C3.903,38.205493 13.797507,48.1 26.003,48.1 C38.208493,48.1 48.103,38.205493 48.103,26 C48.103,20.1381958 45.7742021,14.5165196 41.6289992,10.3718794 C37.4837964,6.22723917 31.8618042,3.89920428 26,3.8999998 L26.003,3.8999998 Z" id="路径_18"></path>
                </g>
                <g id="编组" transform="translate(10.000000, 21.000000)">
                    <circle id="椭圆形" fill="#EF3535" fill-rule="nonzero" cx="5.2" cy="5.2" r="5.2"></circle>
                    <circle id="椭圆形" fill="#FFFFFF" cx="5.3" cy="5.3" r="1.3"></circle>
                </g>
                <g id="编组备份" transform="translate(21.000000, 10.000000)">
                    <circle id="椭圆形" fill="#EF3535" fill-rule="nonzero" cx="5.2" cy="5.2" r="5.2"></circle>
                    <circle id="椭圆形" fill="#FFFFFF" cx="5.28388796" cy="5.28599244" r="1.3"></circle>
                </g>
                <g id="编组备份-2" transform="translate(31.000000, 21.000000)">
                    <circle id="椭圆形" fill="#EF3535" fill-rule="nonzero" cx="5.2" cy="5.2" r="5.2"></circle>
                    <circle id="椭圆形" fill="#FFFFFF" cx="5.28388796" cy="5.28599244" r="1.3"></circle>
                </g>
                <g id="编组备份-3" transform="translate(21.000000, 31.000000)">
                    <circle id="椭圆形" fill="#EF3535" fill-rule="nonzero" cx="5.2" cy="5.2" r="5.2"></circle>
                    <circle id="椭圆形" fill="#FFFFFF" cx="5.28388796" cy="5.28599244" r="1.3"></circle>
                </g>
            </g>
        </g>
    </g>
</svg>