<?xml version="1.0" encoding="UTF-8"?>
<svg width="96px" height="90px" viewBox="0 0 96 90" version="1.1" xmlns="http://www.w3.org/2000/svg" xmlns:xlink="http://www.w3.org/1999/xlink">
    <!-- Generator: Sketch 61 (89581) - https://sketch.com -->
    <title>我的账户</title>
    <desc>Created with Sketch.</desc>
    <g id="高保真" stroke="none" stroke-width="1" fill="none" fill-rule="evenodd">
        <g id="首页2" transform="translate(-607.000000, -147.000000)">
            <g id="四个主要功能" transform="translate(49.000000, 148.000000)">
                <g id="我的账户" transform="translate(557.000000, 0.000000)">
                    <g transform="translate(2.000000, 0.000000)">
                        <rect id="矩形" fill="#000000" fill-rule="nonzero" opacity="0" x="21" y="19" width="50" height="50"></rect>
                        <path d="M50.7363281,41.6318359 L33.6855469,41.6318359 C32.9008789,41.6318359 32.2646484,40.9960938 32.2646484,40.2109375 C32.2646484,39.4257812 32.9008789,38.7900391 33.6855469,38.7900391 L50.7363281,38.7900391 C51.5209961,38.7900391 52.1572266,39.4257812 52.1572266,40.2109375 C52.1572266,40.9960938 51.5209961,41.6318359 50.7363281,41.6318359 Z M41.2636719,51.1044922 L33.6855469,51.1044922 C32.9008789,51.1044922 32.2646484,50.46875 32.2646484,49.6835938 C32.2646484,48.8984375 32.9008789,48.2626953 33.6855469,48.2626953 L41.2636719,48.2626953 C42.0483398,48.2626953 42.6845703,48.8984375 42.6845703,49.6835938 C42.6845703,50.46875 42.0483398,51.1044922 41.2636719,51.1044922 Z M63.0507812,60.5771484 L28.9492188,60.5771484 C27.1210938,60.5771484 25.6337891,59.0898438 25.6337891,57.2617188 L25.6337891,30.7382812 C25.6337891,28.9101562 27.1210938,27.4228516 28.9492188,27.4228516 L63.0507812,27.4228516 C64.8789062,27.4228516 66.3662109,28.9101562 66.3662109,30.7382812 L66.3662109,57.2617188 C66.3662109,59.0898438 64.8789062,60.5771484 63.0507812,60.5771484 Z M28.9492188,30.2646484 C28.6884766,30.2646484 28.4755859,30.4770508 28.4755859,30.7382812 L28.4755859,57.2617188 C28.4755859,57.5229492 28.6884766,57.7353516 28.9492188,57.7353516 L63.0507813,57.7353516 C63.3115234,57.7353516 63.5244141,57.5229492 63.5244141,57.2617188 L63.5244141,30.7382813 C63.5244141,30.4770508 63.3115234,30.2646484 63.0507813,30.2646484 L28.9492188,30.2646484 Z" id="形状" fill="#FFFFFF" fill-rule="nonzero"></path>
                        <rect id="矩形" stroke="#FFFFFF" stroke-width="2" x="0" y="0" width="94" height="88" rx="22"></rect>
                    </g>
                </g>
            </g>
        </g>
    </g>
</svg>