<svg width="55px" height="49px" viewBox="0 0 55 49" version="1.1" xmlns="http://www.w3.org/2000/svg" xmlns:xlink="http://www.w3.org/1999/xlink">
    <g id="高保真" stroke="none" stroke-width="1" fill="none" fill-rule="evenodd">
        <g id="全部功能" transform="translate(-512.000000, -581.000000)">
            <g id="菜单标题" transform="translate(45.000000, 454.000000)"></g>
            <g id="转账" transform="translate(512.000000, 581.000000)" fill-rule="nonzero">
                <path d="M36.5844976,15.1163561 C36.4122537,13.6643561 35.6011512,12.8532537 34.1491512,12.6810098 C33.2939951,12.7671317 32.6530976,13.1095805 32.2265122,13.7064244 L27.4840634,20.4997561 L22.741561,13.7064244 C22.2288537,13.1095805 21.5879561,12.7671317 20.818922,12.6810098 C19.2808,12.8532537 18.4677122,13.6643561 18.3835756,15.1163561 C18.2974537,15.7151854 18.4677122,16.1858244 18.8962829,16.5262878 L22.9978878,22.2942049 L20.3062146,22.2942049 C19.3649366,22.4664488 18.8522293,22.9351024 18.7680927,23.7041366 C18.7680927,24.6454146 19.2808,25.1140146 20.3062146,25.1140146 L25.0487171,25.1140146 L25.0487171,27.2929805 L20.3062146,27.2929805 C19.3649366,27.4652244 18.8522293,27.9338244 18.7680927,28.7029122 C18.7680927,29.6441902 19.2808,30.1127902 20.3062146,30.1127902 L25.0487171,30.1127902 L25.0487171,34.0862585 C25.0487171,35.5402976 25.8598195,36.2652244 27.4840634,36.2652244 C29.0221317,36.2652244 29.8332341,35.5402439 29.9193561,34.0862585 L29.9193561,30.1127902 L34.6618585,30.1127902 C35.6011512,30.1127902 36.1139122,29.6441902 36.1999805,28.7029122 C36.0277366,27.9338244 35.5150293,27.4652244 34.6618585,27.2929805 L29.9193561,27.2929805 L29.9193561,25.1140146 L34.6618585,25.1140146 C35.6011512,25.1140146 36.1139122,24.6454146 36.1999805,23.7041366 C36.0277366,22.9350488 35.5150293,22.4664488 34.6618585,22.2942049 L31.9701854,22.2942049 L36.0717902,16.5262878 C36.4122537,16.1858244 36.5844976,15.7151854 36.5844976,15.1163561 L36.5844976,15.1163561 Z" id="路径" fill="#EF3535"></path>
                <path d="M6.61840488,17.2459561 C7.69635122,17.7389171 8.96993659,17.2646829 9.46300488,16.1866829 C13.3724049,7.63818049 22.862561,2.99569756 32.0286195,5.14794146 C39.0534878,6.79767317 44.5523073,12.0828244 46.5389073,18.8989073 L42.7386488,18.9130195 L48.8925854,29.4786537 L54.9673756,18.8675707 L50.9721756,18.8824341 C50.0107756,14.8354 48.0238,11.1097268 45.1731366,8.03546829 C41.9081756,4.51444878 37.7022585,2.07089268 33.0099805,0.968960976 C30.2280537,0.315721951 27.3910732,0.158341463 24.5781317,0.501165854 C21.8604341,0.832346341 19.2340098,1.62053659 16.7718878,2.84379024 C11.8259659,5.30097561 7.84385854,9.40553171 5.55913171,14.4013561 C5.06611707,15.4793561 5.54035122,16.7529415 6.61840488,17.2459561 Z M48.362439,31.6909951 C47.2848146,31.196639 46.0109073,31.669478 45.5166049,32.7468878 C41.602161,41.2792927 32.1160829,45.912278 22.9610244,43.7636829 C15.9358341,42.1141122 10.4368,36.8287463 8.45014634,30.0122878 L12.2504585,29.9983366 L6.0971122,19.4322732 L0.0216243902,30.0430878 L4.01687805,30.0284927 C4.97827805,34.0758488 6.96536098,37.8017902 9.81629268,40.8762634 C13.0814146,44.3973902 17.287439,46.8408927 21.9799854,47.9427171 C23.8067902,48.3714488 25.6571512,48.5865122 27.509122,48.5865122 C28.4749756,48.5865122 29.4413122,48.5279707 30.4047512,48.4108878 C33.1202488,48.0806732 35.7448488,47.2942537 38.205522,46.0735756 C43.1479561,43.6217561 47.1301171,39.5244976 49.4183317,34.5367756 C49.9125268,33.4594195 49.4398488,32.1852439 48.362439,31.6909951 Z" id="形状" fill="#0066B3"></path>
            </g>
        </g>
    </g>
</svg>