<?xml version="1.0" encoding="UTF-8"?>
<svg width="42px" height="36px" viewBox="0 0 42 36" version="1.1" xmlns="http://www.w3.org/2000/svg" xmlns:xlink="http://www.w3.org/1999/xlink">
    <!-- Generator: Sketch 61 (89581) - https://sketch.com -->
    <title>通知</title>
    <desc>Created with Sketch.</desc>
    <g id="高保真" stroke="none" stroke-width="1" fill="none" fill-rule="evenodd">
        <g id="消息中心" transform="translate(-27.000000, -158.000000)" fill-rule="nonzero">
            <g id="动账通知" transform="translate(0.000000, 125.000000)">
                <g id="通知" transform="translate(24.000000, 27.000000)">
                    <rect id="矩形" fill="#000000" opacity="0" x="0" y="0" width="48" height="48"></rect>
                    <path d="M27.36,41.4 C26.928,41.4 26.568,41.304 26.136,41.232 L25.872,41.136 L16.608,35.616 C15.816,35.448 14.52,35.184 13.896,35.184 L13.728,35.184 L6.984,34.392 C4.968,34.392 3.312,32.64 3.312,30.624 L3.312,18.384 C3.312,16.368 4.968,14.712 6.984,14.616 L14.592,13.56 C15.456,13.56 16.344,13.392 17.208,13.128 L25.872,6.912 L26.04,6.816 C27.168,6.384 28.488,6.552 29.448,7.248 C30.408,7.944 31.032,9.096 31.032,10.32 L31.032,37.536 C31.032,38.76 30.408,39.888 29.448,40.608 C28.944,41.136 28.152,41.4 27.36,41.4 Z M26.592,37.944 C26.928,38.016 27.168,37.944 27.432,37.776 C27.672,37.608 27.84,37.272 27.84,36.936 L27.84,11.112 C27.84,10.776 27.672,10.44 27.432,10.2 C27.192,10.032 26.856,9.96 26.592,10.032 L18.456,15.936 L18.288,16.008 C17.208,16.416 16.056,16.584 14.88,16.584 L7.656,17.592 C7.08,17.592 6.576,18.096 6.576,18.672 L6.576,30.216 C6.576,30.792 7.08,31.296 7.656,31.296 L7.824,31.296 L14.208,32.04 C15.36,32.04 17.28,32.544 17.448,32.616 L17.616,32.688 L26.592,37.944 L26.592,37.944 Z" id="形状" fill="#2962FF"></path>
                    <path d="M37.248,37.104 C36.744,37.104 36.24,36.816 35.952,36.456 C35.544,35.808 35.76,34.968 36.456,34.512 C39.576,32.76 41.688,28.416 41.688,23.712 C41.688,18.648 39.264,14.112 35.856,12.648 C35.04,12.36 34.752,11.544 35.16,10.8 C35.568,10.056 36.36,9.792 37.176,10.152 C41.712,12.096 44.712,17.544 44.712,23.712 C44.712,29.424 42.096,34.608 38.064,36.816 C37.872,37.032 37.56,37.104 37.248,37.104 L37.248,37.104 Z" id="路径" fill="#EF3535"></path>
                </g>
            </g>
        </g>
    </g>
</svg>