<svg width="48px" height="48px" viewBox="0 0 48 48" version="1.1" xmlns="http://www.w3.org/2000/svg" xmlns:xlink="http://www.w3.org/1999/xlink">
    <g id="高保真" stroke="none" stroke-width="1" fill="none" fill-rule="evenodd">
        <g id="全部功能" transform="translate(-516.000000, -723.000000)" fill-rule="nonzero">
            <g id="预约" transform="translate(516.000000, 723.000000)">
                <path d="M23.9143164,47.5741242 C11.0923079,47.5741242 0.601793089,36.9374044 0.601793089,23.936957 C0.601793089,10.9362903 11.0923627,0.299515768 23.9143164,0.299515768 C36.7360506,0.299515768 47.2266203,10.9362903 47.2266203,23.936957 C47.2266203,36.9373496 36.7360507,47.5741242 23.9143164,47.5741242 L23.9143164,47.5741242 Z M23.914307,4.9367926 C13.4641346,4.9367926 4.91417932,13.4867749 4.91417932,23.9368933 C4.91417932,34.3868102 13.4641347,42.9367926 23.914307,42.9367926 C34.3641729,42.9367926 42.9141793,34.3868102 42.9141793,23.9368933 C42.9141793,13.4867749 34.3641729,4.9367926 23.914307,4.9367926 L23.914307,4.9367926 Z" id="形状" fill="#0066B3"></path>
                <path d="M35.532458,28.6923574 L20.7467286,28.6923574 C19.7823749,28.6923574 19.1395933,28.0201797 19.1395933,27.0117261 L19.1395933,10.3729888 C19.1395933,9.36453514 19.7824354,8.69235744 20.7467286,8.69235744 C21.7110824,8.69235744 22.3538639,9.36453514 22.3538639,10.3729888 L22.3538639,25.3310323 L35.532458,25.3310323 C36.4968118,25.3310323 37.1395933,26.00321 37.1395933,27.0117261 C37.1395933,27.8519794 36.4967513,28.6923574 35.532458,28.6923574 L35.532458,28.6923574 Z" id="路径" fill="#EF3535"></path>
            </g>
        </g>
    </g>
</svg>