<svg width="48px" height="41px" viewBox="0 0 48 41" version="1.1" xmlns="http://www.w3.org/2000/svg" xmlns:xlink="http://www.w3.org/1999/xlink">
    <g id="高保真" stroke="none" stroke-width="1" fill="none" fill-rule="evenodd">
        <g id="全部功能" transform="translate(-516.000000, -656.000000)">
            <g id="菜单标题" transform="translate(45.000000, 454.000000)"></g>
            <g id="银行卡转入" transform="translate(516.000000, 656.000000)" fill-rule="nonzero">
                <path d="M43.7495652,0 L4.25043477,0 C1.90377938,0.0020957025 0.00191799106,2.08017404 0,4.64425875 L0,17.8625337 C0,18.4922276 0.891528942,19.0061183 1.46782607,19.0061183 C2.0441232,19.0061183 2.81977578,18.4922276 2.81977578,17.8625337 L2.81977578,12.161725 L45.059556,12.161725 L45.059556,35.6414555 C45.059556,36.2684102 45.059556,36.5055699 44.6833251,36.8826787 C44.3070943,37.2597875 44.1269797,37.3399604 43.89257,37.3399604 C43.6581603,37.3399604 43.4243817,37.3399604 43.0948536,37.3399604 L1.46782607,37.3399604 C0.891528942,37.3399604 0.432290263,38.2412067 0.432290263,38.8709007 C0.432290263,39.5005946 0.891528942,40.2857143 1.46782607,40.2857143 L43.7495652,40.2857143 C46.0962206,40.2836186 47.998082,38.2055402 48,35.6414555 L48,4.64425875 C47.998082,2.08017404 46.0962206,0.0020957025 43.7495652,0 Z M44.9130435,9.28032344 L2.91304348,9.28032344 L2.91304348,5.14632344 C2.91487879,4.11644506 3.8420675,3.28197522 4.98637681,3.28032344 L42.8397102,3.28032344 C43.9847805,3.28032344 44.9130435,4.1157601 44.9130435,5.14632344 L44.9130435,9.28032344 Z M41.4469565,17.357062 C42.0232537,17.357062 42.4904348,16.8465942 42.4904348,16.2169003 C42.4904348,15.5872063 42.0232537,15.0767386 41.4469565,15.0767386 L27.4191304,15.0767386 C26.8428333,15.0767386 26.3756522,15.5872063 26.3756522,16.2169003 C26.3756522,16.8465942 26.8428333,17.357062 27.4191304,17.357062 L41.4469565,17.357062 Z" id="形状" fill="#0066B3"></path>
                <path d="M8.44444097,33.3440082 C8.64247337,33.4549109 8.88672987,33.4568507 9.08664018,33.3491083 C9.28655049,33.241366 9.4123085,33.0400055 9.41728316,32.8196915 L9.41728316,29.424835 L27.1088891,29.424835 C27.7588317,29.424835 28.2857143,28.918192 28.2857143,28.2932162 C28.2857143,27.6682404 27.7588317,27.1615974 27.1088891,27.1615974 L9.41728316,27.1615974 L9.41728316,23.766741 C9.41783968,23.5437263 9.29426455,23.3374704 9.09334794,23.2260696 C8.89243134,23.1146688 8.64488567,23.1151519 8.44444097,23.227336 L0.324346921,27.7538112 C0.123680243,27.8648857 0,28.070572 0,28.2932162 C0,28.5158604 0.123680243,28.7215468 0.324346921,28.8326212 L8.44444097,33.3440082 Z" id="路径" fill="#EF3535"></path>
            </g>
        </g>
    </g>
</svg>