<?xml version="1.0" encoding="UTF-8"?>
<svg width="40px" height="50px" viewBox="0 0 40 50" version="1.1" xmlns="http://www.w3.org/2000/svg" xmlns:xlink="http://www.w3.org/1999/xlink">
    <!-- Generator: Sketch 61 (89581) - https://sketch.com -->
    <title>编组 12</title>
    <desc>Created with Sketch.</desc>
    <g id="高保真" stroke="none" stroke-width="1" fill="none" fill-rule="evenodd">
        <g id="首页2" transform="translate(-507.000000, -495.000000)">
            <g id="custom" transform="translate(0.000000, 339.000000)">
                <g id="fire" transform="translate(481.000000, 156.000000)">
                    <g id="编组-12" transform="translate(26.000000, -0.000000)">
                        <path d="M37.6303175,22.6026864 C36.5465936,20.1635325 34.9711613,17.9742706 33.0025867,16.1718712 L31.378136,14.6813958 C31.2661439,14.5814499 31.1118117,14.5436801 30.9663214,14.5806122 C30.8208311,14.6175443 30.7031991,14.7243512 30.6524364,14.8656118 L29.9267367,16.9478116 C29.47457,18.2540709 28.6428066,19.5882418 27.4649402,20.9000834 C27.386788,20.983818 27.2974711,21.0061472 27.2360657,21.0117296 C27.1746604,21.0173119 27.0797612,21.0061472 26.9960266,20.927995 C26.9178743,20.8610073 26.8787982,20.7605258 26.8843805,20.6600444 C27.0909258,17.2994968 26.0861109,13.5091117 23.8866828,9.38378839 C22.0668514,5.95625315 19.5380672,3.28232909 16.3784826,1.41783927 L14.0729907,0.0613391549 C13.7715462,-0.11729461 13.3863672,0.117162197 13.4031141,0.468847408 L13.5259248,3.14835378 C13.6096594,4.97934978 13.3975318,6.5982182 12.8951244,7.94355373 C12.2810708,9.5903337 11.3990667,11.1198852 10.2714411,12.4931322 C9.48669616,13.4475007 8.59725779,14.3107241 7.61984623,15.0665748 C5.26581911,16.8761652 3.35169042,19.1948754 2.02079436,21.8490753 C0.693176789,24.5264217 0.00161975814,27.4741358 6.03961325e-14,30.4625718 C6.03961325e-14,33.0974197 0.519154337,35.6485331 1.54629847,38.0545065 C2.53808605,40.3709754 3.96934583,42.473316 5.76093868,44.2452827 C7.56960545,46.0316203 9.66855213,47.4383611 12.0075379,48.4152644 C14.4302582,49.4312439 16.9981185,49.944816 19.6497133,49.944816 C22.3013082,49.944816 24.8691684,49.4312439 27.2918888,48.4208468 C29.6251136,47.449666 31.7468226,46.0332973 33.538488,44.250865 C35.3471548,42.4645274 36.7650602,40.3767453 37.7531282,38.0600888 C38.7787247,35.6606947 39.3048519,33.0775431 39.2994682,30.4681541 C39.2994682,27.7439893 38.7411962,25.0979768 37.6303175,22.6026864 L37.6303175,22.6026864 Z M31.6814035,42.5147689 C28.4669668,45.675165 24.1990091,47.4098184 19.6497133,47.4098184 C15.1004176,47.4098184 10.8324598,45.6751649 7.61802319,42.5147689 C4.41555842,39.3603135 2.64971333,35.1781353 2.64971333,30.7286303 C2.64971333,28.1444719 3.23633305,25.6672442 4.39161475,23.3622937 C5.51696684,21.1108085 7.19302318,19.0969471 9.22823445,17.5464521 C10.526209,16.5614616 11.7034771,15.428995 12.7359809,14.1721947 C14.2324598,12.3603135 15.4056993,10.3405115 16.2197838,8.17219468 C16.5537171,7.27776585 16.7963648,6.35233722 16.9440795,5.40981839 C18.3866852,6.7286303 19.5958401,8.32070948 20.6074598,10.1860561 C22.6067556,13.9048679 23.5285866,17.2137788 23.3490091,20.0296204 C23.2620852,21.3732577 23.800304,22.6823477 24.8095725,23.5820956 C25.6815761,24.3638259 26.8329052,24.7660938 28.0060513,24.6989273 C29.1852767,24.6395214 30.2687274,24.1226897 31.0588682,23.2494224 C31.854995,22.3642739 32.5433753,21.4613035 33.1180232,20.5405115 C33.9560513,21.6038778 34.6564035,22.7622937 35.2130936,24.0098184 C36.1648542,26.1365511 36.6497133,28.3999174 36.6497133,30.7286303 C36.6497133,35.1781353 34.8838683,39.3662541 31.6814035,42.5147689 Z" id="形状" fill="#0066B3" fill-rule="nonzero"></path>
                        <ellipse id="椭圆形" fill="#EF3535" cx="16" cy="30" rx="5" ry="8"></ellipse>
                    </g>
                </g>
            </g>
        </g>
    </g>
</svg>