<svg width="36px" height="33px" viewBox="0 0 36 33" version="1.1" xmlns="http://www.w3.org/2000/svg" xmlns:xlink="http://www.w3.org/1999/xlink">
    <g id="调整" stroke="none" stroke-width="1" fill="none" fill-rule="evenodd">
        <g id="转账" transform="translate(-603.000000, -1003.000000)">
            <g id="矩形">
                <use fill="black" fill-opacity="1" filter="url(#filter-2)" xlink:href="#path-1"></use>
                <use fill="#FFFFFF" fill-rule="evenodd" xlink:href="#path-1"></use>
            </g>
            <g id="说话气泡" transform="translate(603.000000, 1003.000000)" fill-rule="nonzero">
                <path d="M34.0714286,0.857142867 L1.92857143,0.857142867 C1.21789287,0.857142867 0.642857133,1.43282143 0.642857133,2.14285717 L0.642857133,25.2857143 C0.642857133,25.9963929 1.21789283,26.5714286 1.92857143,26.5714286 L13.5,26.5714286 L18,33 L22.5,26.5714286 L34.0714286,26.5714286 C34.7821071,26.5714286 35.3571429,25.9963929 35.3571429,25.2857143 L35.3571429,2.14285713 C35.3571429,1.43282143 34.7821071,0.857142867 34.0714286,0.857142867 Z M32.7857143,24 L21.1615714,24 L18,28.5163286 L14.8384929,24 L3.2142857,24 L3.2142857,3.42857143 L32.7857143,3.42857143 L32.7857143,24 Z" id="形状" fill="#0066B3"></path>
                <path d="M10.9285714,15.6428571 C11.9932714,15.6428571 12.8571429,14.7789857 12.8571429,13.7142857 C12.8571429,12.6495857 11.9932714,11.7857143 10.9285714,11.7857143 C9.86387143,11.7857143 9,12.6495857 9,13.7142857 C9,14.7789857 9.86387143,15.6428571 10.9285714,15.6428571 Z" id="路径" fill="#EF3535"></path>
                <path d="M18,15.6428571 C19.0647,15.6428571 19.9285714,14.7789857 19.9285714,13.7142857 C19.9285714,12.6495857 19.0647,11.7857143 18,11.7857143 C16.9353,11.7857143 16.0714286,12.6495857 16.0714286,13.7142857 C16.0714286,14.7789857 16.9353,15.6428571 18,15.6428571 Z" id="路径" fill="#EF3535"></path>
                <path d="M25.0714286,15.6428571 C26.1361286,15.6428571 27,14.7789857 27,13.7142857 C27,12.6495857 26.1361286,11.7857143 25.0714286,11.7857143 C24.0067286,11.7857143 23.1428571,12.6495857 23.1428571,13.7142857 C23.1428571,14.7789857 24.0067286,15.6428571 25.0714286,15.6428571 Z" id="路径" fill="#EF3535"></path>
            </g>
        </g>
    </g>
</svg>