<?xml version="1.0" standalone="no"?><!DOCTYPE svg PUBLIC "-//W3C//DTD SVG 1.1//EN" "http://www.w3.org/Graphics/SVG/1.1/DTD/svg11.dtd"><svg t="1607521198041" class="icon" viewBox="0 0 1024 1024" version="1.1" xmlns="http://www.w3.org/2000/svg" p-id="9582" xmlns:xlink="http://www.w3.org/1999/xlink" width="128" height="128"><defs><style type="text/css"></style></defs><path d="M847.104 349.632c-12.064-31.232-58.88-134.08-200.768-134.08a206.176 206.176 0 0 0-161.76 78.72c-35.456 43.296-43.264 90.816-47.52 118.496-12.064 122.016-78.752 181.632-86.56 189.44a229.28 229.28 0 0 1-177.376 47.52c12.064 31.2 63.168 137.6 205.056 134.08a196.16 196.16 0 0 0 146.144-66.688c47.52-47.52 55.328-118.464 58.88-137.632 15.616-106.432 66.688-161.76 86.56-181.632a236.96 236.96 0 0 1 177.344-48.224z" fill="#05387A" p-id="9583"></path><path d="M224.224 404.96a255.392 255.392 0 0 1 197.216-58.88c-15.616-31.2-75.2-134.08-208.576-134.08C83.04 212 0.032 322.656 0.032 424.8v378.176c1.024 15.36 8.192 29.664 19.84 39.712l110.72 86.848s23.36 19.84 23.36-12.064V562.752c-4.224-23.424 3.584-103.168 70.272-157.76z m780.384-248.32l-110.688-86.528s-23.392-19.84-23.392 12.064v346.208a214.176 214.176 0 0 1-70.944 157.504 255.392 255.392 0 0 1-197.248 58.88c15.616 31.2 75.2 134.08 212.832 134.08 126.304 0 208.576-110.688 208.576-212.832V195.68a52.8 52.8 0 0 0-19.136-39.04z" fill="#05387A" p-id="9584"></path></svg>