<?xml version="1.0" encoding="UTF-8"?>
<svg width="44px" height="42px" viewBox="0 0 44 42" version="1.1" xmlns="http://www.w3.org/2000/svg" xmlns:xlink="http://www.w3.org/1999/xlink">
    <!-- Generator: Sketch 61 (89581) - https://sketch.com -->
    <title>定期还款</title>
    <desc>Created with Sketch.</desc>
    <g id="高保真" stroke="none" stroke-width="1" fill="none" fill-rule="evenodd">
        <g id="黄金" transform="translate(-71.000000, -390.000000)" fill-rule="nonzero">
            <g id="icon栏" transform="translate(57.000000, 385.000000)">
                <g id="定期积存" transform="translate(0.000000, 2.000000)">
                    <g id="定期还款" transform="translate(12.000000, 0.000000)">
                        <rect id="矩形" fill="#000000" opacity="0" x="0" y="0" width="48" height="48"></rect>
                        <path d="M12.2234483,5.66896552 C12.1406897,5.56965516 12.0662069,5.47862067 11.9751724,5.37931036 C9.80689655,3.12 6.21517242,3.03724139 3.95586206,5.20551722 C1.6965517,7.37379305 1.61379309,10.9655172 3.78206897,13.2248276 C3.87310345,13.3158621 3.96413794,13.3986207 4.05517242,13.4813793 L12.2234483,5.66896552 Z M35.7765517,5.66896552 C35.8593103,5.56965516 35.9337931,5.47862067 36.0248276,5.37931036 C38.1931035,3.12 41.7848276,3.03724139 44.0441379,5.20551722 C46.3034483,7.37379309 46.3862069,10.9655172 44.217931,13.2248276 C44.1268965,13.3158621 44.0358621,13.3986207 43.9448276,13.4813793 L35.7765517,5.66896552 Z" id="形状" fill="#2962FF"></path>
                        <path d="M44.9793104,40.4193104 L40.08,36.1406896 C42.4551724,32.8717241 43.862069,28.8496552 43.862069,24.5048276 C43.862069,13.5558621 34.9489655,4.64275861 24,4.64275861 C13.0510345,4.64275861 4.13793103,13.5558621 4.13793103,24.5048276 C4.13793103,28.8496552 5.54482758,32.8634483 7.92,36.1406896 L3.02068964,40.4193104 L5.7434483,43.5393104 L10.6758621,39.2275862 C14.2013793,42.422069 18.8772414,44.3751724 24,44.3751724 C29.1227586,44.3751724 33.7986207,42.422069 37.3241379,39.2275862 L42.2565517,43.5393104 L44.9793104,40.4193104 L44.9793104,40.4193104 Z M8.27586206,24.5048276 C8.27586206,15.8317241 15.3268965,8.78068964 24,8.78068964 C32.6731035,8.78068964 39.7241379,15.8317241 39.7241379,24.5048276 C39.7241379,33.177931 32.6731035,40.2289655 24,40.2289655 C15.3268965,40.2289655 8.27586206,33.177931 8.27586206,24.5048276 L8.27586206,24.5048276 Z" id="形状" fill="#2962FF"></path>
                        <polygon id="路径" fill="#EF3535" points="31.1255172 21.5834483 26.697931 21.5834483 30.6786207 17.6027586 28.0634483 14.9875862 23.9834483 19.0675862 19.9034483 14.9875862 17.2882759 17.6027586 21.2689655 21.5834483 16.8993104 21.5834483 16.8993104 25.142069 22.2041379 25.142069 22.2041379 26.9131035 16.8744828 26.9131035 16.8744828 30.4717241 22.2041379 30.4717241 22.2041379 34.0303448 25.7627586 34.0303448 25.7627586 30.4717241 31.0924138 30.4717241 31.0924138 26.9131035 25.7627586 26.9131035 25.7627586 25.142069 31.1255172 25.142069"></polygon>
                    </g>
                </g>
            </g>
        </g>
    </g>
</svg>