<svg width="97px" height="90px" viewBox="0 0 97 90" version="1.1" xmlns="http://www.w3.org/2000/svg" xmlns:xlink="http://www.w3.org/1999/xlink">
    <g id="高保真" stroke="none" stroke-width="1" fill="none" fill-rule="evenodd">
        <g id="首页2" transform="translate(-233.000000, -147.000000)">
            <g id="四个主要功能" transform="translate(49.000000, 148.000000)">
                <g id="收付款" transform="translate(185.333333, 0.000000)">
                    <g id="人民币单价-(2)">
                        <rect id="矩形" fill="#000000" fill-rule="nonzero" opacity="0" x="22" y="19" width="50" height="50"></rect>
                        <path d="M60.2623047,27.1818848 L50.0773926,41.6200195 L58.1043457,41.6200195 L58.1043457,44.8117676 L48.753418,44.8117676 L48.753418,49.2074707 L58.1043457,49.2074707 L58.1043457,52.4391113 L48.753418,52.4391113 L48.753418,58.8398926 L43.9424316,58.8398926 L43.9424316,52.4391113 L34.2492676,52.4391113 L34.2492676,49.2075195 L43.9423828,49.2075195 L43.9423828,44.8118164 L34.2492676,44.8118164 L34.2492676,41.6200684 L42.5194824,41.6200684 L32.4319336,27.1818848 L37.8562012,27.1818848 C42.569873,34.3522949 45.4314453,38.9009766 46.4461426,40.8243164 L46.5434082,40.8243164 C46.8875,40.0320313 47.8291016,38.4370605 49.3650391,36.0393555 L55.1333496,27.1818848 L60.2623047,27.1818848 L60.2623047,27.1818848 Z" id="路径" fill="#FFFFFF" fill-rule="nonzero"></path>
                        <rect id="矩形" stroke="#FFFFFF" stroke-width="2" x="0" y="0" width="94" height="88" rx="22"></rect>
                    </g>
                </g>
            </g>
        </g>
    </g>
</svg>