<?xml version="1.0" encoding="UTF-8"?>
<svg  viewBox="0 0 47 46" version="1.1" xmlns="http://www.w3.org/2000/svg" xmlns:xlink="http://www.w3.org/1999/xlink">
    <!-- Generator: Sketch 61 (89581) - https://sketch.com -->
    <title>robot</title>
    <desc>Created with Sketch.</desc>
    <g id="高保真" stroke="none" stroke-width="1" fill="none" fill-rule="evenodd">
        <g id="首页2" transform="translate(-591.000000, -17.000000)" fill-rule="nonzero">
            <g id="顶部" transform="translate(34.000000, 14.000000)">
                <g id="机器人" transform="translate(557.000000, 0.000000)">
                    <g id="robot" transform="translate(0.000000, 2.000000)">
                        <rect id="矩形" fill="#000000" opacity="0" x="0" y="0" width="48" height="48"></rect>
                        <path d="M7.91839541,13.9282819 L25.2566556,13.9282819 L26.8941429,11.1909145 L18.4119592,11.1909145 C17.6450694,11.1909145 17.5359035,10.5641726 17.7296728,10.1993731 C18.3300848,9.07206056 19.5827625,6.64737844 21.487706,2.922584 C22.2655124,1.8158428 23.122464,1.26315789 24.0599254,1.26315789 C25.1952499,1.26315789 25.7247041,1.8158428 25.6469234,2.922584 L22.9355175,8.40417582 C27.8902809,8.33834734 30.6112388,8.33834734 31.0983912,8.40417582 C31.4804716,8.45491859 31.6169288,8.41926154 31.919864,8.8978894 C32.2241637,9.37651726 31.9144057,9.56028841 31.919864,9.76600237 C31.5350545,10.4462299 31.3249103,10.7918294 31.0983912,11.1909145 C29.9808062,13.0546832 29.3640194,13.9282819 29.8088701,13.9282819 L39.318577,13.9282819 C39.8712289,13.9282819 41.4063732,13.7472536 42.418886,14.9733089 C43.0929849,15.7906791 43.4150241,16.8384489 43.386368,18.1138757 C43.4082012,23.5831247 43.4191178,26.7524914 43.4191178,27.6219757 C43.4191178,27.8002612 44.3074546,24.3648378 46.1168779,26.0352353 C46.9397153,27.6425471 47.1116514,33.6781953 46.1168779,35.8711063 C44.7509407,38.3369312 43.4191178,34.4173942 43.386368,34.5504226 C43.386368,34.5504226 43.4191178,39.6891577 43.4191178,42.847553 C43.4191178,43.1355526 43.6510951,44.6523503 42.418886,45.760463 C41.5974133,46.5010333 40.5630672,46.8672042 39.318577,46.8631242 L6.51015644,46.5600047 C5.60271562,46.4201191 4.89996068,45.9894912 4.39779797,45.2667494 C3.89836439,44.5453791 3.7018659,43.680009 3.81376087,42.6692676 L3.81376087,34.5504226 C2.93361151,36.1412773 2.03026439,36.5979624 1.10644869,35.9218491 C-0.279957133,34.9111077 -0.421872697,27.3257476 1.01365773,26.2944349 C1.97022316,25.6059787 2.90359087,26.0475781 3.81376087,27.6233472 L3.81376087,18.1166185 C3.81376087,16.8357061 4.27225729,15.7893077 5.1878855,14.9760518 C6.10487833,14.1614244 7.01504829,13.8130821 7.91703084,13.9296533 L7.91839541,13.9282819 Z M7.90747883,18.0425614 L7.90747883,42.7282389 L39.2926501,42.7282389 L39.2926501,18.0425614 L7.90747883,18.0425614 Z" id="形状" fill="#FFFFFF"></path>
                        <path d="M13.2,31.2000001 C13.2,33.1882251 14.8117749,34.8 16.8,34.8 C18.7882251,34.8 20.4,33.1882251 20.4,31.2000001 C20.4,29.9138439 19.7138439,28.7253866 18.6,28.0823086 C17.4861561,27.4392305 16.1138439,27.4392305 15,28.0823086 C13.8861561,28.7253866 13.2,29.9138439 13.2,31.2000001 L13.2,31.2000001 Z" id="路径" fill="#FFFFFF"></path>
                        <path d="M28.8,31.2 C28.8,33.1882251 30.4117749,34.8 32.4,34.8 C34.3882251,34.8 36,33.1882251 36,31.2 C36,29.2117749 34.3882251,27.6 32.4,27.6 C30.4117749,27.6 28.8,29.2117749 28.8,31.2 Z" id="路径" fill="#FFFFFF"></path>
                    </g>
                </g>
            </g>
        </g>
    </g>
</svg>