<svg width="37px" height="42px" viewBox="0 0 37 42" version="1.1" xmlns="http://www.w3.org/2000/svg" xmlns:xlink="http://www.w3.org/1999/xlink">
    <g id="高保真" stroke="none" stroke-width="1" fill="none" fill-rule="evenodd">
        <g id="我的" transform="translate(-28.000000, -884.000000)">
            <g id="安全中心" transform="translate(0.000000, 853.000000)">
                <rect id="矩形" stroke="#9B9B9B" fill="#FFFFFF" x="0" y="0" width="750" height="103"></rect>
                <g id="安全" transform="translate(28.000000, 31.000000)" fill-rule="nonzero">
                    <path d="M17.4622107,0.195951272 L2.95018163,5.9168764 C2.08696133,6.25718177 1.44619037,7.00157678 1.23682978,7.90730768 C-0.464971383,15.2695127 -0.416843522,21.6757045 1.41995042,27.1093174 L1.45155047,27.2028292 L1.49376212,27.2920113 C4.21911376,33.0483269 9.49655674,37.8444878 17.258806,41.7056252 C18.0536325,42.1010034 18.987857,42.0979517 19.7800955,41.6973894 L20.007212,41.5819468 C27.6817042,37.6600056 32.8785271,32.9073297 35.5371102,27.2920113 L35.5569248,27.2501263 L35.5744386,27.2073001 C37.4150358,22.6986866 37.4583744,16.3050603 35.7908966,7.98124175 C35.6022924,7.03976468 34.9492459,6.25888748 34.0573076,5.90831115 L19.5219423,0.194915912 C18.859846,-0.0653289883 18.1240463,-0.0649591259 17.4622107,0.195951272 Z M18.4936495,3.43041387 L32.5360915,8.95000866 L32.567316,9.10968931 C34.0077711,16.5314745 33.9561217,22.1121085 32.4912974,25.8102709 L32.4626555,25.8814283 L32.413072,25.9851054 C30.1096491,30.7410286 25.5539363,34.9066086 18.6858323,38.453185 L18.5091443,38.5438731 L18.3366822,38.4566676 C11.5125272,34.9868961 6.96066454,30.8233396 4.61967843,25.9890586 L4.59028522,25.927643 L4.57380436,25.878181 C3.03563793,21.218311 2.97863576,15.6233232 4.43810727,9.07815791 L4.46440151,8.96102112 L18.4936495,3.43041387 Z" id="形状" fill="#0066B3"></path>
                    <polygon id="路径" fill="#EF3535" points="17 11 21 11 21 28 17 28"></polygon>
                    <polygon id="路径" fill="#EF3535" points="28 17 28 21 11 21 11 17"></polygon>
                </g>
            </g>
        </g>
    </g>
</svg>