<?xml version="1.0" encoding="UTF-8"?>
<svg width="30px" height="32px" viewBox="0 0 30 32" version="1.1" xmlns="http://www.w3.org/2000/svg" xmlns:xlink="http://www.w3.org/1999/xlink">
    <g id="高保真" stroke="none" stroke-width="1" fill="none" fill-rule="evenodd">
        <g id="基金详情页" transform="translate(-25.000000, -840.000000)">
            <g id="图表" transform="translate(22.000000, 412.000000)">
                <g id="图表描述" transform="translate(0.000000, 358.000000)" fill-rule="nonzero">
                    <g id="safe" transform="translate(0.000000, 68.000000)">
                        <rect id="矩形" fill="#000000" opacity="0" x="0" y="0" width="36" height="36"></rect>
                        <path d="M18.095625,2.26655591 C17.97075,2.2452439 17.843625,2.24412222 17.71875,2.26543423 C14.353875,2.82851991 3.375,4.99000618 3.375,9.16603805 C3.375,22.6890679 14.344875,33.75 17.9055,33.75 C21.40425,33.75 32.625,22.4108901 32.625,9.16603805 C32.623875,5.19190942 22.464,3.01696293 18.095625,2.26655591 Z M17.8996023,32.0077171 C15.7286023,31.8029554 4.998875,21.7847562 4.998875,8.83706851 C4.998875,7.43863912 11.121875,5.1525212 17.8972386,4.00771711 C24.7789659,5.19905795 30.998875,7.48633929 30.998875,8.83706851 C30.998875,21.759161 20.1036932,31.7959749 17.8996023,32.0077171 Z" id="形状" fill="#0066B3"></path>
                        <path d="M24.95025,12.5221184 L16.74675,20.7878125 L13.116375,17.0683062 C12.681,16.6229974 11.97,16.6151457 11.525625,17.0458725 C11.080125,17.4777211 11.07,18.1888692 11.503125,18.6319346 L15.933375,23.1713923 C15.935625,23.1747573 15.940125,23.1747573 15.942375,23.1781224 C15.944625,23.1803658 15.94575,23.1848525 15.948,23.1870959 C16.021125,23.2588837 16.11,23.3015077 16.194375,23.3497401 C16.236,23.3732955 16.270875,23.4103111 16.313625,23.4271364 C16.44975,23.4832206 16.59375,23.5112627 16.738875,23.5112627 C16.88175,23.5112627 17.024625,23.4832206 17.159625,23.4293798 C17.2035,23.4114328 17.23725,23.3755389 17.278875,23.3531052 C17.36325,23.3059944 17.451,23.2644921 17.523,23.193826 C17.52525,23.1915826 17.526375,23.1870959 17.52975,23.1848525 C17.532,23.1814875 17.535375,23.1803658 17.53875,23.1781224 L26.548875,14.099207 C26.9865,13.658385 26.982,12.9494803 26.539875,12.513145 C26.1,12.0779313 25.385625,12.0812964 24.95025,12.5221184 Z" id="路径" fill="#EF3535"></path>
                    </g>
                </g>
            </g>
        </g>
    </g>
</svg>