<?xml version="1.0" encoding="UTF-8"?>
<svg width="96px" height="90px" viewBox="0 0 96 90" version="1.1" xmlns="http://www.w3.org/2000/svg" xmlns:xlink="http://www.w3.org/1999/xlink">
    <!-- Generator: Sketch 61 (89581) - https://sketch.com -->
    <title>扫一扫</title>
    <desc>Created with Sketch.</desc>
    <g id="高保真" stroke="none" stroke-width="1" fill="none" fill-rule="evenodd">
        <g id="首页2" transform="translate(-48.000000, -147.000000)">
            <g id="四个主要功能" transform="translate(49.000000, 148.000000)">
                <g id="扫一扫">
                    <g>
                        <rect id="矩形" fill="#000000" fill-rule="nonzero" opacity="0" x="22" y="19" width="50" height="50"></rect>
                        <path d="M64.4428571,66 L55.4857143,66 C54.5428571,66 53.9142857,65.3714286 53.9142857,64.4285714 C53.9142857,63.4857143 54.5428571,62.8571429 55.4857143,62.8571429 L64.4428571,62.8571429 C65.2285714,62.8571429 65.8571429,62.2285714 65.8571429,61.4428571 L65.8571429,52.6428571 C65.8571429,51.7 66.4857143,51.0714286 67.4285714,51.0714286 C68.3714286,51.0714286 69,51.7 69,52.6428571 L69,61.4428571 C69,63.9571429 66.9571429,66 64.4428571,66 Z M38.2,66 L29.5571429,66 C27.0428571,66 25,63.9571429 25,61.4428571 L25,52.6428571 C25,51.7 25.6285714,51.0714286 26.5714286,51.0714286 C27.5142857,51.0714286 28.1428571,51.7 28.1428571,52.6428571 L28.1428571,61.4428571 C28.1428571,62.2285714 28.7714286,62.8571429 29.5571429,62.8571429 L38.2,62.8571429 C39.1428571,62.8571429 39.7714286,63.4857143 39.7714286,64.4285714 C39.7714286,65.3714286 38.9857143,66 38.2,66 L38.2,66 Z M67.4285714,45.5714286 L26.5714286,45.5714286 C25.6285714,45.5714286 25,44.9428571 25,44 C25,43.0571429 25.6285714,42.4285714 26.5714286,42.4285714 L67.4285714,42.4285714 C68.3714286,42.4285714 69,43.0571429 69,44 C69,44.9428571 68.3714286,45.5714286 67.4285714,45.5714286 Z M67.4285714,36.7714286 C66.4857143,36.7714286 65.8571429,36.1428571 65.8571429,35.2 L65.8571429,26.5571429 C65.8571429,25.7714286 65.2285714,25.1428571 64.4428571,25.1428571 L55.6428571,25.1428571 C54.7,25.1428571 54.0714286,24.5142857 54.0714286,23.5714286 C54.0714286,22.6285714 54.7,22 55.6428571,22 L64.4428571,22 C66.9571429,22 69,24.0428571 69,26.5571429 L69,35.2 C69,36.1428571 68.3714286,36.7714286 67.4285714,36.7714286 Z M26.5714286,36.7714286 C25.6285714,36.7714286 25,36.1428571 25,35.2 L25,26.5571429 C25,24.0428571 27.0428571,22 29.5571429,22 L38.2,22 C39.1428571,22 39.7714286,22.6285714 39.7714286,23.5714286 C39.7714286,24.5142857 39.1428571,25.1428571 38.2,25.1428571 L29.5571429,25.1428571 C28.7714286,25.1428571 28.1428571,25.7714286 28.1428571,26.5571429 L28.1428571,35.2 C28.1428571,36.1428571 27.5142857,36.7714286 26.5714286,36.7714286 Z" id="形状" fill="#FFFFFF" fill-rule="nonzero"></path>
                        <rect id="矩形" stroke="#FFFFFF" stroke-width="2" x="0" y="0" width="94" height="88" rx="22"></rect>
                    </g>
                </g>
            </g>
        </g>
    </g>
</svg>