<svg xmlns="http://www.w3.org/2000/svg" width="49.75" height="50.877" viewBox="0 0 49.75 50.877">
  <g id="组_2" data-name="组 2" transform="translate(-75.559 -539.091)">
    <g id="组_9" data-name="组 9">
      <path id="路径_15" data-name="路径 15" d="M24.876,0C11.14,0,0,11.385,0,25.431A25.736,25.736,0,0,0,7.287,43.425a24.485,24.485,0,0,0,35.179,0,25.852,25.852,0,0,0,0-35.976A24.437,24.437,0,0,0,24.876,0Zm0,47.75A22.07,22.07,0,0,1,3.059,25.436,22.069,22.069,0,0,1,24.876,3.124,22.069,22.069,0,0,1,46.693,25.436,22.138,22.138,0,0,1,24.876,47.749Z" transform="translate(75.559 539.091)" fill="#0066b3"/>
      <path id="路径_16" data-name="路径 16" d="M2533.619,1086.511l-12.7,13.1,12.7,13.1,12.69-13.1Z" transform="translate(-2433.185 -535.189)" fill="#ef3535"/>
    </g>
    <path id="路径_17" data-name="路径 17" d="M2528.525,1086.511l-7.6,7.843,7.6,7.842,7.6-7.842Z" transform="translate(-2427.716 -530.15)" fill="#fff"/>
  </g>
</svg>
