<?xml version="1.0" encoding="UTF-8"?>
<svg width="37px" height="35px" viewBox="0 0 37 35" version="1.1" xmlns="http://www.w3.org/2000/svg" xmlns:xlink="http://www.w3.org/1999/xlink">
    <g id="高保真" stroke="none" stroke-width="1" fill="none" fill-rule="evenodd">
        <g id="基金详情页" transform="translate(-50.000000, -1715.000000)">
            <g id="底部" transform="translate(-1.000000, 1699.000000)">
                <rect id="矩形" stroke="#0066B3" fill="#FFFFFF" x="0" y="0" width="751" height="100"></rect>
                <g id="关注" transform="translate(1.000000, 1.000000)">
                    <rect id="矩形" fill="#FFFFFF" x="0" y="0" width="136" height="100"></rect>
                    <g id="star" transform="translate(50.000000, 14.000000)" fill-rule="nonzero">
                        <rect id="矩形" fill="#000000" opacity="0" x="0" y="0" width="36.28125" height="36"></rect>
                        <path d="M36.1469379,14.1736645 C35.8328683,13.2767226 35.0267186,12.6200129 34.0561641,12.4774452 L24.6159349,11.0876903 L20.5126212,2.65261935 C20.0806338,1.76690323 19.1565662,1.2 18.1406587,1.2 C17.1247513,1.2 16.2006837,1.76690323 15.7686962,2.65261935 L11.6653826,11.0876903 L2.22401949,12.4774452 C1.25459888,12.6200129 0.448449107,13.2767226 0.135513331,14.1736645 C-0.17628862,15.0728516 0.0595470373,16.0629677 0.744377504,16.7387613 L7.66297934,23.5775226 L6.05861657,33.0644516 C5.89534573,34.0197677 6.31372726,34.9784516 7.13348293,35.5374968 C7.58361157,35.8439613 8.11310797,36 8.64260438,36 C9.07799328,36 9.51451601,35.8944774 9.91022104,35.6845548 L18.1406587,31.2975097 L26.3722302,35.6845548 C26.7679352,35.8944774 27.204458,36 27.6387131,36 C28.1682095,36 28.6977059,35.8439613 29.1489683,35.5374968 C29.968724,34.9784516 30.3848379,34.0197677 30.2227009,33.0644516 L28.6172043,23.5775226 L35.5380738,16.7387613 C36.2217704,16.0618452 36.4564722,15.071729 36.1469379,14.1736645 Z M26.7441249,21.8139484 C26.1636064,22.3864645 25.9005589,23.1936 26.0332165,23.9850194 L27.6387131,33.4719484 L19.4071415,29.0871484 C19.0125704,28.8761032 18.5771814,28.7717032 18.1395249,28.7717032 C17.704136,28.7717032 17.2676133,28.8772258 16.8730421,29.0871484 L8.64147055,33.4719484 L10.2469671,23.9850194 C10.3807585,23.1936 10.1177111,22.3864645 9.53719252,21.8139484 L2.61859069,14.9751871 L12.0588199,13.5831871 C12.921661,13.4563355 13.6643165,12.9219871 14.0350774,12.1597548 L18.1406587,3.72692903 L22.2451062,12.1608774 C22.6170009,12.9231097 23.3585226,13.4563355 24.2202298,13.5843097 L33.6627267,14.9763097 L26.7441249,21.8139484 L26.7441249,21.8139484 Z" id="形状" fill="#EF3535"></path>
                    </g>
                </g>
            </g>
        </g>
    </g>
</svg>