<?xml version="1.0" encoding="UTF-8"?>
<svg width="43px" height="42px" viewBox="0 0 43 42" version="1.1" xmlns="http://www.w3.org/2000/svg" xmlns:xlink="http://www.w3.org/1999/xlink">
    <!-- Generator: Sketch 61 (89581) - https://sketch.com -->
    <title>我的持仓</title>
    <desc>Created with Sketch.</desc>
    <defs>
        <path d="M11.4891406,16.55 C11.342,16.7331406 11.372,17 11.5551406,17.15 L15.1731406,20.0808594 C15.2511406,20.1468594 15.3471406,20.1737656 15.44,20.1737656 C15.5568594,20.1737656 15.68,20.1228594 15.758,20.0297656 L20.384,14.7108594 L21.0982344,15.3048594 C21.1522344,15.35 21.2271406,15.3768594 21.2991406,15.3768594 C21.3413281,15.3768594 21.383375,15.368 21.4282344,15.3528594 C21.533375,15.3048594 21.611375,15.2028594 21.6171406,15.0828594 L21.761375,12.9077656 C21.7671569,12.8064132 21.7262265,12.7079902 21.6502813,12.640625 C21.5691406,12.574625 21.4671406,12.5537656 21.3682344,12.574625 L19.2531406,13.108625 C19.136,13.138625 19.0491406,13.2315313 19.0191406,13.348625 C18.992,13.4655313 19.0371406,13.588625 19.13,13.6637656 L19.7268594,14.164625 L15.3828594,19.162625 L12.0831406,16.49 C11.9005831,16.3421365 11.6362813,16.3668594 11.4891406,16.55 Z" id="path-1"></path>
    </defs>
    <g id="高保真" stroke="none" stroke-width="1" fill="none" fill-rule="evenodd">
        <g id="黄金" transform="translate(-442.000000, -393.000000)" fill-rule="nonzero">
            <g id="icon栏" transform="translate(57.000000, 385.000000)">
                <g id="持仓查询" transform="translate(369.000000, 8.000000)">
                    <g id="我的持仓" transform="translate(16.000000, 0.000000)">
                        <path d="M19.9551406,32.192 L16.532,35.492 C16.088,35.9211406 15.3830937,35.9211406 14.942,35.492 L11.522,32.192 C11.012,31.7 10.2051406,31.7 9.69514062,32.192 L6.42514062,35.3511406 C5.98114062,35.774 5.276,35.774 4.83514062,35.3511406 L3.31114062,33.8811406 C3.086,33.6651406 2.96023437,33.3651406 2.96023437,33.056 L2.96023437,5.58514062 C2.96023437,4.34914062 3.96823437,3.34423437 5.20114062,3.34423437 C5.21023437,3.34423437 5.21914062,3.34114062 5.22823437,3.34114062 C5.24023437,3.34114062 5.25223437,3.34423437 5.26423437,3.34423437 L5.27023437,3.34423437 C6.575375,3.35023437 7.63423437,4.35514062 7.63423437,5.58514062 C7.63423437,6.82423437 6.56914062,7.826 5.26114062,7.826 C4.52914062,7.826 3.94114062,8.41685937 3.94114062,9.14314062 C3.94114062,9.86914062 4.532,10.46 5.25823437,10.46 L27.3562344,10.46 C27.9891406,10.46 28.4991406,10.97 28.4991406,11.6031406 L28.4991406,21.2182344 C28.4991406,21.851375 29.0091406,22.3671406 29.6422344,22.3671406 L29.987375,22.3671406 C30.6204687,22.3671406 31.133375,21.851375 31.133375,21.2182344 L31.133375,11.0931406 C31.133375,10.64 31.4064687,10.22 31.8202344,10.0431406 C33.5842344,9.28714062 34.8202344,7.57114062 34.8202344,5.57914062 C34.8202344,2.88823437 32.5702344,0.701140625 29.8102344,0.701140625 L5.18314062,0.701140625 C2.492,0.701140625 0.305140625,2.88823437 0.305140625,5.57914062 L0.305140625,34.094 C0.305140625,34.4511406 0.449140625,34.79 0.707140625,35.042 L4.69114062,38.8851406 C5.20114062,39.3771406 6.01114062,39.3771406 6.51823437,38.8851406 L9.79114062,35.7262344 C10.2351406,35.2971406 10.9402344,35.2971406 11.3782344,35.7262344 L14.8011406,39.0262344 C15.3111406,39.5182344 16.1242344,39.5182344 16.6342344,39.0262344 L20.0571406,35.7262344 C20.501375,35.2971406 21.2062344,35.2971406 21.644,35.7262344 C22.37,36.4282344 23.5850937,35.9151406 23.5850937,34.9011406 L23.6,33.944 L21.782,32.192 C21.2724203,31.7000091 20.4647203,31.7000091 19.9551406,32.192 Z M29.8189062,3.34090625 C31.1269062,3.34090625 32.1889062,4.34885937 32.1889062,5.58176562 C32.1889062,6.81485937 31.1300469,7.82885937 29.8220469,7.82885937 L9.70685937,7.82885937 C10.0668594,7.15685937 10.2708594,6.39485937 10.2708594,5.588 C10.268,4.77514062 10.0668594,4.01 9.70685937,3.34085937 L29.8189062,3.34090625 Z M36.9649062,31.9788594 L36.8509062,31.9788594 L36.8509062,26.4617656 C36.8509062,24.8508594 34.0458125,24.0077656 31.2766719,24.0077656 C28.5077656,24.0077656 25.7058125,24.8508594 25.7058125,26.4617656 L25.7058125,35.1682344 C25.7058125,36.773375 28.5109062,37.6162344 31.2766719,37.6162344 L31.3909062,37.6162344 L31.3909062,38.7831406 C31.3909062,40.394 34.1960469,41.2371406 36.9649062,41.2371406 C39.7337656,41.2371406 42.5360469,40.394 42.5360469,38.7831406 L42.5360469,34.1748594 L42.5089062,34.1688594 C42.2211875,32.7288594 39.5780469,31.9788594 36.9649062,31.9788594 Z M27.0411406,28.1089062 C27.4911406,28.3311875 28.0311406,28.5080469 28.6251406,28.6369062 C29.1562344,28.7538125 29.7231406,28.8349062 30.3111406,28.8769062 C30.632,28.9011875 30.9562344,28.9129062 31.2831406,28.9129062 C31.604,28.9129062 31.934,28.9009062 32.2582344,28.8769062 C32.843375,28.8349062 33.4102344,28.7538125 33.944,28.6369062 C34.532,28.5080469 35.0750937,28.3249062 35.5250937,28.1089062 C35.774,28.2920469 35.9062344,28.4720469 35.9062344,28.6369062 C35.9062344,28.8017656 35.7711406,28.9880469 35.5251406,29.1649062 C35.39,29.2700469 35.2131406,29.3689062 35.0031406,29.4709062 C34.8111406,29.5578125 34.58,29.6478125 34.322,29.7287187 C33.5451406,29.9629062 32.51,30.1338125 31.28,30.1338125 C30.0531406,30.1338125 29.018,29.9629062 28.238,29.7286719 C27.98,29.6478125 27.7548594,29.5578125 27.5569062,29.4709062 C27.3528594,29.3718125 27.176,29.2729062 27.0348594,29.1649062 C26.798,28.9818125 26.6597656,28.8018125 26.6597656,28.6369062 C26.6597656,28.472 26.798,28.2920469 27.0411406,28.1089062 L27.0411406,28.1089062 Z M27.0411406,30.2840469 C27.4911406,30.5062812 28.0311406,30.6831875 28.622,30.8120469 C29.15,30.9289062 29.7171406,31.0100469 30.2988594,31.0520469 C30.62,31.0762812 30.95,31.0880469 31.2768594,31.0880469 C31.6037187,31.0880469 31.9337656,31.0760469 32.258,31.0520469 C32.84,31.0100469 33.41,30.9289062 33.938,30.8120469 C34.5288594,30.6831406 35.0688594,30.5000469 35.516,30.2840469 C35.7649062,30.4671875 35.8937656,30.6471875 35.8937656,30.8120469 C35.8937656,30.9769062 35.758625,31.1631406 35.516,31.3462812 C35.378,31.4451875 35.2068594,31.5440469 34.9968594,31.6462812 C34.7988594,31.7391875 34.5737656,31.8231875 34.316,31.9040469 C33.536,32.1440469 32.5008594,32.3091875 31.2708594,32.3091875 C30.0408594,32.3091875 29.0057656,32.1440469 28.2257656,31.9040469 C27.9677656,31.8231875 27.7515312,31.7331875 27.550625,31.6462812 C27.3463906,31.5471875 27.1695312,31.4482812 27.0284375,31.3462812 C26.7975312,31.1571875 26.6595312,30.9740469 26.6595312,30.8120469 C26.66,30.6469062 26.798,30.4669062 27.0410937,30.2840469 L27.0411406,30.2840469 Z M31.3911406,36.6080469 L31.3911406,36.6680469 L31.2768594,36.6680469 C28.46,36.6649062 26.66,35.7738125 26.66,35.1649062 C26.66,34.9998125 26.798,34.8138125 27.0410937,34.6309062 C28.112,35.1649062 29.7051406,35.4409062 31.2768594,35.4409062 L31.3911406,35.4409062 L31.3911406,36.6080469 L31.3911406,36.6080469 Z M31.622,33.6740469 C31.4688594,33.9020469 31.388,34.1540469 31.388,34.4300469 L31.388,34.4840469 L31.2737656,34.4840469 C30.0468594,34.4840469 29.008625,34.3189062 28.228625,34.0789063 C27.9828594,33.9920469 27.7577656,33.9111875 27.5628594,33.8149062 C27.358625,33.7160469 27.1817656,33.6169062 27.0408594,33.5149063 C26.7977656,33.3318125 26.6597656,33.1460469 26.6597656,32.9809063 C26.6597656,32.8157656 26.7977656,32.6358125 27.0408594,32.4529062 C27.4908594,32.6749062 28.0308594,32.8518125 28.6248594,32.9809063 C29.156,33.0978125 29.7228594,33.1787188 30.3048594,33.2209062 C30.626,33.2449062 30.956,33.2629063 31.2768594,33.2629063 C31.5228594,33.2629063 31.766,33.2569063 32.0028594,33.2386719 C31.85,33.3740469 31.718,33.5211875 31.622,33.6740469 L31.622,33.6740469 Z M32.3388594,36.5960469 C32.3388594,36.4309062 32.474,36.2509062 32.72,36.0680469 C32.99,36.2031875 33.2989062,36.3200469 33.6289062,36.4249063 C33.8448594,36.4880469 34.0668594,36.5480469 34.298,36.6018125 C34.3911406,36.6198125 34.4869062,36.6438125 34.58,36.6618125 C34.886,36.7160469 35.2010937,36.7609063 35.522,36.8029063 C35.6751406,36.8149062 35.828,36.8329063 35.978,36.8449063 C36.6290411,36.892832 37.2827246,36.892832 37.9337656,36.8449062 C38.5128594,36.8029062 39.0888594,36.7218125 39.6137656,36.6049062 C40.2017656,36.4760469 40.7417656,36.2929062 41.1917656,36.0769062 C41.4377656,36.2600469 41.5728594,36.4400469 41.5728594,36.6049062 C41.5728594,36.7697656 41.4377656,36.9500469 41.1917656,37.1389062 C41.066,37.2380469 40.8917656,37.3369063 40.6877656,37.4389063 C40.4897656,37.5320469 40.264625,37.6160469 40.0066719,37.6969063 C39.2266719,37.9311875 38.1915312,38.1020469 36.964625,38.1020469 C35.734625,38.1020469 34.696625,37.9311875 33.9195312,37.6969063 C33.6884375,37.6280469 33.4784375,37.5438125 33.2955312,37.4629063 C33.2775312,37.4509063 33.2595312,37.4386719 33.2383906,37.4329063 C33.0556666,37.3508193 32.881797,37.2502985 32.7194844,37.1329063 C32.6835312,37.1086719 32.6563906,37.0849063 32.6294844,37.0638125 C32.4435312,36.9049063 32.3475312,36.7518125 32.3383906,36.6138125 C32.3388594,36.6080469 32.3388594,36.6020469 32.3388594,36.5960469 L32.3388594,36.5960469 Z M36.9651406,40.2800469 C34.142,40.2800469 32.3482344,39.3949063 32.3482344,38.7800469 C32.3482344,38.6149063 32.483375,38.4289531 32.7262344,38.2520469 C33.8002344,38.7862813 35.3902344,39.0562813 36.9651406,39.0562813 C38.5371406,39.0562813 40.1302344,38.7862813 41.2011406,38.2520469 C41.4468594,38.4351875 41.5820041,38.6151875 41.5820041,38.7800469 C41.5851406,39.3889531 39.7851406,40.2800469 36.9651406,40.2800469 L36.9651406,40.2800469 Z" id="形状" fill="#2962FF"></path>
                        <path d="M8.38685938,26.6751406 C8.38685938,26.9631406 8.62685938,27.2031406 8.91485938,27.2031406 L22.7989063,27.2031406 C23.0931875,27.2031406 23.3300469,26.9631406 23.3300469,26.6751406 C23.3240469,26.3811406 23.0900469,26.1411406 22.7931875,26.1411406 L8.91514063,26.1411406 C8.624,26.1411406 8.38685938,26.3811406 8.38685938,26.6751406 Z" id="路径" fill="#EF3535"></path>
                        <path d="M10.4239952,21.074 L10.4239952,24.992 C10.4239952,25.1630938 10.5648594,25.304 10.742,25.304 L12.8391406,25.304 C13.0131406,25.304 13.1571452,25.1631406 13.1571452,24.9888594 L13.1571452,21.0737656 C13.1575931,20.9893104 13.1242274,20.9081866 13.0644856,20.8484889 C13.0047439,20.7887912 12.9235955,20.7554853 12.8391406,20.7559941 L10.742,20.7559941 C10.6575196,20.7555354 10.5763648,20.7888897 10.5166273,20.8486273 C10.4568897,20.9083648 10.4235354,20.9895196 10.4239952,21.074 L10.4239952,21.074 Z" id="路径" fill="#EF3535"></path>
                        <path d="M14.45,22.8589062 L14.45,24.992 C14.45,25.1688594 14.5908594,25.3071406 14.768,25.3071406 L16.862,25.3071406 C17.0391406,25.3071406 17.1830937,25.1662344 17.1830937,24.992 L17.1830937,22.8651406 C17.1830937,22.6882344 17.042,22.55 16.862,22.55 L14.768,22.55 L14.768,22.544 C14.594,22.544 14.45,22.6850937 14.45,22.8588594 L14.45,22.8589062 Z" id="路径" fill="#EF3535"></path>
                        <path d="M18.5714867,18.6586273 C18.5117491,18.7183648 18.4783948,18.7995196 18.4788499,18.884 L18.4788499,24.992 C18.4788499,25.1688594 18.6197656,25.3071406 18.7968594,25.3071406 L20.8911406,25.3071406 C21.0651406,25.3071406 21.2088594,25.1662344 21.2088594,24.992 L21.2088594,18.884 C21.2088594,18.704 21.068,18.5659905 20.8911406,18.5659905 L18.7968594,18.5659905 C18.712379,18.5655354 18.6312242,18.5988897 18.5714867,18.6586273 Z" id="路径" fill="#EF3535"></path>
                        <g id="路径">
                            <use fill="#2962FF" xlink:href="#path-1"></use>
                            <use fill="#EF3535" xlink:href="#path-1"></use>
                        </g>
                    </g>
                </g>
            </g>
        </g>
    </g>
</svg>