<svg width="16px" height="16px" viewBox="0 0 16 16" version="1.1" xmlns="http://www.w3.org/2000/svg" xmlns:xlink="http://www.w3.org/1999/xlink">
    <g id="页面-1" stroke="none" stroke-width="1" fill="none" fill-rule="evenodd">
        <g id="iPhone-8" transform="translate(-97.000000, -177.000000)" fill="#52C41A" fill-rule="nonzero">
            <g id="success" transform="translate(97.000000, 177.000000)">
                <path d="M14,7.99999991 C14,5.85640644 12.8564065,3.87564429 11,2.8038475 C9.14359355,1.73205071 6.85640645,1.73205071 5,2.8038475 C3.1435935,3.87564429 2,5.85640644 2,7.99999991 C2,11.3137085 4.68629154,13.9999999 8,13.9999999 C11.3137085,13.9999999 14,11.3137085 14,7.99999991 L14,7.99999991 Z M0.666666672,8 C0.666666672,3.95 3.95,0.666666672 8,0.666666672 C12.05,0.666666672 15.3333333,3.95 15.3333333,8 C15.3333333,12.05 12.05,15.3333333 8,15.3333333 C3.95,15.3333333 0.666666672,12.05 0.666666672,8 Z M10.862,5.52866667 L11.8046667,6.47133333 L7.33333333,10.9426667 L4.19533333,7.80466667 L5.138,6.862 L7.33333333,9.05733333 L10.862,5.52866667 L10.862,5.52866667 Z" id="形状"></path>
            </g>
        </g>
    </g>
</svg>