<?xml version="1.0" encoding="UTF-8"?>
<svg width="38px" height="38px" viewBox="0 0 38 38" version="1.1" xmlns="http://www.w3.org/2000/svg" xmlns:xlink="http://www.w3.org/1999/xlink">
    <g id="高保真" stroke="none" stroke-width="1" fill="none" fill-rule="evenodd">
        <g id="我的" transform="translate(-26.000000, -1093.000000)">
            <g id="意见反馈" transform="translate(0.000000, 1059.000000)">
                <rect id="矩形" stroke="#9B9B9B" fill="#FFFFFF" x="0" y="0" width="750" height="103"></rect>
                <g transform="translate(26.000000, 34.000000)">
                    <rect id="矩形" fill="#EF3535" x="12" y="26" width="21" height="1.5" rx="0.75"></rect>
                    <path d="M37.1960071,14.4623305 C37.1395554,13.9477175 36.7037229,13.547183 36.174126,13.547183 C35.644571,13.547183 35.2086965,13.9477175 35.1523287,14.4623305 L35.1457392,14.4623305 L35.1457392,32.3116947 C35.1457392,33.9500538 33.8129748,35.2827343 32.1746576,35.2827343 L5.77795654,35.2827343 C4.13976524,35.2827343 2.8069169,33.9500958 2.8069169,32.3116947 L2.8069169,5.70068692 C2.8069169,4.0623697 4.13976524,2.72956336 5.77795654,2.72956336 L23.4991815,2.72813634 C24.0540873,2.71311051 24.4995313,2.25969197 24.4995313,1.70113466 C24.4995313,1.14261932 24.0540873,0.689158773 23.4991815,0.674174945 L23.4991815,0.67270593 L5.77795654,0.67270593 C3.00548429,0.67270593 0.750017471,2.92825666 0.750017471,5.700603 L0.750017471,32.3116947 C0.750017471,35.084125 3.00552624,37.3395498 5.77795654,37.3395498 L32.1746576,37.3395498 C34.9470879,37.3395498 37.2025547,35.084083 37.2025547,32.3116947 L37.2025547,14.4623305 L37.1959652,14.4623305 L37.1960071,14.4623305 L37.1960071,14.4623305 Z M10.709487,25.2336136 L10.7048701,25.2527946 C10.6207172,25.6099305 10.5481484,26.2779915 11.008786,26.7383354 C11.2944444,27.0244554 11.6600165,27.1049569 11.9813926,27.1049569 C12.1775676,27.1049569 12.3574577,27.0748633 12.4927319,27.0431748 L18.1102453,25.5599004 L36.0139206,7.65626709 C36.6398422,7.03034547 36.9845545,6.19817569 36.9845545,5.31312174 C36.9845545,4.42794188 36.6398422,3.5958141 36.0139206,2.96993444 L34.7749206,1.73093448 C33.4827427,0.438924455 31.380556,0.438588701 30.0882941,1.73089253 L12.1830239,19.6362466 L10.7095289,25.2336976 L10.709487,25.2336136 L10.709487,25.2336136 Z M13.8346881,21.3260629 L16.4216042,23.9126432 L12.9427928,24.8045805 L13.8346881,21.3260629 L13.8346881,21.3260629 Z M15.0727647,19.6550499 L29.0649859,5.66291255 L32.0816906,8.67961722 L18.0895113,22.6717965 L15.0727647,19.6550918 L15.0727647,19.6550499 L15.0727647,19.6550499 Z M33.3203548,3.18512247 L34.5594387,4.42420639 C35.0495824,4.91426612 35.0495824,5.71168349 34.5594387,6.20186914 L33.5359626,7.22521932 L30.5194258,4.20851465 L31.542692,3.18512251 C32.0329196,2.6948529 32.8304209,2.6951467 33.3202708,3.18508055 L33.3203548,3.18512247 L33.3203548,3.18512247 Z" id="形状" fill="#0066B3" fill-rule="nonzero"></path>
                </g>
            </g>
        </g>
    </g>
</svg>