<?xml version="1.0" encoding="UTF-8"?>
<svg width="42px" height="42px" viewBox="0 0 42 42" version="1.1" xmlns="http://www.w3.org/2000/svg" xmlns:xlink="http://www.w3.org/1999/xlink">
    <!-- Generator: Sketch 61 (89581) - https://sketch.com -->
    <title>系统</title>
    <desc>Created with Sketch.</desc>
    <g id="高保真" stroke="none" stroke-width="1" fill="none" fill-rule="evenodd">
        <g id="消息中心" transform="translate(-27.000000, -397.000000)">
            <g id="系统通知" transform="translate(0.000000, 367.000000)">
                <g id="系统" transform="translate(27.000000, 30.000000)">
                    <rect id="矩形" fill="#000000" fill-rule="nonzero" opacity="0" x="0" y="0" width="42" height="42"></rect>
                    <path d="M41.2074154,22.0389175 L41.171461,20.0185265 C41.1537955,19.0283865 40.7516459,18.1044193 40.0390411,17.416754 C39.3264778,16.7291303 38.3906228,16.3598177 37.3986124,16.3777742 L36.4238102,16.3951071 C36.0933617,15.3199234 35.6552577,14.2830634 35.1140288,13.2953342 L35.9661702,12.5100307 C36.6944038,11.8389086 37.1176688,10.92446 37.1580708,9.93498512 C37.1984313,8.94551019 36.851107,7.99959624 36.1800265,7.27136267 L34.8106813,5.78538372 C33.4253748,4.2821965 31.0752419,4.18617942 29.5720132,5.57156902 L28.4304072,6.62364212 C27.5015769,6.11695448 26.5291023,5.70100506 25.5227517,5.37995046 L25.5227517,4.38644358 C25.5227517,2.34219378 23.8596191,0.679061168 21.8153693,0.679061168 L19.7946873,0.679061168 C17.7504375,0.679061168 16.0873049,2.34219374 16.0873049,4.38644358 L16.0873049,5.1603996 C15.0018129,5.45127737 13.9505295,5.85093296 12.9447608,6.35516823 L12.2453739,5.71064825 C11.5171403,5.0395677 10.5711017,4.69228504 9.58175142,4.73260393 C8.59227649,4.77296437 7.67778633,5.19627093 7.00670578,5.92446295 L5.63731904,7.41040035 C4.25197098,8.91367071 4.34790497,11.2637204 5.85117533,12.6490685 L6.02462958,12.8088891 C5.33222575,13.9770141 4.78887704,15.2175883 4.40094297,16.5164794 C3.41703785,16.5032614 2.48666955,16.8722414 1.77830445,17.5557502 C1.06569959,18.2433739 0.663550043,19.1673827 0.645926121,20.1574811 L0.609930111,22.1778306 C0.592264641,23.167929 0.961286197,24.105696 1.64895154,24.8182593 C2.33657529,25.5308641 3.26058403,25.9329721 4.25068247,25.9506376 L4.35031579,25.952425 C4.71056697,27.2070068 5.21596605,28.4103796 5.86061077,29.5485356 L5.63902324,29.7886199 C4.96744389,30.5163963 4.61945462,31.4621024 4.65923313,32.4515773 C4.69897009,33.4410938 5.12165317,34.3558334 5.84938795,35.0274127 L7.33445245,36.397797 C8.04610127,37.0544958 8.94766446,37.3789172 9.84723247,37.3788756 C10.8466832,37.3787925 11.84364,36.9780562 12.5732453,36.1873907 L12.6308971,36.1249588 C13.7565833,36.7198076 14.9409189,37.1810638 16.1704782,37.5035316 L16.1704782,37.5966391 C16.1704782,39.6409305 17.8336107,41.3040215 19.8778606,41.3040215 L21.8985425,41.3040215 C23.9428339,41.3040215 25.605925,39.6408889 25.605925,37.5966391 L25.605925,37.2349747 C26.772221,36.8565177 27.8893447,36.351451 28.9458653,35.7250953 L29.2442249,36.0483945 C29.9157627,36.7761708 30.8305438,37.1988539 31.8200603,37.2385909 C32.8099925,37.2788682 33.7553244,36.9303802 34.4830177,36.2588424 L35.9680822,34.888458 C36.6958586,34.2169202 37.1185417,33.3020976 37.1582786,32.3126226 C37.1980156,31.3231061 36.8500679,30.3774 36.1784885,29.6496652 L35.3980898,28.803925 C35.8757229,27.8505292 36.2597082,26.8557754 36.5460553,25.8298472 L37.5668709,25.8116414 C39.6105803,25.7753128 41.2438271,24.0828348 41.2074154,22.0389175 Z M38.1988796,22.8286686 C38.0117086,23.0097294 37.7582816,23.106079 37.4979132,23.1106928 L35.4573211,23.1470629 C34.8273907,23.1582857 34.2888637,23.6034975 34.1593861,24.2200852 L34.1593861,24.2201268 C33.8552904,25.6679898 33.3247023,27.0525481 32.5824195,28.3353532 L32.5823779,28.3353947 C32.2859719,28.8476107 32.3575067,29.4931282 32.7588249,29.9280317 L34.1927635,31.4819708 C34.3749466,31.6793669 34.469301,31.9358698 34.458577,32.2042604 C34.4477699,32.4726511 34.3331313,32.7207576 34.1357351,32.9029407 L32.6506706,34.2733251 C32.4532329,34.4554666 32.1959403,34.5500704 31.9283394,34.5390971 C31.6599487,34.5282899 31.4118422,34.4136514 31.2296591,34.2162552 L30.1634952,33.0608494 C29.7069359,32.5660912 28.955758,32.4830426 28.4021425,32.8660719 L28.4021425,32.8660719 C27.0336702,33.8128587 25.5257029,34.5012306 23.9200559,34.912109 L23.9200559,34.912109 C23.3222143,35.0650713 22.9040619,35.6037231 22.9040619,36.2208096 L22.9040619,37.5967222 C22.9040619,38.152125 22.4538207,38.6023247 21.8984594,38.6023247 L19.877819,38.6023247 C19.3224162,38.6023247 18.8722165,38.1520835 18.8722165,37.5967222 L18.8722165,36.425272 C18.8722165,35.7771773 18.4119579,35.2204029 17.7754186,35.0985318 L17.7753771,35.0985318 C16.1071735,34.7790567 14.5262581,34.1635912 13.076483,33.2691358 L13.0764415,33.2691358 C12.5263175,32.9297091 11.8127982,33.0275967 11.3744033,33.5026943 L10.5876449,34.3552929 C10.2115988,34.7628044 9.57414495,34.788409 9.16667497,34.4123628 L7.68161047,33.0419785 C7.48421428,32.859837 7.36957565,32.6116889 7.35876857,32.3432982 C7.34800303,32.0749075 7.44235747,31.8184047 7.62454059,31.6210085 L8.53649524,30.632739 C8.95610244,30.1780087 9.01313077,29.4963288 8.67486793,28.9782106 L8.67486793,28.9782106 C7.74408399,27.5523774 7.08842433,25.9891275 6.72613643,24.3317726 L6.72613643,24.331731 C6.59246068,23.7202975 6.05630283,23.2807387 5.43052904,23.2695574 L4.29877424,23.249398 C3.74436899,23.2395469 3.30136025,22.7804937 3.31105018,22.2260885 L3.34683329,20.2268545 C3.35148864,19.9659457 3.44812925,19.7119784 3.62973044,19.524558 C3.82575498,19.322257 4.09015532,19.2136039 4.37055847,19.2181345 L5.41269734,19.2367145 C6.05193844,19.2481035 6.61158098,18.8098332 6.75377776,18.1865118 L6.75377776,18.1864703 C7.15006651,16.4492674 7.86682796,14.822588 8.88411046,13.3516144 L8.88411046,13.3515728 C9.2671813,12.7976664 9.18375864,12.0461975 8.68850161,11.5898461 L7.68202624,10.6623042 C7.2742653,10.2865074 7.24824507,9.64909522 7.62400033,9.24133428 L8.99338707,7.75539688 C9.17540392,7.55787596 9.42346888,7.44302955 9.69185954,7.43209774 C9.96020862,7.42120747 10.2167946,7.51535412 10.4143155,7.69741252 L11.8219844,8.99468251 C12.2569709,9.39554351 12.9021975,9.46678737 13.4141225,9.1704229 L13.4141641,9.17038135 C14.748012,8.3982958 16.1898065,7.85581995 17.6994779,7.55804224 L17.6995195,7.55804224 C18.3326089,7.43317846 18.7889603,6.87798345 18.7889603,6.23275685 L18.7889602,4.38644358 C18.7889602,3.83108234 19.2392014,3.38084111 19.7945626,3.38084111 L21.8152446,3.38084111 C22.3706059,3.38084111 22.8208471,3.83108234 22.8208471,4.38644358 L22.8208471,6.3998931 C22.8208471,7.01980613 23.242782,7.56012054 23.8441566,7.71042263 L23.8441982,7.71042263 C25.2762246,8.06830455 26.6377554,8.64960288 27.890841,9.43814854 L27.8908825,9.43819008 C28.4071719,9.76306874 29.0771718,9.70159284 29.5257503,9.28822051 L31.4027807,7.5584163 C31.8105001,7.1826195 32.4479539,7.20859814 32.8237507,7.61640067 L34.1930959,9.10237962 C34.3751543,9.29990053 34.4693425,9.55648649 34.4584107,9.82483556 C34.4474789,10.0931846 34.332674,10.3412496 34.1351531,10.523308 L32.4790451,12.0495227 C31.997297,12.4934875 31.9035245,13.219144 32.2566679,13.7709722 L32.2566679,13.7709722 C33.1059828,15.0982943 33.7201181,16.5466146 34.082115,18.0757389 L34.082115,18.0757804 C34.2284268,18.6938645 34.785617,19.126565 35.4207015,19.1152175 L37.4467039,19.0791384 C37.7150114,19.0742336 37.9696438,19.1744488 38.1628834,19.3609963 C38.3561646,19.5475023 38.4652334,19.7981443 38.470055,20.0666597 L38.470055,20.0666597 L38.5061781,22.0870923 C38.5110806,22.3675371 38.4016377,22.6325609 38.1988796,22.8286686 Z" id="形状" fill="#2962FF" fill-rule="nonzero"></path>
                    <circle id="椭圆形" stroke="#EF3535" stroke-width="2" fill="#FFFFFF" cx="21" cy="21" r="5"></circle>
                </g>
            </g>
        </g>
    </g>
</svg>