<?xml version="1.0" standalone="no"?><!DOCTYPE svg PUBLIC "-//W3C//DTD SVG 1.1//EN" "http://www.w3.org/Graphics/SVG/1.1/DTD/svg11.dtd"><svg t="1607521179108" class="icon" viewBox="0 0 1024 1024" version="1.1" xmlns="http://www.w3.org/2000/svg" p-id="8889" xmlns:xlink="http://www.w3.org/1999/xlink" width="128" height="128"><defs><style type="text/css"></style></defs><path d="M0 502.897778c0 277.754311 226.235733 502.920533 505.332622 502.920533 279.074133 0 505.309867-225.166222 505.309867-502.897778C1010.642489 225.143467 784.384 0 505.332622 0 226.235733 0 0 225.166222 0 502.897778z" fill="#004186" p-id="8890"></path><path d="M867.5328 510.7712c0-111.0016-126.316089-203.320889-282.282667-203.320889-126.293333 0-230.923378 58.936889-267.446044 138.490311-2.958222 5.893689-4.937956 15.701333-4.937956 21.617778 0 18.659556 9.875911 40.277333 28.626489 49.106489l140.128711 99.214222c7.918933 2.935467 15.792356 5.893689 25.691023 5.893689 9.853156 0 17.749333-2.958222 25.645511-5.916444l136.192-95.254756c7.896178-5.916444 12.834133-15.701333 12.834133-27.511467 0-11.787378-4.937956-18.659556-12.834133-27.511466l-48.355556-37.319111-112.526222 79.553422-84.878222-58.936889c33.564444-37.319111 92.7744-58.936889 164.841244-58.936889 102.627556 0 190.464 52.064711 190.464 116.895289-2.958222 102.172444-126.293333 181.725867-277.321955 172.873955-151.005867-8.829156-273.385244-91.3408-268.447289-193.490488 0-135.554844 149.026133-240.662756 326.678755-240.662756 15.792356 0 33.564444 0 46.398578 2.958222-35.544178-15.724089-81.92-27.511467-133.256533-27.511466-51.313778 0-76.982044 5.916444-110.523734 15.701333-129.297067 52.087467-219.136 150.300444-219.136 265.216 0 154.2144 164.841244 280.940089 365.181156 280.940089 200.362667 0 359.264711-114.915556 359.264711-272.088178z" fill="#FFFFFF" p-id="8891"></path></svg>