<svg xmlns="http://www.w3.org/2000/svg" width="40.697" height="52" viewBox="0 0 40.697 52">
  <g id="组_4" data-name="组 4" transform="translate(-170.667 -75.862)">
    <path id="路径_19" data-name="路径 19" d="M202.32,127.862a2.268,2.268,0,0,1-2.262-2.26v-2.26H181.972v2.26a2.261,2.261,0,0,1-4.522,0v-2.26h-4.522a2.268,2.268,0,0,1-2.26-2.262V89.427a2.268,2.268,0,0,1,2.26-2.262h6.783V78.122a2.268,2.268,0,0,1,2.262-2.26h18.086a2.268,2.268,0,0,1,2.262,2.26v9.043H209.1a2.268,2.268,0,0,1,2.26,2.262v31.652a2.268,2.268,0,0,1-2.26,2.262H204.58v2.26a2.267,2.267,0,0,1-2.26,2.26Zm-27.131-9.043h31.652V91.687H175.189Zm9.043-31.653H197.8V80.382H184.232Z" transform="translate(0 0)" fill="#0066b3"/>
    <path id="路径_20" data-name="路径 20" d="M426.829,417.2H419.6a2.408,2.408,0,1,0,0,4.816h7.226a2.408,2.408,0,1,0,0-4.816" transform="translate(-232.201 -321.112)" fill="#ef3535"/>
  </g>
</svg>
