<svg width="57px" height="40px" viewBox="0 0 57 40" version="1.1" xmlns="http://www.w3.org/2000/svg" xmlns:xlink="http://www.w3.org/1999/xlink">
    <g id="高保真" stroke="none" stroke-width="1" fill="none" fill-rule="evenodd">
        <g id="转账" transform="translate(-430.000000, -159.000000)">
            <g id="编组-2" transform="translate(24.000000, 125.000000)">
                <g id="矩形">
                    <use fill="black" fill-opacity="1" filter="url(#filter-2)" xlink:href="#path-1"></use>
                    <use fill="#FFFFFF" fill-rule="evenodd" xlink:href="#path-1"></use>
                </g>
                <g id="转账设置" transform="translate(383.000000, 35.000000)">
                    <g id="刷卡设置" transform="translate(24.000000, 0.000000)">
                        <rect id="矩形备份-3" stroke="#0066B3" stroke-width="2" x="0" y="0" width="47.0724638" height="36.9855072" rx="8"></rect>
                        <rect id="矩形" fill="#FFFFFF" x="38.6509549" y="20.1817689" width="12.6086957" height="18.4927536"></rect>
                        <g id="设置" transform="translate(37.166193, 22.090749)" fill-rule="nonzero">
                            <rect id="矩形" fill="#FFFFFF" opacity="0" x="0" y="0" width="19.6082893" height="19.6082893"></rect>
                            <path d="M17.0656265,8.12298524 L13.4348952,1.83435409 L6.17339415,1.83435409 L2.54266279,8.12298524 L6.17339415,14.4116164 L13.4348952,14.4116164 L17.0656265,8.12298524 Z M17.7621229,8.29532372 L13.9323789,14.9286318 C13.8708099,15.0352725 13.7570268,15.1009703 13.6338887,15.1009703 L5.97440065,15.1009703 C5.85126256,15.1009703 5.73747945,15.0352725 5.6759104,14.9286318 L1.8461664,8.29532372 C1.78459579,8.18868029 1.78459579,8.05729018 1.8461664,7.95064676 L5.6759104,1.31733865 C5.73747945,1.21069794 5.85126256,1.14500017 5.97440065,1.14500017 L13.6338887,1.14500017 C13.7570268,1.14500017 13.8708099,1.21069794 13.9323789,1.31733865 L17.7621229,7.95064676 C17.8236935,8.05729018 17.8236935,8.18868029 17.7621229,8.29532372 L17.7621229,8.29532372 Z" id="形状" stroke="#EF3535" stroke-width="0.5" fill="#EF3535"></path>
                            <path d="M9.80414466,11.1229852 C8.14728701,11.1229852 6.80414466,9.77984289 6.80414466,8.12298524 C6.80414466,6.46612759 8.14728701,5.12298524 9.80414466,5.12298524 C11.4610023,5.12298524 12.8041447,6.46612759 12.8041447,8.12298524 C12.8041447,9.77984289 11.4610023,11.1229852 9.80414466,11.1229852 Z M9.80414466,10.1229852 C10.908722,10.1229852 11.8041447,9.22756259 11.8041447,8.12298524 C11.8041447,7.01840788 10.908722,6.12298524 9.80414466,6.12298524 C8.6995673,6.12298524 7.80414466,7.01840788 7.80414466,8.12298524 C7.80414466,9.22756259 8.6995673,10.1229852 9.80414466,10.1229852 Z" id="形状" fill="#EF3535"></path>
                        </g>
                        <path d="M45.9423367,8.87278583 C47.7817293,8.87278583 47.7817293,6.72463768 45.9423367,6.72463768 L1.16911372,6.72463768 C-0.0571480268,6.72463768 -0.0571480268,7.44068706 1.16911372,8.87278583 L45.9423367,8.87278583 Z" id="路径备份" fill="#0066B3" fill-rule="nonzero"></path>
                    </g>
                </g>
            </g>
        </g>
    </g>
</svg>