<svg width="37px" height="48px" viewBox="0 0 37 48" version="1.1" xmlns="http://www.w3.org/2000/svg" xmlns:xlink="http://www.w3.org/1999/xlink">
    <g id="高保真" stroke="none" stroke-width="1" fill="none" fill-rule="evenodd">
        <g id="消息中心" transform="translate(-523.000000, -454.000000)" fill-rule="nonzero">
            <g id="行李箱" transform="translate(523.000000, 454.000000)">
                <path d="M28.2493369,6.77586207 L28.2493369,5.14456233 C28.2493369,2.45291777 26.0470822,0.25066313 23.3554377,0.25066313 L13.5676393,0.25066313 C10.8759947,0.25066313 8.67374005,2.45291777 8.67374005,5.14456233 L8.67374005,6.77586207 C4.18766578,6.77586207 0.517241379,10.4462865 0.517241379,14.9323607 L0.517241379,36.1392573 C0.517241379,40.6253316 4.18766578,44.295756 8.67374005,44.295756 L10.3050398,44.295756 L10.3050398,45.9270557 C10.3050398,46.8242706 11.0391247,47.5583554 11.9363395,47.5583554 C12.8335544,47.5583554 13.5676393,46.8242706 13.5676393,45.9270557 L13.5676393,44.295756 L23.3554377,44.295756 L23.3554377,45.9270557 C23.3554377,46.8242706 24.0895225,47.5583554 24.9867374,47.5583554 C25.8839523,47.5583554 26.6180371,46.8242706 26.6180371,45.9270557 L26.6180371,44.295756 L28.2493369,44.295756 C32.7354111,44.295756 36.4058355,40.6253316 36.4058355,36.1392573 L36.4058355,14.9323607 C36.4058355,10.4462865 32.7354111,6.77586207 28.2493369,6.77586207 Z M11.9363395,5.14456233 C11.9363395,4.24734748 12.6704244,3.5132626 13.5676393,3.5132626 L23.3554377,3.5132626 C24.2526525,3.5132626 24.9867374,4.24734748 24.9867374,5.14456233 L24.9867374,6.77586207 L11.9363395,6.77586207 L11.9363395,5.14456233 Z M33.1432361,36.1392573 C33.1432361,38.8309019 30.9409814,41.0331565 28.2493369,41.0331565 L8.67374005,41.0331565 C5.98209549,41.0331565 3.77984085,38.8309019 3.77984085,36.1392573 L3.77984085,14.9323607 C3.77984085,12.2407162 5.98209549,10.0384615 8.67374005,10.0384615 L28.2493369,10.0384615 C30.9409814,10.0384615 33.1432361,12.2407162 33.1432361,14.9323607 L33.1432361,36.1392573 Z" id="形状" fill="#0066B3"></path>
                <path d="M12.7519894,18.6007958 C11.8547745,18.6007958 11.1206897,19.2078963 11.1206897,19.9499082 L11.1206897,34.7901449 C11.1206897,35.5321567 11.8547745,36.1392573 12.7519894,36.1392573 C13.6492042,36.1392573 14.3832891,35.5321567 14.3832891,34.7901449 L14.3832891,19.9499082 C14.3832891,19.2078963 13.6492042,18.6007958 12.7519894,18.6007958 Z" id="路径" fill="#EF3535"></path>
                <path d="M24.1710875,18.6007958 C23.2738727,18.6007958 22.5397878,19.2078963 22.5397878,19.9499082 L22.5397878,34.7901449 C22.5397878,35.5321567 23.2738727,36.1392573 24.1710875,36.1392573 C25.0683024,36.1392573 25.8023873,35.5321567 25.8023873,34.7901449 L25.8023873,19.9499082 C25.8023873,19.2078963 25.0683024,18.6007958 24.1710875,18.6007958 Z" id="路径" fill="#EF3535"></path>
            </g>
        </g>
    </g>
</svg>