<svg width="48px" height="42px" viewBox="0 0 48 42" version="1.1" xmlns="http://www.w3.org/2000/svg" xmlns:xlink="http://www.w3.org/1999/xlink">
    <g id="高保真" stroke="none" stroke-width="1" fill="none" fill-rule="evenodd">
        <g id="全部功能" transform="translate(-586.000000, -726.000000)" fill-rule="nonzero">
            <g id="刷卡设置" transform="translate(586.000000, 726.000000)">
                <g id="设置">
                    <path d="M42.8945431,20.9499566 L33.3945682,4.94995658 L14.3945181,4.94995658 L4.89454311,20.9499566 L14.3945181,36.9499566 L33.3945682,36.9499566 L42.8945431,20.9499566 Z M47.3003615,21.4568345 L36.0364086,40.9665642 C35.8553231,41.2802133 35.5206669,41.4734421 35.1584961,41.4734421 L12.6305901,41.4734421 C12.2684193,41.4734421 11.9337631,41.2802133 11.7526777,40.9665642 L0.488724693,21.4568345 C0.307634667,21.1431773 0.307634667,20.7567358 0.488724693,20.4430787 L11.7526777,0.933348969 C11.9337631,0.619699812 12.2684193,0.426471086 12.6305901,0.426471086 L35.1584961,0.426471086 C35.5206669,0.426471086 35.8553231,0.619699812 36.0364086,0.933348969 L47.3003615,20.4430787 C47.4814515,20.7567358 47.4814515,21.1431773 47.3003615,21.4568345 L47.3003615,21.4568345 Z" id="形状" fill="#0066B3"></path>
                    <path d="M23.8945431,32.7146625 C17.3970621,32.7146625 12.1298372,27.4474376 12.1298372,20.9499566 C12.1298372,14.4524756 17.3970621,9.1852507 23.8945431,9.1852507 C30.3920241,9.1852507 35.659249,14.4524756 35.659249,20.9499566 C35.659249,27.4474376 30.3920241,32.7146625 23.8945431,32.7146625 Z M23.8945431,28.9499566 C28.3128525,28.9499566 31.8945431,25.368266 31.8945431,20.9499566 C31.8945431,16.5316472 28.3128525,12.9499566 23.8945431,12.9499566 C19.4762337,12.9499566 15.8945431,16.5316472 15.8945431,20.9499566 C15.8945431,25.368266 19.4762337,28.9499566 23.8945431,28.9499566 Z" id="形状" fill="#EF3535"></path>
                </g>
            </g>
        </g>
    </g>
</svg>