<svg width="52px" height="42px" viewBox="0 0 52 42" version="1.1" xmlns="http://www.w3.org/2000/svg" xmlns:xlink="http://www.w3.org/1999/xlink">
    <g id="高保真" stroke="none" stroke-width="1" fill="none" fill-rule="evenodd">
        <g id="全部功能" transform="translate(-609.000000, -585.000000)">
            <g id="菜单标题" transform="translate(45.000000, 454.000000)"></g>
            <g id="记录" transform="translate(611.000000, 587.000000)">
                <path d="M12.6406015,13.6691729 L35.2691729,13.6691729 C35.6478825,13.6691729 35.9548872,13.86913 35.9548872,14.1157895 L35.9548872,16.2 C35.9548872,16.4466595 35.6478825,16.6466165 35.2691729,16.6466165 L12.6406015,16.6466165 C12.261892,16.6466165 11.9548872,16.4466595 11.9548872,16.2 L11.9548872,14.1157895 C11.9548872,13.86913 12.261892,13.6691729 12.6406015,13.6691729 Z M6.42534909,13.6691729 L9.54457573,13.6691729 C9.77948954,13.6691729 9.96992481,13.86913 9.96992481,14.1157895 L9.96992481,16.2 C9.96992481,16.4466595 9.77948954,16.6466165 9.54457573,16.6466165 L6.42534909,16.6466165 C6.19043527,16.6466165 6,16.4466595 6,16.2 L6,14.1157895 C6,13.86913 6.19043527,13.6691729 6.42534909,13.6691729 Z M12.6406015,19.1278195 L35.2691729,19.1278195 C35.6478825,19.1278195 35.9548872,19.3277766 35.9548872,19.5744361 L35.9548872,21.6586466 C35.9548872,21.9053061 35.6478825,22.1052632 35.2691729,22.1052632 L12.6406015,22.1052632 C12.261892,22.1052632 11.9548872,21.9053061 11.9548872,21.6586466 L11.9548872,19.5744361 C11.9548872,19.3277766 12.261892,19.1278195 12.6406015,19.1278195 Z M6.42534909,19.1278195 L9.54457573,19.1278195 C9.77948954,19.1278195 9.96992481,19.3277766 9.96992481,19.5744361 L9.96992481,21.6586466 C9.96992481,21.9053061 9.77948954,22.1052632 9.54457573,22.1052632 L6.42534909,22.1052632 C6.19043527,22.1052632 6,21.9053061 6,21.6586466 L6,19.5744361 C6,19.3277766 6.19043527,19.1278195 6.42534909,19.1278195 Z M12.6406015,7.71428571 L35.2691729,7.71428571 C35.6478825,7.71428571 35.9548872,7.91424275 35.9548872,8.16090226 L35.9548872,10.2451128 C35.9548872,10.4917723 35.6478825,10.6917293 35.2691729,10.6917293 L12.6406015,10.6917293 C12.261892,10.6917293 11.9548872,10.4917723 11.9548872,10.2451128 L11.9548872,8.16090226 C11.9548872,7.91424275 12.261892,7.71428571 12.6406015,7.71428571 Z M6.42534909,7.71428571 L9.54457573,7.71428571 C9.77948954,7.71428571 9.96992481,7.91424275 9.96992481,8.16090226 L9.96992481,10.2451128 C9.96992481,10.4917723 9.77948954,10.6917293 9.54457573,10.6917293 L6.42534909,10.6917293 C6.19043527,10.6917293 6,10.4917723 6,10.2451128 L6,8.16090226 C6,7.91424275 6.19043527,7.71428571 6.42534909,7.71428571 Z" id="形状" fill="#EF3535" fill-rule="nonzero"></path>
                <rect id="矩形" stroke="#0066B3" stroke-width="3.6" x="0" y="0" width="48" height="37.7142857" rx="8"></rect>
            </g>
        </g>
    </g>
</svg>