<svg width="38px" height="41px" viewBox="0 0 38 41" version="1.1" xmlns="http://www.w3.org/2000/svg" xmlns:xlink="http://www.w3.org/1999/xlink">
    <g id="调整" stroke="none" stroke-width="1" fill="none" fill-rule="evenodd">
        <g id="收支详情" transform="translate(-677.000000, -957.000000)" fill="#FFFFFF" fill-rule="nonzero">
            <g id="delete" transform="translate(677.000000, 957.000000)">
                <path d="M30.6111111,40.9116379 L7.38888889,40.9116379 C4.99409722,40.9116379 3.03472222,38.9433728 3.03472222,36.5377155 L3.03472222,10.294181 C3.03472222,9.49229526 3.68784722,8.8362069 4.48611111,8.8362069 C5.284375,8.8362069 5.9375,9.49229526 5.9375,10.294181 L5.9375,36.5377155 C5.9375,37.3396013 6.590625,37.9956897 7.38888889,37.9956897 L30.6111111,37.9956897 C31.409375,37.9956897 32.0625,37.3396013 32.0625,36.5377155 L32.0625,10.294181 C32.0625,9.49229526 32.715625,8.8362069 33.5138889,8.8362069 C34.3121528,8.8362069 34.9652778,9.49229526 34.9652778,10.294181 L34.9652778,36.5377155 C34.9652778,38.9433728 33.0059028,40.9116379 30.6111111,40.9116379 Z M36.4166667,5.92025862 L26.2569444,5.92025862 C25.8940972,5.92025862 25.53125,5.77446121 25.2409722,5.48286638 L23.2090278,3.44170259 C22.91875,3.15010776 22.5559028,3.00431034 22.1204861,3.00431034 L15.8069444,3.00431034 C15.4440972,3.00431034 15.08125,3.15010776 14.7909722,3.44170259 L12.7590278,5.48286638 C12.46875,5.77446121 12.1059028,5.92025862 11.7430556,5.92025862 L1.58333333,5.92025862 C0.785069444,5.92025862 0.131944444,5.26417026 0.131944444,4.46228448 C0.131944444,3.66039871 0.785069444,3.00431034 1.58333333,3.00431034 L11.1625,3.00431034 L12.7590278,1.40053879 C13.5572917,0.52575431 14.7184028,0.088362069 15.8795139,0.088362069 L22.1930556,0.088362069 C23.3541667,0.088362069 24.4427083,0.52575431 25.2409722,1.40053879 L26.8375,3.00431034 L36.4166667,3.00431034 C37.2149306,3.00431034 37.8680556,3.66039871 37.8680556,4.46228448 C37.8680556,5.26417026 37.2149306,5.92025862 36.4166667,5.92025862 Z M13.9201389,35.0797414 C13.121875,35.0797414 12.46875,34.423653 12.46875,33.6217672 L12.46875,10.294181 C12.46875,9.49229526 13.121875,8.8362069 13.9201389,8.8362069 C14.7184028,8.8362069 15.3715278,9.49229526 15.3715278,10.294181 L15.3715278,33.6217672 C15.3715278,34.423653 14.7184028,35.0797414 13.9201389,35.0797414 Z M24.0798611,35.0797414 C23.2815972,35.0797414 22.6284722,34.423653 22.6284722,33.6217672 L22.6284722,10.294181 C22.6284722,9.49229526 23.2815972,8.8362069 24.0798611,8.8362069 C24.878125,8.8362069 25.53125,9.49229526 25.53125,10.294181 L25.53125,33.6217672 C25.53125,34.423653 24.878125,35.0797414 24.0798611,35.0797414 Z" id="形状"></path>
            </g>
        </g>
    </g>
</svg>