<svg width="14px" height="14px" viewBox="0 0 14 14" version="1.1" xmlns="http://www.w3.org/2000/svg" xmlns:xlink="http://www.w3.org/1999/xlink">
    <g id="页面-1" stroke="none" stroke-width="1" fill="none" fill-rule="evenodd">
        <g id="iPhone-8" transform="translate(-103.000000, -152.000000)" fill="#FF4D4F" fill-rule="nonzero">
            <g id="warning" transform="translate(103.000000, 152.000000)">
                <path d="M7,12.3333333 C8.9054165,12.3333333 10.666094,11.3168058 11.6188022,9.66666667 C12.5715105,8.0165276 12.5715105,5.9834724 11.6188022,4.33333331 C10.666094,2.68319423 8.9054165,1.66666667 7,1.66666667 C4.05448134,1.66666667 1.66666667,4.05448134 1.66666667,7 C1.66666667,9.94551866 4.05448134,12.3333333 7,12.3333333 L7,12.3333333 Z M7,13.6666667 C3.318,13.6666667 0.333333328,10.682 0.333333328,7 C0.333333328,3.318 3.318,0.333333328 7,0.333333328 C10.682,0.333333328 13.6666667,3.318 13.6666667,7 C13.6666667,10.682 10.682,13.6666667 7,13.6666667 Z M6.33333333,9.66666667 L7.66666667,9.66666667 L7.66666667,11 L6.33333333,11 L6.33333333,9.66666667 Z M6.33333333,3 L7.66666667,3 L7.66666667,8.33333333 L6.33333333,8.33333333 L6.33333333,3 Z" id="形状"></path>
            </g>
        </g>
    </g>
</svg>