<svg xmlns="http://www.w3.org/2000/svg" width="52.218" height="52.979" viewBox="0 0 52.218 52.979">
  <g id="组_8" data-name="组 8" transform="translate(-437.75 -544.55)">
    <g id="组_10" data-name="组 10">
      <g id="黄金" transform="translate(437.75 544.55)">
        <path id="路径_20" data-name="路径 20" d="M59.769,38.882c-.89-10.388-10.24-20.628-14.1-24.338l2.968-8.162a2.82,2.82,0,0,0-2.523-3.71H39.141a6.678,6.678,0,0,0-10.685,0H21.407a2.686,2.686,0,0,0-2.523,3.71l2.82,7.865C18.142,17.66,8.5,28.2,7.605,38.882a18.328,18.328,0,0,0,5.046,14.1h41.7c3.71-4.155,5.788-8.9,5.342-14.1ZM28.085,6.827h2.078L31.35,5.194a2.671,2.671,0,0,1,2.226-1.039A3.161,3.161,0,0,1,35.8,5.194l1.187,1.632h7.123l-2.449,6.826H25.414L22.891,6.827ZM52.571,48.973H14.432a13.979,13.979,0,0,1-2.968-9.795c.742-8.756,9.053-18.105,12.317-21.518H42.925c3.413,3.413,12.021,12.763,12.763,21.518a14.113,14.113,0,0,1-3.116,9.795Z" transform="translate(-7.551 0)" fill="#0066b3"/>
      </g>
    </g>
    <g id="黄金-2" data-name="黄金" transform="translate(457.256 567.185)">
      <path id="路径_20-2" data-name="路径 20" d="M50.755,76.714a5.417,5.417,0,0,0-2.226-4.3,5.936,5.936,0,0,0-3.265-1.336V65.584a3.4,3.4,0,0,1,2.374,2.078h3.116a6.307,6.307,0,0,0-5.342-5.194v-.594a1.336,1.336,0,0,0-2.671,0v.594a6.292,6.292,0,0,0-5.491,5.788,6.292,6.292,0,0,0,5.491,5.788v5.491a3.4,3.4,0,0,1-2.374-2.078H37.25a6.307,6.307,0,0,0,5.342,5.194v1.039a1.336,1.336,0,1,0,2.671,0V82.8c3.116-.89,5.491-3.265,5.491-6.084ZM40.144,68.107a3.116,3.116,0,0,1,2.374-2.671V70.63c-1.41-.445-2.374-1.336-2.374-2.523Zm5.194,11.279V74.191a3.116,3.116,0,0,1,2.374,2.671,3.131,3.131,0,0,1-2.449,2.523Z" transform="translate(-37.25 -60.538)" fill="#ef3535"/>
    </g>
  </g>
</svg>
