<?xml version="1.0" encoding="UTF-8"?>
<svg width="16px" height="14px" viewBox="0 0 16 14" version="1.1" xmlns="http://www.w3.org/2000/svg" xmlns:xlink="http://www.w3.org/1999/xlink">
    <g id="图标" stroke="none" stroke-width="1" fill="none" fill-rule="evenodd">
        <g id="10.5”-iPad-Air" transform="translate(-826.000000, -175.000000)" fill-rule="nonzero">
            <g id="social-wechat" transform="translate(826.000000, 174.000000)">
                <rect id="矩形" fill="#000000" opacity="0" x="0" y="0" width="16" height="16"></rect>
                <path d="M11.1273333,5.50366667 C11.2083333,5.50366667 11.288,5.50466667 11.3676667,5.509 C10.9466667,3.21466667 8.577,1.459 5.717,1.459 C2.55933333,1.459 0,3.59966667 0,6.24033333 C0,7.78866666 0.879666672,9.165 2.24433333,10.0386667 L2.29666667,10.072 L1.74433333,11.802 L3.811,10.7493333 L3.90833333,10.7773333 C4.62152855,10.9745214 5.36233081,11.0529036 6.101,11.0093333 C5.98119014,10.6409451 5.91988997,10.2560476 5.91933333,9.86866667 C5.91966666,7.458 8.252,5.50366667 11.1273333,5.50366667 L11.1273333,5.50366667 Z M7.707,3.81666667 C8.15033333,3.81666667 8.50933333,4.16433334 8.50933333,4.59366667 C8.50933333,5.02266667 8.15033333,5.37133333 7.707,5.37133333 C7.263,5.37133333 6.9043331,5.023 6.9043331,4.59366667 C6.904,4.164 7.263,3.81666667 7.707,3.81666667 Z M3.72766667,5.371 C3.284,5.371 2.925,5.02266667 2.925,4.59333333 C2.925,4.164 3.28433333,3.81633333 3.72766667,3.81633333 C4.17133334,3.81633333 4.53133333,4.164 4.53133333,4.59333333 C4.53133333,5.02266666 4.17133333,5.371 3.72766667,5.371 L3.72766667,5.371 Z" id="形状" fill="#46AF35"></path>
                <path d="M6.34,9.897 C6.34,12.1283333 8.50333333,13.937 11.1706667,13.937 C11.7156219,13.9377708 12.2578501,13.8600851 12.7806667,13.7063333 L14.526,14.5963333 L14.0593333,13.134 L14.1033333,13.106 C15.256,12.368 15.9993333,11.2056667 15.9993333,9.89666667 C15.9993333,7.66633334 13.837,5.85766667 11.1703333,5.85766667 C8.50333333,5.85833334 6.34,7.66666667 6.34,9.897 Z M12.173,8.50566667 C12.173,8.14366667 12.4763333,7.85 12.8506667,7.85 C13.226,7.85 13.529,8.144 13.529,8.50566667 C13.529,8.869 13.2256667,9.16333333 12.8506667,9.16333333 C12.4763333,9.16333333 12.173,8.86866666 12.173,8.50566667 L12.173,8.50566667 Z M8.81133333,8.50566667 C8.81133333,8.14366667 9.11533333,7.85 9.48966667,7.85 C9.86433334,7.85 10.168,8.144 10.168,8.50566667 C10.168,8.869 9.86433333,9.16333333 9.48966667,9.16333333 C9.11533334,9.16333333 8.81133333,8.86866666 8.81133333,8.50566667 L8.81133333,8.50566667 Z" id="形状" fill="#46AF35"></path>
            </g>
        </g>
    </g>
</svg>